<svg xmlns:xlink="http://www.w3.org/1999/xlink" xmlns="http://www.w3.org/2000/svg" height="76" width="78" viewBox="0 0 78 76"><defs/><g id="group1" transform="translate(1.000000,1.000000)"><path fill="#147eba" fill-rule="nonzero" id="shape2" d="M.0,.0L76.0,.0L76.0,74.0L.0,74.0L.0,.0z"/><path fill="#ffffff" fill-rule="nonzero" id="shape3" d="M43.0,28.0L34.9,18.2L43.0,8.5L7.5,8.5L7.5,5.7C8.8,5.3,9.7,4.2,9.7,2.9C9.5,1.2,8.1,.0,6.5,.0C4.8,.0,3.4,1.2,3.3,2.9C3.3,4.2,4.2,5.3,5.5,5.7L5.5,50.5L.0,50.5L.0,52.6L12.8,52.6L12.8,50.5L7.5,50.5L7.5,28.0L43.0,28.0zM6.4,1.9C6.8,1.9,7.2,2.1,7.4,2.5C7.5,2.9,7.4,3.3,7.1,3.6C6.9,3.9,6.4,3.9,6.0,3.8C5.6,3.6,5.4,3.3,5.4,2.9C5.4,2.3,5.9,1.9,6.4,1.9zM38.4,10.6L32.1,18.2L38.4,25.9L7.5,25.9L7.5,10.6L38.4,10.6z" transform="translate(16.502868,10.806479)"/></g></svg>