<?xml version="1.0" encoding="UTF-8"?>
<!DOCTYPE svg PUBLIC "-//W3C//DTD SVG 1.1//EN" "http://www.w3.org/Graphics/SVG/1.1/DTD/svg11.dtd">
<svg xmlns="http://www.w3.org/2000/svg" xmlns:xlink="http://www.w3.org/1999/xlink" version="1.1" width="79px" height="79px" viewBox="-0.5 -0.5 79 79" style="background-color: rgb(255, 255, 255);"><defs><style type="text/css">@import url(https://fonts.googleapis.com/css?family=Gloria+Hallelujah);&#xa;@import url(https://fonts.googleapis.com/css?family=Architects+Daughter);&#xa;</style></defs><g><rect x="0" y="0" width="78" height="78" fill="none" stroke="none" pointer-events="all"/><path d="M 20.61 60.13 L 20.61 55.1 L 23.75 57.61 Z M 19.94 50.02 C 19.41 49.6 18.68 49.51 18.07 49.81 C 17.45 50.11 17.06 50.73 17.06 51.41 L 17.06 63.82 C 17.06 64.5 17.45 65.12 18.07 65.41 C 18.31 65.53 18.58 65.59 18.84 65.59 C 19.23 65.59 19.62 65.46 19.94 65.2 L 27.7 59 C 28.12 58.66 28.36 58.15 28.36 57.61 C 28.36 57.07 28.12 56.57 27.7 56.23 Z M 62.49 44.03 L 62.49 37.07 L 65.96 40.55 Z M 69.72 39.3 L 61.97 31.54 C 61.46 31.03 60.7 30.88 60.04 31.16 C 59.37 31.43 58.94 32.08 58.94 32.79 L 58.94 38.78 L 45.42 38.78 L 45.42 21.94 C 45.42 20.96 44.63 20.17 43.65 20.17 L 30.01 20.17 L 30.01 23.71 L 41.88 23.71 L 41.88 38.78 L 29.69 38.78 L 29.69 42.32 L 41.88 42.32 L 41.88 57.39 L 30.01 57.39 L 30.01 60.94 L 43.65 60.94 C 44.63 60.94 45.42 60.14 45.42 59.16 L 45.42 42.32 L 58.94 42.32 L 58.94 48.31 C 58.94 49.02 59.38 49.67 60.04 49.94 C 60.26 50.04 60.49 50.08 60.72 50.08 C 61.18 50.08 61.63 49.9 61.97 49.56 L 69.72 41.8 C 70.42 41.11 70.42 39.99 69.72 39.3 Z M 20.61 43.07 L 20.61 38.03 L 23.75 40.55 Z M 19.94 32.96 C 19.41 32.53 18.68 32.45 18.07 32.75 C 17.45 33.04 17.06 33.66 17.06 34.35 L 17.06 46.76 C 17.06 47.44 17.45 48.06 18.07 48.35 C 18.31 48.47 18.58 48.53 18.84 48.53 C 19.23 48.53 19.62 48.4 19.94 48.14 L 27.7 41.93 C 28.12 41.6 28.36 41.09 28.36 40.55 C 28.36 40.01 28.12 39.5 27.7 39.17 Z M 20.61 24.45 L 20.61 19.42 L 23.75 21.94 Z M 19.94 14.35 C 19.41 13.92 18.68 13.84 18.07 14.14 C 17.45 14.43 17.06 15.05 17.06 15.73 L 17.06 28.14 C 17.06 28.82 17.45 29.44 18.07 29.74 C 18.31 29.86 18.58 29.91 18.84 29.91 C 19.23 29.91 19.62 29.78 19.94 29.53 L 27.7 23.32 C 28.12 22.99 28.36 22.48 28.36 21.94 C 28.36 21.4 28.12 20.89 27.7 20.55 Z M 39 74.45 C 19.45 74.45 3.55 58.55 3.55 39 C 3.55 19.45 19.45 3.55 39 3.55 C 58.55 3.55 74.45 19.45 74.45 39 C 74.45 58.55 58.55 74.45 39 74.45 Z M 39 0 C 17.49 0 0 17.49 0 39 C 0 60.5 17.49 78 39 78 C 60.5 78 78 60.5 78 39 C 78 17.49 60.5 0 39 0 Z" fill="#4d27aa" stroke="none" pointer-events="all"/></g></svg>