<?xml version="1.0" encoding="UTF-8"?>
<!DOCTYPE svg PUBLIC "-//W3C//DTD SVG 1.1//EN" "http://www.w3.org/Graphics/SVG/1.1/DTD/svg11.dtd">
<svg xmlns="http://www.w3.org/2000/svg" xmlns:xlink="http://www.w3.org/1999/xlink" version="1.1" width="79px" height="79px" viewBox="-0.5 -0.5 79 79" style="background-color: rgb(255, 255, 255);"><defs><style type="text/css">@import url(https://fonts.googleapis.com/css?family=Gloria+Hallelujah);&#xa;@import url(https://fonts.googleapis.com/css?family=Architects+Daughter);&#xa;</style></defs><g><path d="M 0 0 L 78 0 L 78 78 L 0 78 Z" fill="#945df2" stroke="none" pointer-events="all"/><path d="M 28.05 62.19 L 47.55 62.19 L 47.55 55.78 C 47.55 55.21 46.93 54.74 46.2 54.74 L 29.4 54.74 C 28.67 54.74 28.05 55.21 28.05 55.78 Z M 53.34 65.83 L 53.34 69.85 L 53.34 70.2 L 51.16 70.2 L 51.16 69.85 L 51.16 65.83 C 51.16 64.97 50.66 64.37 50.21 64.37 L 25.39 64.37 C 24.94 64.37 24.44 64.97 24.44 65.83 L 24.44 69.85 L 24.44 70.2 L 22.25 70.2 L 22.25 69.85 L 22.25 65.83 C 22.25 63.82 23.66 62.19 25.39 62.19 L 25.87 62.19 L 25.87 55.78 C 25.87 54 27.45 52.55 29.4 52.55 L 46.2 52.55 C 48.15 52.55 49.73 54 49.73 55.78 L 49.73 62.19 L 50.21 62.19 C 51.94 62.19 53.34 63.82 53.34 65.83 Z M 45.03 38.1 C 46.42 38.1 47.55 36.97 47.55 35.58 C 47.55 34.19 46.42 33.06 45.03 33.06 C 43.64 33.06 42.5 34.19 42.5 35.58 C 42.5 36.97 43.64 38.1 45.03 38.1 Z M 43.93 51.24 L 43.93 40.15 C 41.87 39.65 40.32 37.8 40.32 35.58 C 40.32 32.99 42.43 30.88 45.03 30.88 C 47.62 30.88 49.73 32.99 49.73 35.58 C 49.73 37.8 48.19 39.65 46.12 40.15 L 46.12 51.24 Z M 40.24 27.15 C 40.24 25.76 39.11 24.63 37.72 24.63 C 36.33 24.63 35.2 25.76 35.2 27.15 C 35.2 28.54 36.33 29.67 37.72 29.67 C 39.11 29.67 40.24 28.54 40.24 27.15 Z M 42.43 27.15 C 42.43 29.34 40.92 31.17 38.89 31.69 L 38.89 51.24 L 36.71 51.24 L 36.71 31.74 C 34.6 31.28 33.02 29.4 33.02 27.15 C 33.02 24.56 35.13 22.45 37.72 22.45 C 40.32 22.45 42.43 24.56 42.43 27.15 Z M 30.57 33.06 C 29.18 33.06 28.05 34.19 28.05 35.58 C 28.05 36.97 29.18 38.1 30.57 38.1 C 31.96 38.1 33.09 36.97 33.09 35.58 C 33.09 34.19 31.96 33.06 30.57 33.06 Z M 30.57 30.88 C 33.17 30.88 35.28 32.99 35.28 35.58 C 35.28 37.8 33.73 39.65 31.67 40.15 L 31.67 51.24 L 29.48 51.24 L 29.48 40.15 C 27.41 39.65 25.87 37.8 25.87 35.58 C 25.87 32.99 27.98 30.88 30.57 30.88 Z M 69.56 36.76 C 69.56 45.12 63.22 48.09 57.29 48.09 L 48.75 48.09 L 48.75 45.91 L 57.29 45.91 C 59.65 45.91 67.38 45.25 67.38 36.76 C 67.38 30.62 62.57 28.37 58.53 27.56 C 58.05 27.46 57.69 27.05 57.66 26.55 C 57.37 21.71 54.54 19.99 52.2 19.99 C 50.62 19.99 49.14 20.74 48.14 22.06 C 47.89 22.37 47.5 22.53 47.1 22.47 C 46.71 22.41 46.38 22.14 46.24 21.77 C 45.55 19.89 44.32 17.26 42.4 15.4 C 38.16 11.28 32.37 10.16 26.89 12.41 C 22.42 14.24 18.78 19.83 18.78 24.88 C 18.78 25.44 18.81 25.99 18.88 26.54 C 18.95 27.09 18.59 27.6 18.06 27.73 C 15.82 28.28 10.62 30.24 10.62 36.68 C 10.62 36.9 10.63 37.13 10.65 37.35 C 10.91 42.07 15.35 45.91 20.54 45.91 L 26.82 45.91 L 26.82 48.09 L 20.54 48.09 C 14.21 48.09 8.79 43.33 8.46 37.47 C 8.45 37.2 8.44 36.94 8.44 36.68 C 8.44 31.44 11.48 27.46 16.62 25.86 C 16.61 25.54 16.59 25.21 16.59 24.88 C 16.59 19.66 20.13 12.81 26.06 10.38 C 32.37 7.8 39.05 9.09 43.92 13.83 C 45.62 15.47 46.83 17.59 47.65 19.44 C 48.94 18.38 50.53 17.8 52.2 17.8 C 55.58 17.8 59.13 20.22 59.77 25.59 C 66.09 27.11 69.56 31.06 69.56 36.76 Z" fill="#ffffff" stroke="none" pointer-events="all"/></g></svg>