<?xml version="1.0" encoding="UTF-8"?>
<!DOCTYPE svg PUBLIC "-//W3C//DTD SVG 1.1//EN" "http://www.w3.org/Graphics/SVG/1.1/DTD/svg11.dtd">
<svg xmlns="http://www.w3.org/2000/svg" xmlns:xlink="http://www.w3.org/1999/xlink" version="1.1" width="79px" height="79px" viewBox="-0.5 -0.5 79 79" style="background-color: rgb(255, 255, 255);"><defs><style type="text/css">@import url(https://fonts.googleapis.com/css?family=Gloria+Hallelujah);&#xa;@import url(https://fonts.googleapis.com/css?family=Architects+Daughter);&#xa;</style></defs><g><path d="M 0 0 L 78 0 L 78 78 L 0 78 Z" fill="none" stroke="none" pointer-events="all"/><path d="M 26.52 55.22 C 17.57 55.22 10.3 47.95 10.3 39 C 10.3 30.05 17.57 22.78 26.52 22.78 C 35.47 22.78 42.74 30.05 42.74 39 C 42.74 47.95 35.47 55.22 26.52 55.22 M 63.96 62.71 C 63.96 65.47 61.72 67.7 58.97 67.7 C 56.21 67.7 53.98 65.47 53.98 62.71 C 53.98 59.96 56.21 57.72 58.97 57.72 C 61.72 57.72 63.96 59.96 63.96 62.71 M 58.97 10.3 C 61.72 10.3 63.96 12.53 63.96 15.29 C 63.96 18.04 61.72 20.28 58.97 20.28 C 56.21 20.28 53.98 18.04 53.98 15.29 C 53.98 12.53 56.21 10.3 58.97 10.3 M 62.71 34.01 C 65.47 34.01 67.7 36.25 67.7 39 C 67.7 41.75 65.47 43.99 62.71 43.99 C 59.96 43.99 57.72 41.75 57.72 39 C 57.72 36.25 59.96 34.01 62.71 34.01 M 45.18 40.25 L 55.34 40.25 C 55.93 43.78 59.01 46.49 62.71 46.49 C 66.84 46.49 70.2 43.13 70.2 39 C 70.2 34.87 66.84 31.51 62.71 31.51 C 59.01 31.51 55.93 34.22 55.34 37.75 L 45.18 37.75 C 45.02 35.38 44.42 33.13 43.46 31.08 L 54.53 21.31 C 55.78 22.23 57.31 22.78 58.97 22.78 C 63.1 22.78 66.46 19.42 66.46 15.29 C 66.46 11.16 63.1 7.8 58.97 7.8 C 54.84 7.8 51.48 11.16 51.48 15.29 C 51.48 16.86 51.97 18.31 52.79 19.51 L 42.22 28.84 C 38.88 23.7 33.1 20.28 26.52 20.28 C 16.2 20.28 7.8 28.68 7.8 39 C 7.8 49.32 16.2 57.72 26.52 57.72 C 33.1 57.72 38.88 54.3 42.22 49.16 L 52.79 58.49 C 51.97 59.69 51.48 61.14 51.48 62.71 C 51.48 66.84 54.84 70.2 58.97 70.2 C 63.1 70.2 66.46 66.84 66.46 62.71 C 66.46 58.58 63.1 55.22 58.97 55.22 C 57.31 55.22 55.78 55.77 54.53 56.69 L 43.46 46.92 C 44.42 44.87 45.02 42.62 45.18 40.25" fill="#4d27aa" stroke="none" pointer-events="all"/></g></svg>