<?xml version="1.0" encoding="UTF-8"?>
<!DOCTYPE svg PUBLIC "-//W3C//DTD SVG 1.1//EN" "http://www.w3.org/Graphics/SVG/1.1/DTD/svg11.dtd">
<svg xmlns="http://www.w3.org/2000/svg" xmlns:xlink="http://www.w3.org/1999/xlink" version="1.1" width="79px" height="79px" viewBox="-0.5 -0.5 79 79" style="background-color: rgb(255, 255, 255);"><defs><style type="text/css">@import url(https://fonts.googleapis.com/css?family=Gloria+Hallelujah);&#xa;@import url(https://fonts.googleapis.com/css?family=Architects+Daughter);&#xa;</style></defs><g><rect x="0" y="0" width="78" height="78" fill="none" stroke="none" pointer-events="all"/><path d="M 42.38 40.69 L 45.77 40.69 L 45.77 37.31 L 42.38 37.31 Z M 37.31 40.69 L 40.69 40.69 L 40.69 37.31 L 37.31 37.31 Z M 32.23 40.69 L 35.62 40.69 L 35.62 37.31 L 32.23 37.31 Z M 62.61 51.41 L 50.93 61.69 L 50.93 16.54 L 62.61 26.82 Z M 51.31 12.28 C 50.95 12.12 49.38 11.66 48.29 12.27 L 47.38 12.77 L 47.38 65.47 L 48.29 65.97 C 48.7 66.2 49.17 66.27 49.62 66.27 C 50.38 66.27 51.08 66.06 51.31 65.96 L 51.57 65.85 L 64.82 54.19 C 65.64 53.71 66.15 52.85 66.15 51.91 L 66.15 26.32 C 66.15 25.39 65.64 24.53 64.82 24.05 L 51.57 12.39 Z M 27.07 61.7 L 15.39 51.42 L 15.39 26.82 L 27.07 16.54 Z M 26.69 12.28 L 26.43 12.39 L 13.17 24.05 C 12.36 24.53 11.85 25.39 11.85 26.32 L 11.85 51.91 C 11.85 52.85 12.36 53.71 13.18 54.19 L 26.43 65.85 L 26.69 65.96 C 26.91 66.06 27.62 66.27 28.37 66.27 C 28.83 66.27 29.3 66.2 29.7 65.97 L 30.62 65.47 L 30.62 12.77 L 29.7 12.27 C 28.62 11.67 27.05 12.12 26.69 12.28 Z M 74.45 53.69 L 53.69 74.45 L 24.31 74.45 L 3.55 53.69 L 3.55 24.31 L 24.31 3.55 L 53.69 3.55 L 74.45 24.31 Z M 55.15 0 L 22.85 0 L 0 22.85 L 0 55.15 L 22.85 78 L 55.15 78 L 78 55.15 L 78 22.85 Z" fill="#4d27aa" stroke="none" pointer-events="all"/></g></svg>