<?xml version="1.0" encoding="UTF-8"?>
<!DOCTYPE svg PUBLIC "-//W3C//DTD SVG 1.1//EN" "http://www.w3.org/Graphics/SVG/1.1/DTD/svg11.dtd">
<svg xmlns="http://www.w3.org/2000/svg" xmlns:xlink="http://www.w3.org/1999/xlink" version="1.1" width="79px" height="79px" viewBox="-0.5 -0.5 79 79" style="background-color: rgb(255, 255, 255);"><defs><style type="text/css">@import url(https://fonts.googleapis.com/css?family=Gloria+Hallelujah);&#xa;@import url(https://fonts.googleapis.com/css?family=Architects+Daughter);&#xa;</style></defs><g><path d="M 0 0 L 78 0 L 78 78 L 0 78 Z" fill="#945df2" stroke="none" pointer-events="all"/><path d="M 40.94 40.95 C 42.02 42.17 43.46 44.04 43.46 46.2 C 43.46 50.55 39.96 54.09 35.66 54.09 L 26.74 54.09 C 22.44 54.09 18.94 50.55 18.94 46.2 C 18.94 41.86 22.44 38.32 26.74 38.32 L 31.2 38.32 L 31.2 40.57 L 26.74 40.57 C 23.67 40.57 21.17 43.1 21.17 46.2 C 21.17 49.31 23.67 51.84 26.74 51.84 L 35.66 51.84 C 38.73 51.84 41.23 49.31 41.23 46.2 C 41.23 44.81 40.12 43.39 39.28 42.45 Z M 56.83 43.95 C 56.83 48.3 53.33 51.84 49.03 51.84 L 44.57 51.84 L 44.57 49.58 L 49.03 49.58 C 52.1 49.58 54.6 47.06 54.6 43.95 C 54.6 40.85 52.1 38.32 49.03 38.32 L 40.11 38.32 C 37.04 38.32 34.54 40.85 34.54 43.95 C 34.54 44.96 35.06 45.98 35.51 46.77 L 33.58 47.89 C 32.99 46.87 32.31 45.49 32.31 43.95 C 32.31 39.61 35.81 36.07 40.11 36.07 L 49.03 36.07 C 53.33 36.07 56.83 39.61 56.83 43.95 Z M 58.25 57.47 L 19.75 57.47 C 14.5 57.46 10.33 53.69 10.05 48.69 C 10.04 48.46 10.03 48.22 10.03 47.99 C 10.03 41.55 14.61 39.4 17.39 38.69 C 17.91 38.59 18.3 38.13 18.3 37.58 C 18.3 37.52 18.29 37.47 18.28 37.41 C 18.22 36.85 18.18 36.29 18.18 35.73 C 18.18 30.55 21.85 24.98 26.53 23.05 C 32.17 20.72 38.14 21.88 42.5 26.16 C 44.21 27.82 45.53 29.95 46.45 32.49 C 46.59 32.87 46.93 33.15 47.33 33.21 C 47.73 33.27 48.13 33.11 48.38 32.78 C 49.75 30.97 51.97 30.21 54.04 30.85 C 56.44 31.59 58 34.06 58.2 37.46 C 58.23 37.97 58.6 38.4 59.09 38.5 C 63.14 39.32 67.97 41.65 67.97 48.08 C 67.97 56.25 61.88 57.47 58.25 57.47 Z M 60.35 36.47 C 59.88 32.53 57.8 29.66 54.69 28.7 C 52.3 27.96 49.79 28.51 47.88 30.08 C 46.9 27.93 45.62 26.07 44.06 24.54 C 39.04 19.62 32.17 18.28 25.69 20.96 C 20.14 23.26 15.95 29.6 15.95 35.73 C 15.95 36.07 15.97 36.41 15.99 36.75 C 12.96 37.73 7.8 40.5 7.8 47.99 C 7.8 48.26 7.81 48.54 7.82 48.81 C 8.17 55.02 13.3 59.71 19.75 59.72 L 58.25 59.72 C 61.06 59.72 70.2 58.88 70.2 48.08 C 70.2 42.13 66.71 38.03 60.35 36.47 Z" fill="#ffffff" stroke="none" pointer-events="all"/></g></svg>