<?xml version="1.0" encoding="UTF-8"?>
<!DOCTYPE svg PUBLIC "-//W3C//DTD SVG 1.1//EN" "http://www.w3.org/Graphics/SVG/1.1/DTD/svg11.dtd">
<svg xmlns="http://www.w3.org/2000/svg" xmlns:xlink="http://www.w3.org/1999/xlink" version="1.1" width="79px" height="79px" viewBox="-0.5 -0.5 79 79" style="background-color: rgb(255, 255, 255);"><defs><linearGradient x1="0%" y1="100%" x2="0%" y2="0%" id="mx-gradient-945df2-1-5a30b5-1-s-0"><stop offset="0%" style="stop-color: rgb(90, 48, 181); stop-opacity: 1;"/><stop offset="100%" style="stop-color: rgb(148, 93, 242); stop-opacity: 1;"/></linearGradient><style type="text/css">@import url(https://fonts.googleapis.com/css?family=Gloria+Hallelujah);&#xa;@import url(https://fonts.googleapis.com/css?family=Architects+Daughter);&#xa;</style></defs><g><path d="M 0 0 L 78 0 L 78 78 L 0 78 Z" fill="url(#mx-gradient-945df2-1-5a30b5-1-s-0)" stroke="none" pointer-events="all"/><path d="M 42.73 67.64 C 43.97 66.58 44.78 65.02 44.78 63.27 C 44.78 60.48 42.79 58.14 40.16 57.61 L 40.16 48.16 C 44.33 47.64 47.64 44.33 48.16 40.16 L 57.61 40.16 C 58.14 42.79 60.48 44.78 63.27 44.78 C 65.02 44.78 66.58 43.97 67.64 42.73 C 65.96 55.68 55.68 65.96 42.73 67.64 M 10.36 42.73 C 11.42 43.97 12.98 44.78 14.73 44.78 C 17.52 44.78 19.86 42.79 20.39 40.16 L 29.84 40.16 C 30.36 44.33 33.67 47.64 37.84 48.16 L 37.84 57.61 C 35.21 58.14 33.22 60.48 33.22 63.27 C 33.22 65.02 34.03 66.58 35.27 67.64 C 22.32 65.96 12.04 55.68 10.36 42.73 M 18.2 39 C 18.2 40.91 16.64 42.47 14.73 42.47 C 12.82 42.47 11.27 40.91 11.27 39 C 11.27 37.09 12.82 35.53 14.73 35.53 C 16.64 35.53 18.2 37.09 18.2 39 M 35.27 10.36 C 34.03 11.42 33.22 12.98 33.22 14.73 C 33.22 17.52 35.21 19.86 37.84 20.39 L 37.84 29.84 C 33.67 30.36 30.36 33.67 29.84 37.84 L 20.39 37.84 C 19.86 35.21 17.52 33.22 14.73 33.22 C 12.98 33.22 11.42 34.03 10.36 35.27 C 12.04 22.32 22.32 12.04 35.27 10.36 M 39 11.27 C 40.91 11.27 42.47 12.82 42.47 14.73 C 42.47 16.64 40.91 18.2 39 18.2 C 37.09 18.2 35.53 16.64 35.53 14.73 C 35.53 12.82 37.09 11.27 39 11.27 M 39 45.93 C 35.18 45.93 32.07 42.82 32.07 39 C 32.07 35.18 35.18 32.07 39 32.07 C 42.82 32.07 45.93 35.18 45.93 39 C 45.93 42.82 42.82 45.93 39 45.93 M 39 66.73 C 37.09 66.73 35.53 65.18 35.53 63.27 C 35.53 61.36 37.09 59.8 39 59.8 C 40.91 59.8 42.47 61.36 42.47 63.27 C 42.47 65.18 40.91 66.73 39 66.73 M 66.73 39 C 66.73 40.91 65.18 42.47 63.27 42.47 C 61.35 42.47 59.8 40.91 59.8 39 C 59.8 37.09 61.35 35.53 63.27 35.53 C 65.18 35.53 66.73 37.09 66.73 39 M 67.64 35.27 C 66.58 34.03 65.02 33.22 63.27 33.22 C 60.48 33.22 58.14 35.21 57.61 37.84 L 48.16 37.84 C 47.64 33.67 44.33 30.36 40.16 29.84 L 40.16 20.39 C 42.79 19.86 44.78 17.52 44.78 14.73 C 44.78 12.98 43.97 11.42 42.73 10.36 C 55.68 12.04 65.96 22.32 67.64 35.27 M 39 7.8 C 21.8 7.8 7.8 21.8 7.8 39 C 7.8 56.2 21.8 70.2 39 70.2 C 56.2 70.2 70.2 56.2 70.2 39 C 70.2 21.8 56.2 7.8 39 7.8" fill="#ffffff" stroke="none" pointer-events="all"/></g></svg>