<?xml version="1.0" encoding="UTF-8"?>
<!DOCTYPE svg PUBLIC "-//W3C//DTD SVG 1.1//EN" "http://www.w3.org/Graphics/SVG/1.1/DTD/svg11.dtd">
<svg xmlns="http://www.w3.org/2000/svg" xmlns:xlink="http://www.w3.org/1999/xlink" version="1.1" width="79px" height="79px" viewBox="-0.5 -0.5 79 79" style="background-color: rgb(255, 255, 255);"><defs><linearGradient x1="0%" y1="100%" x2="0%" y2="0%" id="mx-gradient-4d72f3-1-3334b9-1-s-0"><stop offset="0%" style="stop-color: rgb(51, 52, 185); stop-opacity: 1;"/><stop offset="100%" style="stop-color: rgb(77, 114, 243); stop-opacity: 1;"/></linearGradient><style type="text/css">@import url(https://fonts.googleapis.com/css?family=Gloria+Hallelujah);&#xa;@import url(https://fonts.googleapis.com/css?family=Architects+Daughter);&#xa;</style></defs><g><path d="M 0 0 L 78 0 L 78 78 L 0 78 Z" fill="url(#mx-gradient-4d72f3-1-3334b9-1-s-0)" stroke="none" pointer-events="all"/><path d="M 28.96 22.58 C 17.64 22.58 10.03 19.33 10.03 16.3 C 10.03 13.28 17.64 10.03 28.96 10.03 C 40.15 10.03 46.84 13.22 46.84 16.3 C 46.84 19.39 40.15 22.58 28.96 22.58 Z M 46.17 39.84 C 48.33 39.84 50.49 40.08 52.58 40.56 L 53.08 38.39 C 51.76 38.08 50.41 37.88 49.06 37.76 L 49.06 16.67 L 49.03 16.67 C 49.04 16.55 49.07 16.43 49.07 16.3 C 49.07 11.3 40.8 7.8 28.96 7.8 C 18.45 7.8 7.8 10.72 7.8 16.3 C 7.8 16.43 7.83 16.55 7.84 16.67 L 7.8 16.67 L 7.8 61.67 C 7.8 64.89 11.29 67.48 17.63 68.97 L 18.14 66.8 C 13.14 65.62 10.03 63.66 10.03 61.67 L 10.03 50.96 C 11.47 52.13 13.6 53.12 16.33 53.88 L 16.92 51.73 C 12.61 50.53 10.03 48.74 10.03 46.94 L 10.03 36.08 C 13.46 38.91 20.35 40.44 27.22 40.73 L 27.31 38.5 C 16.49 38.05 10.03 34.83 10.03 31.99 L 10.03 20.31 C 13.69 23.27 21.35 24.81 28.96 24.81 C 37.14 24.81 43.6 23.14 46.83 20.46 L 46.83 37.63 C 46.61 37.62 46.39 37.61 46.17 37.61 C 34.63 37.61 24.09 43.96 18.67 54.19 L 20.64 55.24 C 25.68 45.74 35.46 39.84 46.17 39.84 Z M 60.92 43.9 C 59.1 42.81 57.16 41.93 55.15 41.27 L 55.84 39.15 C 58.01 39.86 60.1 40.82 62.06 41.99 Z M 49.94 67.97 C 49.75 66.74 49.24 65.59 48.46 64.62 L 61.11 52.66 C 65.15 56.58 67.66 62.17 67.94 67.97 Z M 42.89 64.16 C 45.22 64.16 47.16 65.79 47.66 67.97 L 38.12 67.97 C 38.62 65.79 40.57 64.16 42.89 64.16 Z M 62.74 51.12 L 66.84 47.24 L 65.31 45.62 L 46.81 63.11 C 45.69 62.37 44.34 61.93 42.89 61.93 C 39.33 61.93 36.38 64.55 35.85 67.97 L 23.26 67.97 C 23.83 55.96 33.63 46.38 45.6 46.38 C 48.82 46.38 51.92 47.05 54.83 48.36 L 55.75 46.33 C 52.56 44.89 49.1 44.14 45.6 44.15 C 32.04 44.15 21 55.33 21 69.08 L 21 70.2 L 70.2 70.2 L 70.2 69.08 C 70.2 62.34 67.43 55.7 62.74 51.12 Z" fill="#ffffff" stroke="none" pointer-events="all"/></g></svg>