<?xml version="1.0" encoding="UTF-8"?>
<!DOCTYPE svg PUBLIC "-//W3C//DTD SVG 1.1//EN" "http://www.w3.org/Graphics/SVG/1.1/DTD/svg11.dtd">
<svg xmlns="http://www.w3.org/2000/svg" xmlns:xlink="http://www.w3.org/1999/xlink" version="1.1" width="79px" height="79px" viewBox="-0.5 -0.5 79 79" style="background-color: rgb(255, 255, 255);"><defs><style type="text/css">@import url(https://fonts.googleapis.com/css?family=Gloria+Hallelujah);&#xa;@import url(https://fonts.googleapis.com/css?family=Architects+Daughter);&#xa;</style></defs><g><path d="M 0 0 L 78 0 L 78 78 L 0 78 Z" fill="#4d72f3" stroke="none" pointer-events="all"/><path d="M 52.42 55.55 C 48.7 58.55 40.9 60.14 33.43 60.14 C 25.97 60.14 18.16 58.55 14.44 55.55 L 14.44 61.6 L 14.44 61.6 C 14.44 64.62 22.24 67.99 33.43 67.99 C 44.62 67.99 52.41 64.63 52.42 61.61 Z M 52.43 44.04 L 54.65 44.03 L 54.65 44.04 C 54.65 45.38 53.98 46.64 52.67 47.79 C 54.26 49.19 54.65 50.57 54.65 51.54 C 54.65 51.55 54.65 51.56 54.65 51.56 L 54.65 61.6 L 54.65 61.6 C 54.65 67.19 43.72 70.2 33.43 70.2 C 23.17 70.2 12.27 67.2 12.22 61.64 C 12.22 61.64 12.21 61.63 12.21 61.62 L 12.21 51.54 C 12.21 51.54 12.22 51.54 12.22 51.53 C 12.22 50.55 12.62 49.19 14.21 47.79 C 12.63 46.39 12.23 45.03 12.22 44.06 L 12.22 44.06 C 12.22 44.06 12.21 44.06 12.21 44.05 L 12.21 33.97 C 12.21 33.96 12.22 33.96 12.22 33.96 C 12.22 32.98 12.62 31.61 14.21 30.22 C 12.63 28.82 12.23 27.46 12.22 26.49 L 12.22 26.49 C 12.22 26.49 12.21 26.48 12.21 26.48 L 12.21 16.39 C 12.21 16.39 12.22 16.39 12.22 16.38 C 12.24 10.81 23.16 7.8 33.43 7.8 C 39.24 7.8 44.82 8.72 48.74 10.33 L 47.89 12.37 C 44.23 10.87 38.96 10.01 33.43 10.01 C 22.24 10.01 14.44 13.38 14.44 16.4 C 14.44 19.42 22.24 22.79 33.43 22.79 C 33.74 22.79 34.03 22.79 34.33 22.78 L 34.42 24.98 C 34.09 25 33.76 25 33.43 25 C 25.97 25 18.16 23.41 14.44 20.4 L 14.44 26.45 L 14.44 26.45 L 14.44 26.48 C 14.46 27.64 15.64 28.65 16.64 29.29 C 19.64 31.2 25.01 32.51 31 32.78 L 30.9 34.99 C 24.83 34.71 19.52 33.45 16.1 31.53 C 15.25 32.15 14.44 33.01 14.44 33.97 C 14.44 36.99 22.24 40.36 33.43 40.36 C 34.53 40.36 35.62 40.32 36.68 40.25 L 36.83 42.46 C 35.73 42.53 34.58 42.57 33.43 42.57 C 25.97 42.57 18.16 40.98 14.44 37.97 L 14.44 44.03 L 14.44 44.03 C 14.46 45.21 15.64 46.22 16.64 46.87 C 20.07 49.05 26.5 50.42 33.43 50.42 L 33.92 50.42 L 33.92 52.63 L 33.43 52.63 C 26.39 52.63 19.99 51.32 16.08 49.11 C 15.24 49.74 14.44 50.59 14.44 51.54 C 14.44 54.57 22.24 57.93 33.43 57.93 C 44.62 57.93 52.41 54.57 52.42 51.55 L 52.42 51.54 L 52.42 51.54 C 52.42 50.58 51.62 49.73 50.78 49.1 C 50.24 49.41 49.65 49.71 48.99 49.98 L 48.14 47.94 C 48.95 47.61 49.65 47.25 50.22 46.87 C 51.23 46.21 52.43 45.19 52.43 44.04 Z M 61.97 27.88 L 55.73 27.88 C 55.36 27.88 55.01 27.69 54.8 27.39 C 54.6 27.09 54.55 26.7 54.69 26.36 L 58.49 16.87 L 44.1 16.87 L 37.42 30.13 L 44.53 30.13 C 44.89 30.13 45.22 30.3 45.43 30.58 C 45.64 30.87 45.7 31.23 45.59 31.57 L 39.24 51.36 Z M 65.39 27.54 L 37.53 56.32 C 37.32 56.54 37.02 56.65 36.73 56.65 C 36.53 56.65 36.34 56.6 36.16 56.5 C 35.71 56.24 35.51 55.71 35.67 55.22 L 43.01 32.34 L 35.62 32.34 C 35.23 32.34 34.87 32.14 34.67 31.82 C 34.46 31.49 34.45 31.08 34.62 30.74 L 42.42 15.27 C 42.61 14.89 42.99 14.66 43.42 14.66 L 60.13 14.66 C 60.5 14.66 60.85 14.84 61.05 15.14 C 61.26 15.45 61.3 15.83 61.17 16.17 L 57.37 25.67 L 64.59 25.67 C 65.03 25.67 65.44 25.93 65.61 26.34 C 65.79 26.75 65.7 27.22 65.39 27.54 Z M 16.06 62.04 C 17.64 62.93 19.63 63.67 21.97 64.26 L 22.52 62.11 C 20.4 61.59 18.55 60.9 17.17 60.12 Z M 21.97 46.58 L 22.52 44.43 C 20.4 43.9 18.55 43.21 17.17 42.43 L 16.06 44.35 C 17.64 45.24 19.63 45.99 21.97 46.58 Z M 16.06 26.67 L 17.17 24.75 C 18.55 25.53 20.4 26.22 22.52 26.75 L 21.97 28.89 C 19.63 28.31 17.64 27.56 16.06 26.67 Z" fill="#ffffff" stroke="none" pointer-events="all"/></g></svg>