<?xml version="1.0" encoding="UTF-8"?>
<!DOCTYPE svg PUBLIC "-//W3C//DTD SVG 1.1//EN" "http://www.w3.org/Graphics/SVG/1.1/DTD/svg11.dtd">
<svg xmlns="http://www.w3.org/2000/svg" xmlns:xlink="http://www.w3.org/1999/xlink" version="1.1" width="79px" height="79px" viewBox="-0.5 -0.5 79 79" style="background-color: rgb(255, 255, 255);"><defs><linearGradient x1="0%" y1="100%" x2="0%" y2="0%" id="mx-gradient-4d72f3-1-3334b9-1-s-0"><stop offset="0%" style="stop-color: rgb(51, 52, 185); stop-opacity: 1;"/><stop offset="100%" style="stop-color: rgb(77, 114, 243); stop-opacity: 1;"/></linearGradient><style type="text/css">@import url(https://fonts.googleapis.com/css?family=Gloria+Hallelujah);&#xa;@import url(https://fonts.googleapis.com/css?family=Architects+Daughter);&#xa;</style></defs><g><path d="M 0 0 L 78 0 L 78 78 L 0 78 Z" fill="url(#mx-gradient-4d72f3-1-3334b9-1-s-0)" stroke="none" pointer-events="all"/><path d="M 68.6 26.86 L 65.19 27.66 L 67.86 30.65 C 67.66 31.04 67.39 31.36 67.06 31.61 C 66.72 31.86 66.35 32.01 65.93 32.07 L 63.86 28.49 L 61.79 32.07 C 61.37 32.01 61 31.86 60.66 31.61 C 60.32 31.36 60.06 31.04 59.86 30.65 L 62.53 27.66 L 59.12 26.86 C 59.08 26.66 59.06 26.5 59.06 26.38 C 59.06 25.71 59.32 25.12 59.83 24.61 L 63.03 26.18 L 62.61 22.36 C 63.01 22.18 63.42 22.09 63.86 22.09 C 64.31 22.09 64.73 22.18 65.1 22.36 L 64.69 26.18 L 67.88 24.61 C 68.4 25.12 68.66 25.71 68.66 26.38 C 68.66 26.5 68.64 26.66 68.6 26.86 Z M 52.63 51.46 C 54.22 51.46 55.99 51.14 57.92 50.5 L 57.92 52.54 C 56.13 53.35 54.33 53.75 52.5 53.75 C 49.15 53.75 46.61 52.79 44.87 50.87 C 43.14 48.95 42.27 46.12 42.27 42.39 C 42.27 38.69 43.15 35.87 44.91 33.92 C 46.68 31.97 49.24 30.99 52.59 30.99 C 54.38 30.99 56.07 31.34 57.66 32.03 L 57.66 34.07 C 56.07 33.55 54.43 33.29 52.72 33.29 C 49.97 33.29 47.99 33.99 46.76 35.39 C 45.53 36.79 44.91 39.04 44.91 42.13 L 44.91 42.65 C 44.91 45.66 45.54 47.88 46.78 49.31 C 48.02 50.74 49.97 51.46 52.63 51.46 Z M 29.44 9.92 C 40.83 9.92 48.48 13.2 48.48 16.26 C 48.48 19.32 40.83 22.61 29.44 22.61 C 18.18 22.61 11.46 19.38 11.46 16.26 C 11.46 13.14 18.18 9.92 29.44 9.92 Z M 48.48 61.74 C 48.48 64.8 40.83 68.08 29.44 68.08 C 20.6 68.08 11.46 65.71 11.46 61.74 L 11.46 51.04 C 14.6 53.74 21.06 55.39 29.44 55.39 C 33.77 55.39 37.88 54.93 41.33 54.06 L 40.81 52.01 C 37.53 52.84 33.6 53.28 29.44 53.28 C 20.6 53.28 11.46 50.92 11.46 46.97 L 11.46 36.14 C 14.63 38.88 21.16 40.59 29.44 40.59 C 33.76 40.59 37.88 40.12 41.33 39.24 L 40.81 37.19 C 37.52 38.03 33.59 38.47 29.44 38.47 C 18.18 38.47 11.46 35.24 11.46 32.13 L 11.46 20.28 C 14.63 23.01 21.16 24.72 29.44 24.72 C 37.12 24.72 44.86 23.17 48.48 20.17 L 48.48 23.66 L 50.59 23.66 L 50.59 16.26 C 50.59 10.71 39.95 7.8 29.44 7.8 C 17.61 7.8 9.34 11.28 9.34 16.26 L 9.34 61.74 C 9.34 66.8 17.42 70.2 29.44 70.2 C 39.95 70.2 50.59 67.29 50.59 61.74 L 50.59 59.62 L 48.48 59.62 Z" fill="#ffffff" stroke="none" pointer-events="all"/></g></svg>