<?xml version="1.0" encoding="UTF-8"?>
<!DOCTYPE svg PUBLIC "-//W3C//DTD SVG 1.1//EN" "http://www.w3.org/Graphics/SVG/1.1/DTD/svg11.dtd">
<svg xmlns="http://www.w3.org/2000/svg" xmlns:xlink="http://www.w3.org/1999/xlink" version="1.1" width="71px" height="71px" viewBox="-0.5 -0.5 71 71"><defs/><g><rect x="0" y="0" width="70" height="70" fill="none" stroke="none" pointer-events="all"/><path d="M 0 35 C 0 15.74 15.76 0 35 0 C 54.36 0 70 15.74 70 35 C 70 54.34 54.36 70 35 70 C 15.76 70 0 54.34 0 35 Z M 5.65 33.32 L 5.65 36.76 L 15.74 36.76 L 15.74 40.08 L 20.33 35.02 L 15.74 29.92 L 15.74 33.32 L 5.65 33.32 L 5.65 33.32 Z M 35.01 47.98 C 41.86 47.98 47.41 42.49 47.41 35.57 C 47.41 28.73 41.86 23.14 35.01 23.14 C 28.16 23.14 22.58 28.73 22.58 35.57 C 22.58 42.49 28.16 47.98 35.01 47.98 Z M 35.01 25.92 C 29.63 25.92 25.28 30.27 25.28 35.57 C 25.28 40.94 29.63 45.3 35.01 45.3 C 40.37 45.3 44.75 40.94 44.75 35.57 C 44.75 30.27 40.37 25.92 35.01 25.92 Z M 54.35 19.76 C 55.98 22.44 55.98 22.44 55.98 22.44 C 47.43 27.23 47.43 27.23 47.43 27.23 C 48.22 28.02 48.7 29.01 49.21 29.92 C 57.64 25.25 57.64 25.25 57.64 25.25 C 59.23 27.94 59.23 27.94 59.23 27.94 C 60.97 21.45 60.97 21.45 60.97 21.45 L 54.35 19.76 Z M 64.36 35.1 C 59.76 29.92 59.76 29.92 59.76 29.92 C 59.76 33.32 59.76 33.32 59.76 33.32 C 50.82 33.32 50.82 33.32 50.82 33.32 C 50.97 33.87 50.97 34.42 50.97 35.02 C 50.97 35.65 50.97 36.21 50.82 36.76 C 59.76 36.76 59.76 36.76 59.76 36.76 C 59.76 40.08 59.76 40.08 59.76 40.08 L 64.36 35.1 Z M 60.97 48.54 C 59.23 42.13 59.23 42.13 59.23 42.13 C 57.64 44.83 57.64 44.83 57.64 44.83 C 49.21 40.07 49.21 40.07 49.21 40.07 C 48.7 41.06 48.22 41.97 47.43 42.85 C 55.98 47.56 55.98 47.56 55.98 47.56 C 54.35 50.24 54.35 50.24 54.35 50.24 L 60.97 48.54 Z" fill="#999999" stroke="none" pointer-events="all"/><ellipse cx="35" cy="35" rx="34.3" ry="34.3" fill="#ffffff" stroke="none" pointer-events="all"/><rect x="0" y="0" width="70" height="70" fill="none" stroke="none" pointer-events="all"/><path d="M 0 35 C 0 15.74 15.76 0 35 0 C 54.36 0 70 15.74 70 35 C 70 54.34 54.36 70 35 70 C 15.76 70 0 54.34 0 35 Z M 5.65 33.32 L 5.65 36.76 L 15.74 36.76 L 15.74 40.08 L 20.33 35.02 L 15.74 29.92 L 15.74 33.32 L 5.65 33.32 L 5.65 33.32 Z M 35.01 47.98 C 41.86 47.98 47.41 42.49 47.41 35.57 C 47.41 28.73 41.86 23.14 35.01 23.14 C 28.16 23.14 22.58 28.73 22.58 35.57 C 22.58 42.49 28.16 47.98 35.01 47.98 Z M 35.01 25.92 C 29.63 25.92 25.28 30.27 25.28 35.57 C 25.28 40.94 29.63 45.3 35.01 45.3 C 40.37 45.3 44.75 40.94 44.75 35.57 C 44.75 30.27 40.37 25.92 35.01 25.92 Z M 54.35 19.76 C 55.98 22.44 55.98 22.44 55.98 22.44 C 47.43 27.23 47.43 27.23 47.43 27.23 C 48.22 28.02 48.7 29.01 49.21 29.92 C 57.64 25.25 57.64 25.25 57.64 25.25 C 59.23 27.94 59.23 27.94 59.23 27.94 C 60.97 21.45 60.97 21.45 60.97 21.45 L 54.35 19.76 Z M 64.36 35.1 C 59.76 29.92 59.76 29.92 59.76 29.92 C 59.76 33.32 59.76 33.32 59.76 33.32 C 50.82 33.32 50.82 33.32 50.82 33.32 C 50.97 33.87 50.97 34.42 50.97 35.02 C 50.97 35.65 50.97 36.21 50.82 36.76 C 59.76 36.76 59.76 36.76 59.76 36.76 C 59.76 40.08 59.76 40.08 59.76 40.08 L 64.36 35.1 Z M 60.97 48.54 C 59.23 42.13 59.23 42.13 59.23 42.13 C 57.64 44.83 57.64 44.83 57.64 44.83 C 49.21 40.07 49.21 40.07 49.21 40.07 C 48.7 41.06 48.22 41.97 47.43 42.85 C 55.98 47.56 55.98 47.56 55.98 47.56 C 54.35 50.24 54.35 50.24 54.35 50.24 L 60.97 48.54 Z" fill="#999999" stroke="none" pointer-events="all"/></g></svg>