<?xml version="1.0" encoding="UTF-8"?>
<!DOCTYPE svg PUBLIC "-//W3C//DTD SVG 1.1//EN" "http://www.w3.org/Graphics/SVG/1.1/DTD/svg11.dtd">
<svg xmlns="http://www.w3.org/2000/svg" xmlns:xlink="http://www.w3.org/1999/xlink" version="1.1" width="81px" height="81px" viewBox="-0.5 -0.5 81 81"><defs/><g><rect x="0" y="0" width="80" height="80" fill="none" stroke="none" pointer-events="all"/><path d="M 0 40 C 0 17.99 18.01 0 39.99 0 C 62.13 0 80 17.99 80 40 C 80 62.1 62.13 80 39.99 80 C 18.01 80 0 62.1 0 40 Z M 6.46 38.08 L 6.46 42.01 L 17.99 42.01 L 17.99 45.81 L 23.24 40.02 L 17.99 34.19 L 17.99 38.08 L 6.46 38.08 L 6.46 38.08 Z M 40.02 54.84 C 47.84 54.84 54.18 48.56 54.18 40.65 C 54.18 32.83 47.84 26.45 40.02 26.45 C 32.19 26.45 25.81 32.83 25.81 40.65 C 25.81 48.56 32.19 54.84 40.02 54.84 Z M 40.02 29.62 C 33.87 29.62 28.89 34.59 28.89 40.65 C 28.89 46.79 33.87 51.77 40.02 51.77 C 46.13 51.77 51.15 46.79 51.15 40.65 C 51.15 34.59 46.13 29.62 40.02 29.62 Z M 62.12 22.58 C 63.97 25.65 63.97 25.65 63.97 25.65 C 54.2 31.12 54.2 31.12 54.2 31.12 C 55.11 32.02 55.65 33.15 56.24 34.19 C 65.87 28.86 65.87 28.86 65.87 28.86 C 67.69 31.93 67.69 31.93 67.69 31.93 C 69.68 24.52 69.68 24.52 69.68 24.52 L 62.12 22.58 Z M 73.55 40.11 C 68.3 34.19 68.3 34.19 68.3 34.19 C 68.3 38.08 68.3 38.08 68.3 38.08 C 58.08 38.08 58.08 38.08 58.08 38.08 C 58.26 38.71 58.26 39.34 58.26 40.02 C 58.26 40.74 58.26 41.38 58.08 42.01 C 68.3 42.01 68.3 42.01 68.3 42.01 C 68.3 45.81 68.3 45.81 68.3 45.81 L 73.55 40.11 Z M 69.68 55.48 C 67.69 48.15 67.69 48.15 67.69 48.15 C 65.87 51.23 65.87 51.23 65.87 51.23 C 56.24 45.8 56.24 45.8 56.24 45.8 C 55.65 46.93 55.11 47.97 54.2 48.97 C 63.97 54.35 63.97 54.35 63.97 54.35 C 62.12 57.42 62.12 57.42 62.12 57.42 L 69.68 55.48 Z" fill="#999999" stroke="none" pointer-events="all"/><ellipse cx="40" cy="40" rx="39.2" ry="39.2" fill="#ffffff" stroke="none" pointer-events="all"/><rect x="0" y="0" width="80" height="80" fill="none" stroke="none" pointer-events="all"/><path d="M 0 40 C 0 17.99 18.01 0 39.99 0 C 62.13 0 80 17.99 80 40 C 80 62.1 62.13 80 39.99 80 C 18.01 80 0 62.1 0 40 Z M 6.46 38.08 L 6.46 42.01 L 17.99 42.01 L 17.99 45.81 L 23.24 40.02 L 17.99 34.19 L 17.99 38.08 L 6.46 38.08 L 6.46 38.08 Z M 40.02 54.84 C 47.84 54.84 54.18 48.56 54.18 40.65 C 54.18 32.83 47.84 26.45 40.02 26.45 C 32.19 26.45 25.81 32.83 25.81 40.65 C 25.81 48.56 32.19 54.84 40.02 54.84 Z M 40.02 29.62 C 33.87 29.62 28.89 34.59 28.89 40.65 C 28.89 46.79 33.87 51.77 40.02 51.77 C 46.13 51.77 51.15 46.79 51.15 40.65 C 51.15 34.59 46.13 29.62 40.02 29.62 Z M 62.12 22.58 C 63.97 25.65 63.97 25.65 63.97 25.65 C 54.2 31.12 54.2 31.12 54.2 31.12 C 55.11 32.02 55.65 33.15 56.24 34.19 C 65.87 28.86 65.87 28.86 65.87 28.86 C 67.69 31.93 67.69 31.93 67.69 31.93 C 69.68 24.52 69.68 24.52 69.68 24.52 L 62.12 22.58 Z M 73.55 40.11 C 68.3 34.19 68.3 34.19 68.3 34.19 C 68.3 38.08 68.3 38.08 68.3 38.08 C 58.08 38.08 58.08 38.08 58.08 38.08 C 58.26 38.71 58.26 39.34 58.26 40.02 C 58.26 40.74 58.26 41.38 58.08 42.01 C 68.3 42.01 68.3 42.01 68.3 42.01 C 68.3 45.81 68.3 45.81 68.3 45.81 L 73.55 40.11 Z M 69.68 55.48 C 67.69 48.15 67.69 48.15 67.69 48.15 C 65.87 51.23 65.87 51.23 65.87 51.23 C 56.24 45.8 56.24 45.8 56.24 45.8 C 55.65 46.93 55.11 47.97 54.2 48.97 C 63.97 54.35 63.97 54.35 63.97 54.35 C 62.12 57.42 62.12 57.42 62.12 57.42 L 69.68 55.48 Z" fill="#999999" stroke="none" pointer-events="all"/></g></svg>