<?xml version="1.0" encoding="UTF-8"?>
<svg width="1200pt" height="1200pt" version="1.1" viewBox="0 0 1200 1200" xmlns="http://www.w3.org/2000/svg">
 <path d="m862.11 195.91h65.527v65.527h-65.527z" fill="#676767"/>
 <path d="m629.79 591.15c-5.0039-3.3906-11.973-6.5195-20.906-9.3789v43.152c18.938-0.53516 28.41-7.0586 28.41-19.566 0-6.0742-2.5-10.812-7.5039-14.207z" fill="#676767"/>
 <path d="m840.27 272.36v-141.98h-353.86c-57.812 0-104.84 47.031-104.84 104.84v484.91h458.7zm-382.25-54.605h196.59c6.0312 0 10.922 4.8906 10.922 10.922s-4.8906 10.922-10.922 10.922h-196.59c-6.0312 0-10.922-4.8906-10.922-10.922 0-6.0352 4.8906-10.922 10.922-10.922zm0 65.527h305.8c6.0312 0 10.922 4.8906 10.922 10.922s-4.8906 10.922-10.922 10.922h-305.8c-6.0312 0-10.922-4.8906-10.922-10.922s4.8906-10.922 10.922-10.922zm0 65.527h305.8c6.0312 0 10.922 4.8906 10.922 10.922s-4.8906 10.922-10.922 10.922h-305.8c-6.0312 0-10.922-4.8906-10.922-10.922s4.8906-10.922 10.922-10.922zm21.84 241.68h-43.688v-43.684h43.688zm191.61 36.312c-3.4844 6.9688-8.2227 12.688-14.207 17.152-5.9922 4.4688-12.957 7.8164-20.906 10.051-7.9531 2.2344-16.309 3.5234-25.059 3.8867v29.484h-16.078v-29.75c-12.508-0.89844-24.703-3.4414-36.582-7.6406-11.883-4.1992-22.645-9.6914-32.293-16.484l16.352-31.891c1.4258 1.4297 3.8867 3.3086 7.3711 5.625 3.4844 2.3242 7.6797 4.6055 12.598 6.8359 4.9141 2.2383 10.359 4.3359 16.352 6.3008 5.9844 1.9688 12.191 3.3086 18.625 4.0234v-46.098c-1.6094-0.35547-3.2148-0.75781-4.8242-1.2031-1.6094-0.44141-3.2148-0.9375-4.8242-1.4727-9.1133-2.5-17.02-5.2227-23.723-8.1758-6.6992-2.9492-12.285-6.4297-16.75-10.449-4.4688-4.0195-7.8164-8.6641-10.047-13.938-2.2383-5.2695-3.3516-11.57-3.3516-18.898 0-8.9336 1.5625-16.926 4.6914-23.984 3.125-7.0586 7.4102-13.086 12.863-18.09 5.4492-5 11.93-8.9336 19.434-11.793 7.5039-2.8555 15.547-4.6445 24.121-5.3594l-0.007813-27.352h16.078v27.07c11.793 0.89453 22.648 3.3086 32.566 7.2344 9.9141 3.9336 18.629 8.4883 26.129 13.668l-16.352 30.02c-1.0703-1.2461-3.0781-2.7695-6.0273-4.5547-2.9492-1.7852-6.4336-3.6172-10.457-5.4922-4.0195-1.8789-8.4414-3.5703-13.266-5.0938-4.8242-1.5156-9.8281-2.5469-15.008-3.082v46.367l6.6992 1.6094c9.2891 2.5039 17.73 5.1836 25.328 8.0391 7.5898 2.8633 14.023 6.4336 19.297 10.723 5.2695 4.2852 9.332 9.4258 12.195 15.41 2.8555 5.9883 4.2852 13.355 4.2852 22.113 0.003906 9.8242-1.7344 18.223-5.2227 25.188zm114.2-36.312h-43.688v-43.684h43.688z" fill="#676767"/>
 <path d="m572.17 518.25c0 6.0781 2.0977 10.68 6.3008 13.801 4.1953 3.1289 10.586 5.9453 19.164 8.4453v-43.422c-16.98 1.0703-25.465 8.1328-25.465 21.176z" fill="#676767"/>
 <path d="m785.66 916.72h273.03v-65.527h-294.88c-6.0312 0-10.918-4.8906-10.918-10.922s4.8906-10.922 10.918-10.922h294.88v-485.46c0-33.422-27.191-60.613-60.613-60.613h-48.602l0.003906 338.56c0 6.0312-4.8906 10.918-10.922 10.918s-10.918-4.8906-10.918-10.918l-0.003906-338.56h-65.527v447.78c0 6.0312-4.8906 10.922-10.922 10.922h-480.54c-6.0312 0-10.922-4.8906-10.922-10.922v-447.78h-157.82c-33.422 0-60.613 27.191-60.613 60.613v485.45h273.03c6.0312 0 10.922 4.8906 10.922 10.922s-4.8906 10.922-10.922 10.922h-273.03v65.527h644.36zm-131.06-98.297h43.688v43.684h-43.688zm-87.367 0h43.684v43.684h-43.684zm-87.375 0h43.684v43.684h-43.684z" fill="#676767"/>
 <path d="m1069.6 938.56h-278.11l-40.445 60.668c-2.0234 3.0352-5.4336 4.8594-9.0859 4.8594h-283.95c-3.6523 0-7.0625-1.8242-9.0859-4.8594l-40.445-60.668h-310.88v30.055l231.96 101h536.91l235.89-98.844v-32.211z" fill="#676767"/>
 <path d="m736.13 982.25 29.125-43.684h-330.52l29.125 43.684z" fill="#676767"/>
</svg>
