<?xml version="1.0" encoding="UTF-8"?>
<svg width="1200pt" height="1200pt" version="1.1" viewBox="0 0 1200 1200" xmlns="http://www.w3.org/2000/svg">
 <path d="m1084.1 895.31c0-4.5 2.8125-11.438 5.625-18.188 4.875-12.188 10.312-25.875 6.9375-40.875-3.375-15.562-15-26.25-24.375-34.875-5.25-4.6875-10.5-9.5625-12.375-13.312-1.875-3.9375-2.25-11.438-2.8125-18.562-0.75-13.125-1.6875-28.125-11.438-40.312-9.75-12.375-24.188-16.688-36.75-20.625-6.75-2.0625-13.875-4.125-17.25-6.75-3.1875-2.8125-6.75-9.1875-10.312-15.375-6.1875-10.875-13.688-24.75-27.938-31.5-14.062-6.9375-28.688-4.6875-41.812-2.625-7.125 1.125-14.438 2.25-18.75 1.3125-3.9375-0.9375-9.9375-5.0625-15.562-9-6-4.125-12.938-8.8125-20.625-12v-99.938h44.812c10.5 0 18.75-8.4375 18.75-18.75v-126.56c0-2.625-0.5625-5.25-1.6875-7.6875l-115.69-255.38c-3-6.75-9.75-11.062-17.062-11.062h-89.25v-57c0-10.312-8.4375-18.75-18.75-18.75h-333c-10.312 0-18.75 8.4375-18.75 18.75v57h-89.438c-7.3125 0-13.875 4.3125-17.062 11.062l-115.69 255.38c-1.125 2.4375-1.6875 5.0625-1.6875 7.6875v126.56c0 10.312 8.4375 18.75 18.75 18.75h45v362.62c0 10.312 8.4375 18.75 18.75 18.75h401.06c-4.6875 12-10.125 25.688-6.75 40.5 3.375 15.562 15 26.25 24.375 34.688 5.25 4.875 10.5 9.75 12.375 13.5 1.875 3.9375 2.25 11.438 2.8125 18.562 0.75 13.125 1.875 27.938 11.438 40.312 9.75 12.375 24.188 16.688 36.75 20.438 6.75 2.0625 13.875 4.3125 17.25 6.9375 3.1875 2.8125 6.9375 9.1875 10.312 15.375 6.1875 10.875 13.875 24.562 27.938 31.5s28.875 4.5 41.812 2.625c7.125-1.125 14.438-2.4375 18.75-1.3125 3.9375 0.9375 9.9375 5.0625 15.562 9 10.5 7.3125 23.438 16.312 39.562 16.312 15.938 0 28.875-9 39.375-16.312 5.625-3.9375 11.625-8.0625 15.562-9 4.3125-0.9375 11.625 0.1875 18.75 1.3125 13.125 1.875 27.75 4.3125 41.812-2.625 14.25-6.9375 21.75-20.625 27.938-31.5 3.5625-6.1875 7.125-12.562 10.5-15.375 3.1875-2.625 10.312-4.875 17.062-6.9375 12.562-3.75 27-8.0625 36.75-20.438s10.688-27.188 11.438-40.312c0.5625-7.125 0.9375-14.625 2.8125-18.562 1.875-3.75 7.125-8.625 12.375-13.5 9.375-8.4375 21-19.125 24.375-34.688 3.375-15-2.0625-28.688-6.9375-40.875-2.8125-6.75-5.625-13.688-5.625-18.375zm-341.25 113.81c-4.6875 0-9.5625-1.6875-13.312-5.4375-7.3125-7.3125-7.3125-19.125 0-26.438l189.94-190.12c7.3125-7.3125 19.312-7.3125 26.625 0s7.3125 19.125 0 26.438l-189.94 190.12c-3.75 3.75-8.4375 5.4375-13.312 5.4375zm-24.375-233.25c23.25-23.25 63.75-23.25 87 0 24 24 24 63.188 0 87.188-11.625 11.625-27 18-43.5 18s-31.875-6.375-43.5-18c-24-24-24-63.188 0-87.188zm151.69 151.88c11.625-11.625 27-18 43.5-18s31.875 6.375 43.5 18c24.188 24 24.188 63.188 0 87.188-11.625 11.625-27 18-43.5 18s-31.875-6.375-43.5-18c-24-24-24-63.188 0-87.188zm-506.62-852.75h295.5v113.81h-295.5zm239.81 726.38c-9.375 8.625-21 19.312-24.375 34.875-3.375 14.812 2.0625 28.312 6.75 40.312h-60.938v-245.06c0-10.312-8.4375-18.75-18.75-18.75h-184.5c-10.312 0-18.75 8.4375-18.75 18.75v245.06h-99.375v-343.88h615.75v99.938c-7.875 3.1875-14.812 7.875-20.812 12-5.625 3.9375-11.625 8.0625-15.562 9-4.3125 0.9375-11.625-0.1875-18.75-1.3125-12.938-2.0625-27.75-4.3125-41.812 2.625-14.25 6.75-21.75 20.625-27.938 31.5-3.5625 6.1875-7.125 12.562-10.312 15.375-3.375 2.625-10.5 4.875-17.25 6.75-12.562 3.9375-27 8.25-36.75 20.625-9.75 12.188-10.688 27.188-11.438 40.312-0.5625 7.125-0.9375 14.625-2.8125 18.562-1.875 3.75-7.125 8.625-12.375 13.312z" fill="#676767"/>
 <path d="m779.06 836.44c9.375-9.375 9.375-24.562 0-34.125-4.5-4.5-10.688-6.9375-17.062-6.9375s-12.562 2.4375-17.062 6.9375c-9.375 9.5625-9.375 24.75 0 34.125 9.1875 9.1875 24.938 9.1875 34.125 0z" fill="#676767"/>
 <path d="m930.75 988.5c4.6875-4.875 7.125-10.875 7.125-17.25 0-6-2.4375-12.375-7.125-17.062-4.5-4.5-10.688-6.9375-17.062-6.9375s-12.375 2.4375-17.062 6.9375c-9.375 9.5625-9.375 24.75 0 34.125 9.1875 9.1875 24.938 9.1875 34.125 0.1875z" fill="#676767"/>
</svg>
