<?xml version="1.0" encoding="UTF-8"?>
<svg width="1200pt" height="1200pt" version="1.1" viewBox="0 0 1200 1200" xmlns="http://www.w3.org/2000/svg">
 <path d="m353.76 994.31-27.938 73.453c-0.84375 4.6875-3.7031 8.8594-8.1562 11.156-2.2969 1.2188-4.7812 1.7812-7.3125 1.7812h-0.375c-2.7656 0-5.3906-0.70312-7.9219-2.1562l-78-45c-7.5469-4.3125-10.078-14.062-5.7656-21.469 4.3125-7.5469 14.062-10.078 21.469-5.7656l37.219 21.469c-12.844-36.609-19.547-75.375-19.547-114.38 0-51.609 11.156-101.3 33.234-147.47 3.7031-7.9219 13.219-11.156 21-7.4531 7.9219 3.7031 11.156 13.219 7.4531 21-20.062 42-30.141 87-30.141 133.92 0 37.688 6.8438 75.141 20.062 110.06l15.375-40.312c3.1406-8.1562 12.234-12.234 20.391-9.1406 8.1562 3.1406 12.234 12.234 9.1406 20.391zm-32.156-267.84c0.375 0.9375 0.84375 1.7812 1.4531 2.7656 0.60938 0.84375 1.2188 1.6875 1.9219 2.3906s1.5469 1.3125 2.3906 1.9219 1.7812 1.0781 2.7656 1.4531c0.9375 0.375 1.9219 0.70312 3 0.9375 0.9375 0.23438 2.0625 0.375 3.1406 0.375 4.2188 0 8.2969-1.6875 11.156-4.5469 0.70312-0.70312 1.3125-1.5469 1.9219-2.3906s1.0781-1.7812 1.4531-2.7656c0.375-0.9375 0.70312-1.9219 0.9375-3s0.375-2.0625 0.375-3.1406c0-4.2188-1.6875-8.2969-4.5469-11.156-3.7031-3.7031-9.1406-5.2969-14.297-4.3125-0.9375 0.23438-2.0625 0.46875-3 0.9375-0.9375 0.375-1.9219 0.84375-2.7656 1.4531s-1.6875 1.2188-2.3906 1.9219-1.4531 1.5469-1.9219 2.3906c-0.60938 0.84375-1.0781 1.7812-1.4531 2.7656-0.375 0.9375-0.70312 1.9219-0.84375 3-0.23438 0.9375-0.375 2.0625-0.375 3.1406s0 2.0625 0.375 3.1406c0.23438 0.9375 0.46875 2.0625 0.84375 3zm279.24-156.61c-89.531 0-174.37 34.312-238.69 96.469-6.2344 6-6.4688 16.078-0.375 22.312 6 6.2344 16.078 6.4688 22.312 0.375 58.453-56.531 135.47-87.703 216.84-87.703 171.94 0 311.86 139.92 311.86 311.86 0 50.297-12.234 100.22-35.297 144.37-4.0781 7.6875-1.0781 17.297 6.6094 21.234 2.2969 1.2188 4.7812 1.7812 7.3125 1.7812 5.625 0 11.156-3.1406 14.062-8.3906 25.453-48.609 38.859-103.55 38.859-159 0-189.37-154.08-343.45-343.45-343.45zm-9 510.84c-14.062 0-25.453 11.391-25.453 25.453s11.391 25.453 25.453 25.453 25.453-11.391 25.453-25.453-11.391-25.453-25.453-25.453zm128.02 0c-14.062 0-25.453 11.391-25.453 25.453s11.391 25.453 25.453 25.453 25.453-11.391 25.453-25.453-11.391-25.453-25.453-25.453zm59.203-273.71h-277.45l-4.6875-16.547c-5.7656-20.297-24.469-34.312-45.609-34.312h-38.391c-8.3906 0-15.234 6.8438-15.234 15.234s6.8438 15.234 15.234 15.234h38.391c7.5469 0 14.156 5.0625 16.219 12.234l7.9219 27.609v0.23438c0 0.14062 0 0.375 0.14062 0.46875 19.219 67.078 42.703 149.53 49.078 171.61l-4.3125 8.7656c-6.375 12.703-5.7656 27.469 1.6875 39.609 7.4531 12.141 20.391 19.312 34.688 19.312h214.08c8.3906 0 15.234-6.8438 15.234-15.234 0-8.3906-6.8438-15.234-15.234-15.234h-214.08c-5.1562 0-7.7812-3.375-8.625-4.7812-0.84375-1.4531-2.7656-5.2969-0.46875-9.8438l2.8594-5.625h196.08c21 0 39.844-14.156 45.609-34.312l32.531-113.77c4.0781-14.391 1.3125-29.531-7.6875-41.531s-22.781-18.844-37.781-18.844zm315.47-518.16-130.92-202.08c-7.4531-11.531-20.062-18.375-33.703-18.375h-662.29c-13.781 0-26.391 6.9375-33.844 18.609l-128.86 202.08c-14.391 22.547-22.078 48.703-22.078 75.609v11.156c0 24.609 10.078 48.703 27.844 66.234 17.156 17.062 39.469 26.391 63 26.391h0.70312c24-0.23438 46.547-9.6094 63.469-26.531 17.156-17.156 26.625-39.938 26.625-64.219v-58.688c0-7.6875 5.3906-13.922 12.609-15.469 1.0781-0.23438 2.0625-0.375 3.1406-0.375 1.0781 0 2.1562 0 3.1406 0.375 7.2188 1.4531 12.609 7.7812 12.609 15.469v58.688c0 50.062 40.688 90.844 90.844 90.844 24.234 0 47.062-9.4688 64.219-26.625s26.625-39.938 26.625-64.219v-58.688c0-8.7656 7.0781-15.703 15.703-15.703s15.703 7.0781 15.703 15.703v58.688c0 50.062 40.688 90.844 90.844 90.844 24.234 0 47.062-9.4688 64.219-26.625s26.625-39.938 26.625-64.219v-58.688c0-8.7656 7.0781-15.703 15.703-15.703s15.703 7.0781 15.703 15.703v58.688c0 50.062 40.688 90.844 90.844 90.844 24.234 0 47.062-9.4688 64.219-26.625s26.625-39.938 26.625-64.219v-58.688c0-7.6875 5.3906-13.922 12.609-15.469 1.0781-0.23438 2.0625-0.375 3.1406-0.375 1.0781 0 2.1562 0 3.1406 0.375 7.2188 1.4531 12.609 7.7812 12.609 15.469v56.766c0 24.609 10.078 48.703 27.844 66.234 17.156 17.062 39.609 26.391 63 26.391h0.60938c24-0.14062 46.688-9.6094 63.609-26.531 17.156-17.156 26.625-39.938 26.625-64.219v-12.469c0-27.234-7.7812-53.625-22.547-76.453zm-174.37 148.08c-5.5312 9.8438-12.375 19.078-20.531 27.234-23.062 23.062-53.766 35.766-86.531 35.766-45.609 0-85.453-25.219-106.55-62.297-5.3906 9.6094-12.141 18.469-20.156 26.531-23.062 23.062-53.766 35.766-86.531 35.766-45.609 0-85.547-25.078-106.55-62.297-5.3906 9.6094-12.141 18.469-20.156 26.531-23.062 23.062-53.766 35.766-86.531 35.766-45.609 0-85.547-25.219-106.55-62.297-5.3906 9.6094-12.141 18.469-20.156 26.531-19.312 19.312-44.062 31.312-70.688 34.781v314.86c0 22.688 18.234 41.156 40.781 41.625 5.5312-35.766 16.078-70.312 31.781-103.31 5.5312-11.625 15.609-20.297 27.375-24.375-0.375-2.5312-0.60938-5.0625-0.60938-7.4531 0-3.1406 0.375-6.2344 0.9375-9.2344 0.60938-3.1406 1.5469-6.1406 2.7656-8.8594 1.0781-2.7656 2.5312-5.3906 4.2188-7.9219s3.6094-4.9219 5.8594-7.2188c2.2969-2.2969 4.7812-4.3125 7.5469-6.2344 2.3906-1.5469 5.0625-3 7.6875-4.0781h0.23438l0.23438-0.23438c2.5312-0.9375 5.0625-1.7812 7.6875-2.3906 0.84375-11.625 5.7656-22.312 14.297-30.469 70.312-67.922 162.84-105.38 260.63-105.38 187.08 0 342.61 137.76 370.45 317.06 21.844-1.3125 39.234-19.453 39.234-41.625v-314.86c-26.062-3.4688-50.156-15.375-69.469-34.547-8.2969-8.1562-15.234-17.531-20.859-27.469z" fill="#676767"/>
</svg>
