<?xml version="1.0" encoding="UTF-8"?>
<svg width="1200pt" height="1200pt" version="1.1" viewBox="0 0 1200 1200" xmlns="http://www.w3.org/2000/svg">
 <g fill-rule="evenodd">
  <path d="m765.32 623.23-0.074219 283.79h-330.55v-187.44c-0.019531-13.035-10.598-23.617-23.625-23.617-13.027 0-23.625 10.582-23.609 23.617v211.05c0 13.051 10.562 23.617 23.609 23.617h377.86c13.047 0 23.609-10.566 23.625-23.617v-307.01c-0.015626-13.035-10.598-23.617-23.625-23.617-12.902 0-23.41 10.367-23.605 23.227z"/>
  <path d="m529.15 292.99c0 13.035 10.582 23.617 23.617 23.617h94.465c13.035 0 23.617-10.582 23.617-23.617h94.461v192.64c0 13.035 10.582 23.617 23.617 23.617 13.035 0 23.617-10.582 23.617-23.617v-216.25c0-13.047-10.57-23.613-23.617-23.613h-377.86c-13.051 0-23.617 10.566-23.617 23.613v307.01c0 13.035 10.578 23.613 23.617 23.613 13.035 0 23.613-10.578 23.613-23.613l-0.15234-283.39z"/>
  <path d="m864.67 529.62h-193.63c-13.035 0-23.617 10.578-23.617 23.613 0 13.039 10.582 23.617 23.617 23.617h193.63v5.9023c0 8.5859 4.6641 16.496 12.16 20.652 7.5117 4.168 16.688 3.9219 23.973-0.625l47.23-29.52c6.9062-4.3086 11.102-11.879 11.102-20.027 0-8.1445-4.1953-15.715-11.102-20.023l-47.23-29.523c-7.2852-4.543-16.461-4.793-23.973-0.625-7.4961 4.1562-12.16 12.07-12.16 20.652z"/>
  <path d="m336.28 670.38h193.63c13.035 0 23.617-10.578 23.617-23.613 0-13.039-10.582-23.617-23.617-23.617h-193.63v-5.9062c0-8.582-4.6641-16.496-12.16-20.652-7.5117-4.168-16.688-3.918-23.973 0.62891l-47.23 29.52c-6.9062 4.3086-11.102 11.879-11.102 20.027 0 8.1445 4.1953 15.715 11.102 20.023l47.23 29.52c7.2852 4.5469 16.461 4.7969 23.973 0.62891 7.4961-4.1562 12.16-12.07 12.16-20.652z"/>
 </g>
</svg>
