<?xml version="1.0" encoding="UTF-8"?>
<!DOCTYPE svg PUBLIC "-//W3C//DTD SVG 1.1//EN" "http://www.w3.org/Graphics/SVG/1.1/DTD/svg11.dtd">
<svg xmlns="http://www.w3.org/2000/svg" xmlns:xlink="http://www.w3.org/1999/xlink" version="1.1" width="79px" height="79px" viewBox="-0.5 -0.5 79 79" style="background-color: rgb(255, 255, 255);"><defs><style type="text/css">@import url(https://fonts.googleapis.com/css?family=Gloria+Hallelujah);&#xa;@import url(https://fonts.googleapis.com/css?family=Architects+Daughter);&#xa;</style></defs><g><path d="M 0 0 L 78 0 L 78 78 L 0 78 Z" fill="none" stroke="none" pointer-events="all"/><path d="M 25.67 67.97 L 11.83 67.97 L 27.13 35.99 L 34.06 50.26 Z M 28.13 32.93 C 27.94 32.55 27.55 32.3 27.13 32.3 L 27.12 32.3 C 26.69 32.3 26.3 32.55 26.12 32.94 L 9.05 68.61 C 8.89 68.95 8.91 69.36 9.11 69.68 C 9.32 70 9.68 70.2 10.06 70.2 L 26.37 70.2 C 26.8 70.2 27.2 69.95 27.38 69.56 L 36.31 50.73 C 36.46 50.43 36.46 50.07 36.31 49.77 Z M 66.88 67.97 L 53.13 67.97 L 31.08 21.81 C 30.9 21.42 30.5 21.17 30.07 21.17 L 21.08 21.17 L 21.09 10.03 L 38.72 10.03 L 60.67 56.19 C 60.85 56.58 61.25 56.83 61.68 56.83 L 66.88 56.83 Z M 68 54.6 L 62.38 54.6 L 40.43 8.44 C 40.25 8.05 39.85 7.8 39.42 7.8 L 19.97 7.8 C 19.36 7.8 18.86 8.3 18.85 8.91 L 18.84 22.28 C 18.84 22.58 18.96 22.86 19.17 23.07 C 19.38 23.28 19.66 23.4 19.96 23.4 L 29.37 23.4 L 51.42 69.56 C 51.61 69.95 52 70.2 52.43 70.2 L 68 70.2 C 68.61 70.2 69.11 69.7 69.11 69.09 L 69.11 55.71 C 69.11 55.1 68.61 54.6 68 54.6 Z" fill="#d45b07" stroke="none" pointer-events="all"/></g></svg>