<?xml version="1.0" encoding="UTF-8"?>
<!DOCTYPE svg PUBLIC "-//W3C//DTD SVG 1.1//EN" "http://www.w3.org/Graphics/SVG/1.1/DTD/svg11.dtd">
<svg xmlns="http://www.w3.org/2000/svg" xmlns:xlink="http://www.w3.org/1999/xlink" version="1.1" width="79px" height="79px" viewBox="-0.5 -0.5 79 79" style="background-color: rgb(255, 255, 255);"><defs><style type="text/css">@import url(https://fonts.googleapis.com/css?family=Gloria+Hallelujah);&#xa;@import url(https://fonts.googleapis.com/css?family=Architects+Daughter);&#xa;</style></defs><g><path d="M 0 0 L 78 0 L 78 78 L 0 78 Z" fill="#f78e04" stroke="none" pointer-events="all"/><path d="M 69.96 37.66 L 58.67 37.66 L 64.06 32.27 L 62.06 30.28 L 54.19 38.16 C 53.63 38.71 53.63 39.6 54.19 40.15 L 62.06 48.03 L 64.06 46.04 L 58.5 40.48 L 69.96 40.48 Z M 15.93 30.28 L 13.94 32.27 L 19.33 37.66 L 8.04 37.66 L 8.04 40.48 L 19.5 40.48 L 13.94 46.04 L 15.93 48.03 L 23.81 40.15 C 24.36 39.6 24.36 38.71 23.81 38.16 Z M 31.74 46.33 L 46.26 46.33 L 46.26 31.81 L 31.74 31.81 Z M 48.77 30.23 L 51.38 30.23 L 51.38 33.05 L 49.08 33.05 L 49.08 35.18 L 51.38 35.18 L 51.38 38 L 49.08 38 L 49.08 40.14 L 51.38 40.14 L 51.38 42.96 L 49.08 42.96 L 49.08 45.09 L 51.38 45.09 L 51.38 47.91 L 48.77 47.91 C 48.55 48.3 48.23 48.62 47.84 48.84 L 47.84 51.45 L 45.02 51.45 L 45.02 49.15 L 42.89 49.15 L 42.89 51.45 L 40.07 51.45 L 40.07 49.15 L 37.93 49.15 L 37.93 51.45 L 35.11 51.45 L 35.11 49.15 L 32.98 49.15 L 32.98 51.45 L 30.16 51.45 L 30.16 48.84 C 29.77 48.62 29.45 48.3 29.23 47.91 L 26.62 47.91 L 26.62 45.09 L 28.92 45.09 L 28.92 42.96 L 26.62 42.96 L 26.62 40.14 L 28.92 40.14 L 28.92 38 L 26.62 38 L 26.62 35.18 L 28.92 35.18 L 28.92 33.05 L 26.62 33.05 L 26.62 30.23 L 29.23 30.23 C 29.45 29.83 29.77 29.51 30.16 29.29 L 30.16 26.69 L 32.98 26.69 L 32.98 28.99 L 35.11 28.99 L 35.11 26.69 L 37.93 26.69 L 37.93 28.99 L 40.07 28.99 L 40.07 26.69 L 42.89 26.69 L 42.89 28.99 L 45.02 28.99 L 45.02 26.69 L 47.84 26.69 L 47.84 29.29 C 48.23 29.51 48.55 29.83 48.77 30.23 Z M 40.41 65.38 L 40.41 53.93 L 37.59 53.93 L 37.59 65.39 L 32.11 59.91 L 30.12 61.91 L 38 69.79 C 38.28 70.06 38.64 70.2 39 70.2 C 39.36 70.2 39.72 70.06 39.99 69.79 L 47.88 61.91 L 45.88 59.91 Z M 32.11 18.23 L 30.12 16.23 L 38 8.35 C 38.55 7.8 39.44 7.8 39.99 8.35 L 47.88 16.23 L 45.88 18.23 L 40.41 12.75 L 40.41 24.21 L 37.59 24.21 L 37.59 12.75 Z" fill="#ffffff" stroke="none" pointer-events="all"/></g></svg>