<?xml version="1.0" encoding="UTF-8"?>
<!DOCTYPE svg PUBLIC "-//W3C//DTD SVG 1.1//EN" "http://www.w3.org/Graphics/SVG/1.1/DTD/svg11.dtd">
<svg xmlns="http://www.w3.org/2000/svg" xmlns:xlink="http://www.w3.org/1999/xlink" version="1.1" width="79px" height="79px" viewBox="-0.5 -0.5 79 79" style="background-color: rgb(255, 255, 255);"><defs><linearGradient x1="0%" y1="100%" x2="0%" y2="0%" id="mx-gradient-f78e04-1-d05c17-1-s-0"><stop offset="0%" style="stop-color: rgb(208, 92, 23); stop-opacity: 1;"/><stop offset="100%" style="stop-color: rgb(247, 142, 4); stop-opacity: 1;"/></linearGradient><style type="text/css">@import url(https://fonts.googleapis.com/css?family=Gloria+Hallelujah);&#xa;@import url(https://fonts.googleapis.com/css?family=Architects+Daughter);&#xa;</style></defs><g><path d="M 0 0 L 78 0 L 78 78 L 0 78 Z" fill="url(#mx-gradient-f78e04-1-d05c17-1-s-0)" stroke="none" pointer-events="all"/><path d="M 53.68 58.61 L 53.68 52.68 L 57.35 51.22 L 57.35 57.14 Z M 47.56 51.22 L 51.23 52.68 L 51.23 58.61 L 47.56 57.14 Z M 40.22 67.17 L 40.22 61.24 L 43.89 59.78 L 43.89 65.7 Z M 34.11 59.78 L 37.78 61.24 L 37.78 67.17 L 34.11 65.7 Z M 26.77 58.61 L 26.77 52.68 L 30.44 51.22 L 30.44 57.14 Z M 20.65 51.22 L 24.32 52.68 L 24.32 58.61 L 20.65 57.14 Z M 25.55 48.28 L 28.37 49.41 L 25.55 50.54 L 22.72 49.41 Z M 39 56.84 L 41.82 57.97 L 39 59.1 L 36.18 57.97 Z M 52.45 48.28 L 55.28 49.41 L 52.45 50.54 L 49.63 49.41 Z M 59.02 48.27 L 52.91 45.83 C 52.62 45.71 52.29 45.71 52 45.83 L 45.88 48.27 C 45.42 48.46 45.12 48.91 45.12 49.41 L 45.12 56.65 L 39.45 54.39 C 39.16 54.27 38.84 54.27 38.55 54.39 L 32.88 56.65 L 32.88 49.41 C 32.88 48.91 32.58 48.46 32.12 48.27 L 26 45.83 C 25.71 45.71 25.38 45.71 25.09 45.83 L 18.98 48.27 C 18.51 48.46 18.21 48.91 18.21 49.41 L 18.21 57.97 C 18.21 58.47 18.51 58.92 18.98 59.11 L 25.09 61.55 C 25.24 61.61 25.39 61.64 25.55 61.64 C 25.7 61.64 25.86 61.61 26 61.55 L 31.66 59.29 L 31.66 66.53 C 31.66 67.03 31.97 67.48 32.43 67.67 L 38.55 70.11 C 38.69 70.17 38.85 70.2 39 70.2 C 39.15 70.2 39.31 70.17 39.45 70.11 L 45.57 67.67 C 46.03 67.48 46.34 67.03 46.34 66.53 L 46.34 59.29 L 52 61.55 C 52.14 61.61 52.3 61.64 52.45 61.64 C 52.61 61.64 52.76 61.61 52.91 61.55 L 59.02 59.11 C 59.49 58.92 59.79 58.47 59.79 57.97 L 59.79 49.41 C 59.79 48.91 59.49 48.46 59.02 48.27 Z M 69.58 33.43 C 69.58 40.58 53.82 44.44 39 44.44 C 24.18 44.44 8.42 40.58 8.42 33.43 C 8.42 30.02 12.21 27.02 19.08 24.97 L 19.78 27.32 C 14.28 28.95 10.87 31.3 10.87 33.43 C 10.87 37.48 22.42 42 39 42 C 55.58 42 67.13 37.48 67.13 33.43 C 67.13 31.3 63.72 28.95 58.22 27.32 L 58.92 24.97 C 65.79 27.02 69.58 30.02 69.58 33.43 Z M 39 10.36 L 51.49 15.16 L 39 19.97 L 26.51 15.16 Z M 51.94 34.54 C 49.63 35.57 45.76 36.77 40.22 36.94 L 40.22 22.12 L 53.68 16.95 L 53.68 31.86 C 53.68 33.02 53 34.07 51.94 34.54 Z M 24.32 31.86 L 24.32 16.95 L 37.78 22.12 L 37.78 36.94 C 32.24 36.77 28.37 35.57 26.06 34.54 C 25 34.07 24.32 33.02 24.32 31.86 Z M 25.06 36.77 C 27.75 37.98 32.36 39.41 39 39.41 C 45.64 39.41 50.25 37.98 52.93 36.77 C 54.87 35.92 56.12 33.99 56.12 31.86 L 56.12 15.16 C 56.12 14.66 55.81 14.2 55.34 14.02 L 39.44 7.91 C 39.16 7.8 38.84 7.8 38.56 7.91 L 22.66 14.02 C 22.19 14.2 21.88 14.66 21.88 15.16 L 21.88 31.86 C 21.88 33.99 23.13 35.92 25.06 36.77 Z" fill="#ffffff" stroke="none" pointer-events="all"/></g></svg>