<?xml version="1.0" encoding="UTF-8"?>
<!DOCTYPE svg PUBLIC "-//W3C//DTD SVG 1.1//EN" "http://www.w3.org/Graphics/SVG/1.1/DTD/svg11.dtd">
<svg xmlns="http://www.w3.org/2000/svg" xmlns:xlink="http://www.w3.org/1999/xlink" version="1.1" width="79px" height="79px" viewBox="-0.5 -0.5 79 79" style="background-color: rgb(255, 255, 255);"><defs><style type="text/css">@import url(https://fonts.googleapis.com/css?family=Gloria+Hallelujah);&#xa;@import url(https://fonts.googleapis.com/css?family=Architects+Daughter);&#xa;</style></defs><g><path d="M 0 0 L 78 0 L 78 78 L 0 78 Z" fill="#f78e04" stroke="none" pointer-events="all"/><path d="M 39.25 59.5 C 40.63 59.5 41.75 60.61 41.75 61.98 C 41.75 63.35 40.63 64.46 39.25 64.46 C 37.87 64.46 36.75 63.35 36.75 61.98 C 36.75 60.61 37.87 59.5 39.25 59.5 M 18.16 39.42 C 18.16 40.79 17.04 41.9 15.66 41.9 C 14.28 41.9 13.16 40.79 13.16 39.42 C 13.16 38.05 14.28 36.94 15.66 36.94 C 17.04 36.94 18.16 38.05 18.16 39.42 M 62.82 67.41 C 59.95 67.41 57.69 65.26 57.69 62.51 C 57.69 59.7 59.99 57.42 62.82 57.42 C 65.65 57.42 67.95 59.7 67.95 62.51 C 67.95 65.26 65.7 67.41 62.82 67.41 M 57.69 39.56 C 57.69 36.75 59.99 34.47 62.82 34.47 C 65.65 34.47 67.95 36.75 67.95 39.56 C 67.95 42.36 65.65 44.65 62.82 44.65 C 59.99 44.65 57.69 42.36 57.69 39.56 M 39.25 44.65 C 36.42 44.65 34.12 42.36 34.12 39.56 C 34.12 36.75 36.42 34.47 39.25 34.47 C 42.08 34.47 44.38 36.75 44.38 39.56 C 44.38 42.36 42.08 44.65 39.25 44.65 M 44.87 61.84 C 44.87 65.02 42.45 67.41 39.25 67.41 C 36.05 67.41 33.63 65.02 33.63 61.84 C 33.63 58.67 36.05 56.27 39.25 56.27 C 42.45 56.27 44.87 58.67 44.87 61.84 M 32.51 17.27 C 32.51 13.77 35.72 10.59 39.25 10.59 C 42.78 10.59 45.99 13.77 45.99 17.27 C 45.99 20.77 42.78 23.96 39.25 23.96 C 35.72 23.96 32.51 20.77 32.51 17.27 M 15.66 45.13 C 12.46 45.13 10.05 42.73 10.05 39.56 C 10.05 36.33 12.57 33.71 15.66 33.71 C 18.76 33.71 21.28 36.33 21.28 39.56 C 21.28 42.73 18.86 45.13 15.66 45.13 M 20.78 62.47 C 20.78 65.24 18.52 67.41 15.64 67.41 C 12.77 67.41 10.51 65.24 10.51 62.47 C 10.51 59.66 12.82 57.38 15.64 57.38 C 18.47 57.38 20.78 59.66 20.78 62.47 M 63.95 55.29 L 63.95 46.78 C 67.48 46.24 70.2 43.21 70.2 39.56 C 70.2 35.52 66.89 32.24 62.82 32.24 C 59.14 32.24 56.08 34.94 55.54 38.44 L 46.53 38.44 C 46.05 35.3 43.54 32.82 40.38 32.33 L 40.38 26.1 C 44.68 25.51 48.24 21.64 48.24 17.27 C 48.24 12.52 44.04 8.36 39.25 8.36 C 34.46 8.36 30.27 12.52 30.27 17.27 C 30.27 21.64 33.83 25.51 38.13 26.1 L 38.13 32.33 C 34.96 32.82 32.46 35.3 31.97 38.44 L 23.44 38.44 C 22.91 34.52 19.63 31.48 15.66 31.48 C 11.33 31.48 7.8 35.1 7.8 39.56 C 7.8 43.55 10.68 46.75 14.54 47.27 L 14.54 55.25 C 11 55.78 8.27 58.81 8.27 62.47 C 8.27 66.49 11.51 69.64 15.64 69.64 C 19.78 69.64 23.02 66.49 23.02 62.47 C 23.02 58.82 20.31 55.8 16.79 55.25 L 16.79 47.27 C 20.28 46.8 22.96 44.13 23.44 40.67 L 31.97 40.67 C 32.46 43.81 34.96 46.3 38.13 46.78 L 38.13 54.13 C 34.27 54.65 31.39 57.85 31.39 61.84 C 31.39 66.22 34.84 69.64 39.25 69.64 C 43.66 69.64 47.11 66.22 47.11 61.84 C 47.11 57.85 44.23 54.65 40.38 54.13 L 40.38 46.78 C 43.54 46.3 46.05 43.81 46.53 40.67 L 55.54 40.67 C 56.03 43.81 58.53 46.3 61.7 46.78 L 61.7 55.29 C 58.17 55.82 55.45 58.85 55.45 62.51 C 55.45 66.51 58.69 69.64 62.82 69.64 C 66.96 69.64 70.2 66.51 70.2 62.51 C 70.2 58.85 67.48 55.82 63.95 55.29" fill="#ffffff" stroke="none" pointer-events="all"/></g></svg>