<?xml version="1.0" encoding="UTF-8"?>
<svg width="1200pt" height="1200pt" version="1.1" viewBox="0 0 1200 1200" xmlns="http://www.w3.org/2000/svg">
 <g>
  <path d="m977.04 844.01h-114.7c-6.6992 0-12.887-3.5742-16.238-9.375-3.3477-5.8008-3.3477-12.949 0-18.75 3.3516-5.8008 9.5391-9.375 16.238-9.375h114.7c14.836 0 27.375-9.2344 27.375-20.156v-674.81c0-10.898-12.539-20.133-27.375-20.133h-754.08c-14.836 0-27.375 9.2344-27.375 20.133v674.81c0 10.922 12.539 20.156 27.375 20.156h251.27c6.6992 0 12.887 3.5742 16.238 9.375 3.3477 5.8008 3.3477 12.949 0 18.75-3.3516 5.8008-9.5391 9.375-16.238 9.375h-251.27c-35.766 0-64.875-25.781-64.875-57.656v-674.81c0-31.852 29.109-57.633 64.875-57.633h754.08c35.766 0 64.875 25.781 64.875 57.633v674.81c0 31.781-29.109 57.656-64.875 57.656z"/>
  <path d="m1023.1 249.54h-846.28c-6.6992 0-12.887-3.5742-16.238-9.375-3.3477-5.8008-3.3477-12.949 0-18.75 3.3516-5.8008 9.5391-9.375 16.238-9.375h846.28c6.6992 0 12.887 3.5742 16.238 9.375 3.3477 5.8008 3.3477 12.949 0 18.75-3.3516 5.8008-9.5391 9.375-16.238 9.375z"/>
  <path d="m898.69 170.46h-184.2c-6.6992 0-12.887-3.5742-16.238-9.375-3.3477-5.8008-3.3477-12.949 0-18.75 3.3516-5.8008 9.5391-9.375 16.238-9.375h184.2c6.6992 0 12.887 3.5742 16.238 9.375 3.3477 5.8008 3.3477 12.949 0 18.75-3.3516 5.8008-9.5391 9.375-16.238 9.375z"/>
  <path d="m845.65 653.3h-199.73c-6.6992 0-12.887-3.5742-16.238-9.375-3.3477-5.8008-3.3477-12.949 0-18.75 3.3516-5.8008 9.5391-9.375 16.238-9.375h199.73c20.898-0.18359 40.719-9.293 54.469-25.031 15.344-17.273 23.699-39.641 23.438-62.742 0-48.422-34.945-87.797-77.883-87.797h-491.32c-20.859 0.20703-40.637 9.3164-54.352 25.031-15.348 17.277-23.703 39.656-23.438 62.766 0 48.398 34.945 87.773 77.883 87.773h219.42c6.6992 0 12.887 3.5742 16.238 9.375 3.3477 5.8008 3.3477 12.949 0 18.75-3.3516 5.8008-9.5391 9.375-16.238 9.375h-219.52c-63.633 0-115.38-56.25-115.38-125.27-0.28516-32.426 11.539-63.793 33.164-87.961 20.812-23.621 50.738-37.211 82.219-37.336h491.3c63.633 0 115.38 56.25 115.38 125.3 0.27344 32.414-11.539 63.766-33.141 87.938-20.832 23.605-50.758 37.191-82.242 37.336z"/>
  <path d="m834.61 1070.9h-211.99c-5.7539 0-11.188-2.6445-14.742-7.1719l-142.52-181.83c-13.109-13.961-17.98-33.75-12.852-52.203 5.1289-18.449 19.516-32.887 37.945-38.082 18.434-5.1953 38.242-0.39844 52.25 12.66l12.281 9.375v-218.37c0-19.586 10.449-37.684 27.41-47.477 16.961-9.793 37.859-9.793 54.82 0 16.961 9.793 27.41 27.891 27.41 47.477v68.531c15.652-5.2188 32.824-3.1094 46.75 5.7422 13.922 8.8516 23.121 23.504 25.039 39.891 16.738-5.6992 35.199-2.9766 49.582 7.3164 14.379 10.293 22.91 26.891 22.91 44.574v0.14062c5.5898-1.8711 11.449-2.8203 17.344-2.8125 14.531 0.023438 28.461 5.8086 38.738 16.082 10.273 10.277 16.059 24.207 16.082 38.738v45.539c0 0.88672-0.070312 1.7734-0.21094 2.6484l-27.727 193.15c-0.64062 4.457-2.8672 8.5352-6.2656 11.484-3.3984 2.9531-7.7461 4.582-12.25 4.5938zm-202.85-37.5h186.61l25.242-175.78v-44.109c-0.007813-4.5898-1.832-8.9922-5.0781-12.242-3.25-3.2461-7.6523-5.0703-12.242-5.0781-4.5859 0.03125-8.9727 1.8672-12.215 5.1055-3.2383 3.2422-5.0742 7.6289-5.1055 12.215 0 6.6992-3.5742 12.887-9.375 16.238-5.8008 3.3477-12.949 3.3477-18.75 0-5.8008-3.3516-9.375-9.5391-9.375-16.238v-52.148c0.17188-4.6992-1.5742-9.2695-4.8398-12.656-3.2617-3.3867-7.7656-5.3008-12.469-5.3008s-9.207 1.9141-12.469 5.3008c-3.2656 3.3867-5.0117 7.957-4.8398 12.656 0 6.6992-3.5742 12.887-9.375 16.238-5.8008 3.3477-12.949 3.3477-18.75 0-5.8008-3.3516-9.375-9.5391-9.375-16.238v-45.516c-0.22266-6.0391-3.5742-11.531-8.8438-14.488-5.2734-2.957-11.703-2.957-16.977 0-5.2695 2.957-8.6211 8.4492-8.8438 14.488 0 6.6992-3.5742 12.887-9.375 16.238-5.8008 3.3477-12.949 3.3477-18.75 0-5.8008-3.3516-9.375-9.5391-9.375-16.238v-120.56c0-6.1875-3.3008-11.906-8.6602-15s-11.961-3.0938-17.32 0-8.6602 8.8125-8.6602 15v256.03c-0.003906 4.6719-1.75 9.1758-4.8984 12.625-3.1484 3.4531-7.4727 5.6016-12.125 6.0352-4.6484 0.42969-9.2969-0.89062-13.023-3.707l-43.266-32.812c-0.69141-0.51172-1.3398-1.0742-1.9453-1.6875-3.2305-3.3242-7.6602-5.2148-12.297-5.2461-4.6367-0.03125-9.0898 1.793-12.371 5.0703-3.2773 3.2812-5.1016 7.7344-5.0703 12.371 0.03125 4.6367 1.9219 9.0664 5.2461 12.297 0.53125 0.53516 1.0312 1.0977 1.5 1.6875z"/>
  <path d="m645.94 837.3c-4.9727 0-9.7422-1.9766-13.258-5.4922-3.5156-3.5156-5.4922-8.2852-5.4922-13.258v-102.68c0-6.6992 3.5742-12.887 9.375-16.238 5.8008-3.3477 12.949-3.3477 18.75 0 5.8008 3.3516 9.375 9.5391 9.375 16.238v102.68c0 4.9727-1.9766 9.7422-5.4922 13.258-3.5156 3.5156-8.2852 5.4922-13.258 5.4922z"/>
  <path d="m718.08 837.3c-4.9727 0-9.7422-1.9766-13.258-5.4922-3.5156-3.5156-5.4922-8.2852-5.4922-13.258v-57.164c0-6.6992 3.5742-12.887 9.375-16.238 5.8008-3.3477 12.949-3.3477 18.75 0 5.8008 3.3516 9.375 9.5391 9.375 16.238v57.164c0 4.9727-1.9766 9.7422-5.4922 13.258-3.5156 3.5156-8.2852 5.4922-13.258 5.4922z"/>
  <path d="m877.88 1146.1h-298.52c-4.9727 0-9.7422-1.9766-13.258-5.4922-3.5156-3.5156-5.4922-8.2852-5.4922-13.258v-75.164c0-4.9727 1.9766-9.7422 5.4922-13.258s8.2852-5.4922 13.258-5.4922h298.52c4.9727 0 9.7422 1.9766 13.258 5.4922 3.5156 3.5156 5.4922 8.2852 5.4922 13.258v75.164c0 4.9727-1.9766 9.7422-5.4922 13.258-3.5156 3.5156-8.2852 5.4922-13.258 5.4922zm-279.77-37.5h261.02v-37.664h-261.02z"/>
  <path d="m369.33 170.46h-67.969c-6.6992 0-12.887-3.5742-16.238-9.375-3.3477-5.8008-3.3477-12.949 0-18.75 3.3516-5.8008 9.5391-9.375 16.238-9.375h67.969c6.6992 0 12.887 3.5742 16.238 9.375 3.3477 5.8008 3.3477 12.949 0 18.75-3.3516 5.8008-9.5391 9.375-16.238 9.375z"/>
  <path d="m490.8 170.46h-67.969c-6.6992 0-12.887-3.5742-16.238-9.375-3.3477-5.8008-3.3477-12.949 0-18.75 3.3516-5.8008 9.5391-9.375 16.238-9.375h67.969c6.6992 0 12.887 3.5742 16.238 9.375 3.3477 5.8008 3.3477 12.949 0 18.75-3.3516 5.8008-9.5391 9.375-16.238 9.375z"/>
  <path d="m612.26 170.46h-67.969c-6.6992 0-12.887-3.5742-16.238-9.375-3.3477-5.8008-3.3477-12.949 0-18.75 3.3516-5.8008 9.5391-9.375 16.238-9.375h67.969c6.6992 0 12.887 3.5742 16.238 9.375 3.3477 5.8008 3.3477 12.949 0 18.75-3.3516 5.8008-9.5391 9.375-16.238 9.375z"/>
 </g>
</svg>
