<?xml version="1.0" encoding="UTF-8"?>
<svg width="1200pt" height="1200pt" version="1.1" viewBox="0 0 1200 1200" xmlns="http://www.w3.org/2000/svg">
 <path d="m821.19 335.52c-4.7031 0.29688-8.9922 2.8047-11.586 6.7695s-3.1836 8.9258-1.5977 13.398c1.5898 4.4688 5.168 7.9258 9.6719 9.3359l54.363 18.176-164.03 72.703-220.5-37.059c-4.2695-0.68359-8.6289 0.51953-11.953 3.3047l-202.46 166.18c-3.5781 2.3242-6.0039 6.0703-6.6797 10.301-0.67578 4.2344 0.46875 8.5586 3.1445 11.895 2.6719 3.3359 6.6289 5.3672 10.879 5.5898 4.2539 0.22656 8.3984-1.3828 11.402-4.418l197.07-161.7 218.39 36.586 0.003907 0.003907c2.9414 0.48437 5.9609 0.074218 8.6719-1.1797l159.34-70.578-28.355 49.098c-2.3203 3.4531-3.1211 7.7148-2.2148 11.781 0.90625 4.0703 3.4414 7.5781 7.0039 9.6992s7.8359 2.6641 11.812 1.5039c3.9727-1.1641 7.293-3.9297 9.1758-7.6406l52.488-90.645c2.2812-3.9297 2.6797-8.6836 1.0898-12.941-1.5938-4.2617-5.0039-7.5703-9.2891-9.0117l-89.984-30.215c-1.8711-0.70312-3.8633-1.0234-5.8594-0.94141zm8.6719 183.65c-25.699 0-49.176 4.5977-67.488 12.984-18.309 8.3828-32.57 21.676-32.57 37.77 0 4.0234 0.95312 7.9297 2.5781 11.566v234.87c0 9.6953 5.0859 18.004 11.246 23.84 6.1602 5.8359 13.582 9.9766 22.262 13.457 17.359 6.9531 39.582 10.859 63.973 10.859s46.609-3.9023 63.973-10.859c8.6797-3.4766 16.102-7.6211 22.262-13.457 6.1602-5.8359 11.246-14.145 11.246-23.84v-234.87c1.625-3.6367 2.5781-7.543 2.5781-11.566 0-16.094-14.262-29.383-32.57-37.77-18.309-8.3828-41.789-12.984-67.488-12.984zm0 25.965c19.855 0 37.434 3.9219 48.977 9.207 11.543 5.2852 15.934 10.816 15.934 15.578 0 4.7656-4.3906 10.531-15.934 15.816-11.543 5.2852-29.117 8.9688-48.977 8.9688-19.855 0-37.434-3.6836-48.977-8.9688-11.543-5.2852-15.934-11.051-15.934-15.816 0-4.7656 4.3906-10.293 15.934-15.578 11.543-5.2852 29.117-9.207 48.977-9.207zm-232.46 34.465c-25.699 0-49.176 4.5977-67.488 12.984-18.309 8.3828-32.57 21.676-32.57 37.77 0 4.0234 0.95312 7.9297 2.5781 11.566v174.44c0 9.6953 5.0859 18.004 11.246 23.84 6.1602 5.8359 13.582 9.9766 22.262 13.457 17.359 6.9531 39.582 10.859 63.973 10.859s46.609-3.9023 63.973-10.859c8.6797-3.4766 16.102-7.6211 22.262-13.457 6.1602-5.8359 11.246-14.145 11.246-23.84v-174.44c1.625-3.6367 2.5781-7.543 2.5781-11.566 0-16.094-14.262-29.383-32.57-37.77-18.312-8.3828-41.789-12.984-67.488-12.984zm0 25.965c19.855 0 37.434 3.9219 48.977 9.207 11.543 5.2852 15.934 10.816 15.934 15.578 0 4.7656-4.3906 10.531-15.934 15.816-11.543 5.2852-29.117 8.9688-48.977 8.9688-19.855 0-37.434-3.6836-48.977-8.9688s-15.934-11.051-15.934-15.816 4.3906-10.293 15.934-15.578 29.117-9.207 48.977-9.207zm164.97 2.125c18.309 8.3828 41.789 12.98 67.488 12.98s49.176-4.5977 67.488-12.98v22.66c0 0.72656-0.26172 1.7383-2.5781 4.25-2.3164 2.5078-6.7344 5.6797-12.887 8.4961-12.312 5.6367-31.086 9.9141-52.02 9.9141-20.934 0-39.711-4.2773-52.02-9.9141-6.1562-2.8203-10.57-5.9883-12.887-8.4961-2.3164-2.5078-2.5781-3.5234-2.5781-4.25v-22.66zm-397.42 32.34c-25.699 0-49.176 4.5977-67.488 12.984-18.309 8.3828-32.57 21.676-32.57 37.766 0 4.0234 0.95312 7.9297 2.5781 11.566v47.684-0.007813c-0.015625 0.39453-0.015625 0.78906 0 1.1836v65.148c0 9.6953 5.0859 18.004 11.246 23.84s13.582 9.9766 22.262 13.457c17.359 6.9531 39.582 10.859 63.973 10.859s46.609-3.9023 63.973-10.859c8.6797-3.4766 16.102-7.6211 22.262-13.457s11.246-14.145 11.246-23.84v-114.01c1.625-3.6367 2.5781-7.543 2.5781-11.566 0-16.094-14.262-29.383-32.57-37.766-18.312-8.3828-41.789-12.984-67.488-12.984zm0 25.965c19.855 0 37.434 3.9219 48.977 9.207 11.543 5.2852 15.934 10.816 15.934 15.578 0 4.7656-4.3906 10.531-15.934 15.816s-29.117 8.9688-48.977 8.9688c-19.855 0-37.434-3.6836-48.977-8.9688-11.543-5.2852-15.934-11.051-15.934-15.816 0-4.7656 4.3906-10.293 15.934-15.578 11.543-5.2852 29.117-9.207 48.977-9.207zm164.97 2.125c18.309 8.3828 41.789 12.98 67.488 12.98s49.176-4.5977 67.488-12.98v22.66c0 0.72656-0.26172 1.7383-2.5781 4.25-2.3164 2.5078-6.7344 5.6797-12.887 8.4961-12.312 5.6367-31.086 9.9141-52.02 9.9141s-39.711-4.2773-52.02-9.9141c-6.1562-2.8164-10.57-5.9883-12.887-8.4961-2.3164-2.5078-2.5781-3.5234-2.5781-4.25v-22.66zm232.46 1.1797c1.0156 0.50781 2 0.9375 3.0469 1.418 17.543 8.0312 39.82 12.512 64.441 12.512 24.621 0 46.898-4.4766 64.441-12.512 1.0469-0.48438 2.0312-0.90625 3.0469-1.418v21.48c0 0.72656-0.26172 1.7383-2.5781 4.25-2.3164 2.5078-6.7344 5.6797-12.887 8.4961-12.312 5.6367-31.086 9.9141-52.02 9.9141-20.934 0-39.711-4.2773-52.02-9.9141-6.1562-2.8164-10.57-5.9883-12.887-8.4961-2.3164-2.5078-2.5781-3.5234-2.5781-4.25v-21.48zm-464.91 59.25c18.309 8.3828 41.789 12.98 67.488 12.98s49.176-4.5977 67.488-12.98v22.66c0 0.72656-0.26172 1.7383-2.5781 4.25-2.3164 2.5078-6.7344 5.6797-12.887 8.4961-12.312 5.6367-31.086 9.9141-52.02 9.9141-20.934 0-39.711-4.2773-52.02-9.9141-6.1562-2.8203-10.57-5.9883-12.887-8.4961-2.3164-2.5078-2.5781-3.5234-2.5781-4.25l-0.011718-0.003906c0.023437-0.47266 0.023437-0.94531 0-1.418v-21.242zm232.46 1.1797c1.0156 0.50781 2 0.9375 3.0469 1.418 17.543 8.0312 39.82 12.512 64.441 12.512s46.898-4.4766 64.441-12.512c1.0469-0.48438 2.0312-0.90625 3.0469-1.418v21.48c0 0.72656-0.26172 1.7383-2.5781 4.25-2.3164 2.5078-6.7344 5.6797-12.887 8.4961-12.312 5.6367-31.086 9.9141-52.02 9.9141-20.934 0-39.711-4.2773-52.02-9.9141-6.1562-2.8203-10.57-5.9883-12.887-8.4961-2.3164-2.5078-2.5781-3.5234-2.5781-4.25v-21.48zm232.46 0c1.0156 0.50781 2 0.9375 3.0469 1.418 17.543 8.0312 39.82 12.512 64.441 12.512 24.621 0 46.898-4.4766 64.441-12.512 1.0469-0.48438 2.0312-0.90625 3.0469-1.418v21.48c0 0.72656-0.26172 1.7383-2.5781 4.25-2.3164 2.5078-6.7344 5.6797-12.887 8.4961-12.312 5.6367-31.086 9.9141-52.02 9.9141s-39.711-4.2773-52.02-9.9141c-6.1562-2.8203-10.57-5.9883-12.887-8.4961s-2.5781-3.5234-2.5781-4.25v-21.48zm-464.91 60.43c1.0156 0.51562 2 0.9375 3.0469 1.418 17.543 8.0312 39.82 12.512 64.441 12.512 24.621 0 46.898-4.4805 64.441-12.512 1.0469-0.47656 2.0312-0.90625 3.0469-1.418v26.203c-0.19531 0.22656-0.78125 0.61328-1.875 1.6523-2.1875 2.0703-6.6406 5.0508-12.887 7.5547-12.492 5.0039-31.559 8.7344-52.723 8.7344-21.164 0-40.23-3.7305-52.723-8.7344-6.2461-2.5039-10.699-5.4805-12.887-7.5547-1.0938-1.0352-1.6797-1.4258-1.875-1.6523v-26.203zm232.46 0c1.0156 0.51562 2 0.9375 3.0469 1.418 17.543 8.0312 39.82 12.512 64.441 12.512 24.621 0 46.898-4.4805 64.441-12.512 1.0469-0.47656 2.0312-0.90625 3.0469-1.418v26.203c-0.19531 0.22656-0.78125 0.61328-1.875 1.6523-2.1875 2.0703-6.6406 5.0508-12.887 7.5547-12.492 5.0039-31.559 8.7344-52.723 8.7344-21.164 0-40.23-3.7305-52.723-8.7344-6.2461-2.5039-10.699-5.4805-12.887-7.5547-1.0938-1.0352-1.6797-1.4258-1.875-1.6523v-26.203zm232.46 0c1.0156 0.51562 2 0.9375 3.0469 1.418 17.543 8.0312 39.82 12.512 64.441 12.512s46.898-4.4805 64.441-12.512c1.0469-0.47656 2.0312-0.90625 3.0469-1.418v26.203c-0.19531 0.22656-0.78125 0.61328-1.875 1.6523-2.1875 2.0703-6.6406 5.0508-12.887 7.5547-12.492 5.0039-31.559 8.7344-52.723 8.7344s-40.23-3.7305-52.723-8.7344c-6.2461-2.5039-10.699-5.4805-12.887-7.5547-1.0938-1.0352-1.6797-1.4258-1.875-1.6523v-26.203z"/>
</svg>
