<?xml version="1.0" encoding="UTF-8"?>
<svg width="128pt" height="128pt" version="1.1" viewBox="0 0 128 128" xmlns="http://www.w3.org/2000/svg">
 <g fill="#676767">
  <path d="m52.418 64c0 6.1445-4.9805 11.129-11.125 11.129s-11.125-4.9844-11.125-11.129c0-2.9492 1.1719-5.7812 3.2617-7.8672 2.0859-2.0859 4.9141-3.2578 7.8633-3.2578s5.7812 1.1719 7.8672 3.2578c2.0859 2.0859 3.2578 4.918 3.2578 7.8672z"/>
  <path d="m78.371 41.746c0 4.0977-3.3203 7.418-7.4141 7.418-4.0977 0-7.418-3.3203-7.418-7.418 0-1.9688 0.78125-3.8555 2.1719-5.2461 1.3906-1.3906 3.2773-2.1719 5.2461-2.1719 1.9648 0 3.8516 0.78125 5.2422 2.1719s2.1719 3.2773 2.1719 5.2461z"/>
  <path d="m59.836 39.227c-9.4609 0-15.051 6.5586-17.816 12.598-2.7656 6.0352-3.2344 11.965-3.2344 11.965-0.058594 0.66406 0.15234 1.3242 0.58203 1.8359 0.42969 0.51172 1.0469 0.83203 1.7109 0.89062 0.66797 0.058594 1.332-0.15234 1.8438-0.58594 0.51172-0.43359 0.83203-1.0508 0.88672-1.7227 0 0 0.45703-5.1992 2.7891-10.289 2.332-5.0898 6.0195-9.6562 13.242-9.6562h14.828-0.003907c1.3906-0.003907 2.5156-1.1289 2.5156-2.5156 0-1.3906-1.125-2.5156-2.5156-2.5195z"/>
  <path d="m78.371 86.254c0-4.0977-3.3203-7.418-7.4141-7.418-4.0977 0-7.418 3.3203-7.418 7.418s3.3203 7.418 7.418 7.418c4.0938 0 7.4141-3.3203 7.4141-7.418z"/>
  <path d="m83.938 83.734c-0.66797 0-1.3125 0.26172-1.7852 0.73438-0.47656 0.47266-0.74219 1.1133-0.74219 1.7852 0 0.66797 0.26562 1.3086 0.74219 1.7812 0.47266 0.47266 1.1172 0.73438 1.7852 0.73438h11.121c1.3906-0.003906 2.5156-1.1289 2.5156-2.5156 0-1.3906-1.125-2.5156-2.5156-2.5195z"/>
  <path d="m95.059 83.734c-0.67188 0-1.3125 0.26953-1.7852 0.74609l-5.5664 5.5547c-0.47266 0.47266-0.73828 1.1172-0.73438 1.7852 0 0.67188 0.26953 1.3125 0.74609 1.7852 0.98438 0.98047 2.5742 0.98047 3.5586 0l5.5547-5.5664c0.98047-0.98437 0.98047-2.5781 0-3.5586-0.46875-0.47266-1.1055-0.74219-1.7734-0.74609z"/>
  <path d="m87.719 78.914c-0.98438 0.97656-0.98828 2.5703-0.011719 3.5547l5.5664 5.5664v0.003906c0.98437 0.98047 2.5742 0.98047 3.5586 0 0.98047-0.98437 0.98047-2.5781 0-3.5586l-5.5547-5.5664c-0.98438-0.98047-2.5742-0.98047-3.5586 0z"/>
  <path d="m41.078 61.492c-1.3789 0.12109-2.4062 1.3359-2.293 2.7148 0 0 0.46875 5.9258 3.2344 11.965 2.7656 6.0352 8.3516 12.598 17.816 12.598h14.828c1.3906-0.003906 2.5156-1.1289 2.5156-2.5156 0-1.3906-1.125-2.5156-2.5156-2.5195h-14.828c-7.2227 0-10.91-4.5664-13.242-9.6562s-2.7891-10.289-2.7891-10.289h0.003906c-0.058594-0.66797-0.37891-1.2852-0.89062-1.7148-0.51172-0.42969-1.1719-0.63672-1.8398-0.58203z"/>
  <path d="m78.371 64c0-1.9648-0.78125-3.8555-2.1719-5.2461s-3.2773-2.1719-5.2422-2.1719c-1.9688 0-3.8555 0.78125-5.2461 2.1719-1.3906 1.3906-2.1719 3.2812-2.1719 5.2461 0 4.0977 3.3203 7.418 7.418 7.418 4.0938 0 7.4141-3.3203 7.4141-7.418z"/>
  <path d="m41.289 61.48c-1.3867 0.003906-2.5156 1.1289-2.5156 2.5195 0 1.3867 1.1289 2.5117 2.5156 2.5156h33.375c1.3906-0.003906 2.5156-1.1289 2.5156-2.5156 0-1.3906-1.125-2.5156-2.5156-2.5195z"/>
  <path d="m83.938 61.48c-0.66797 0-1.3125 0.26172-1.7852 0.73438-0.47656 0.47266-0.74219 1.1133-0.74219 1.7852 0 0.66797 0.26562 1.3086 0.74219 1.7812 0.47266 0.47266 1.1172 0.73438 1.7852 0.73438h11.121c1.3906-0.003906 2.5156-1.1289 2.5156-2.5156 0-1.3906-1.125-2.5156-2.5156-2.5195z"/>
  <path d="m96.832 62.215c-0.98828-0.98047-2.5781-0.97266-3.5586 0.011718l-5.5664 5.5547c-0.47266 0.47266-0.73828 1.1172-0.73438 1.7852 0 0.67188 0.26953 1.3125 0.74609 1.7852 0.98438 0.98047 2.5742 0.98047 3.5586 0l5.5547-5.5664c0.47266-0.47266 0.74219-1.1172 0.74219-1.7852 0-0.67188-0.26953-1.3125-0.74219-1.7852z"/>
  <path d="m87.719 56.66c-0.98438 0.97656-0.98828 2.5703-0.011719 3.5586l5.5664 5.5664c0.98437 0.98047 2.5742 0.98047 3.5586 0 0.98047-0.98438 0.98047-2.5781 0-3.5586l-5.5547-5.5664c-0.98438-0.98047-2.5742-0.98047-3.5586 0z"/>
  <path d="m83.938 39.227c-0.66797 0-1.3125 0.26172-1.7852 0.73438-0.47656 0.47266-0.74219 1.1133-0.74219 1.7852 0 0.66797 0.26562 1.3086 0.74219 1.7812 0.47266 0.47266 1.1172 0.73828 1.7852 0.73438h11.121c1.3906-0.003907 2.5156-1.1289 2.5156-2.5156 0-1.3906-1.125-2.5156-2.5156-2.5195z"/>
  <path d="m96.832 39.961c-0.98828-0.98047-2.5781-0.97266-3.5586 0.011718l-5.5664 5.5547c-0.47266 0.47266-0.73828 1.1172-0.73438 1.7852 0 0.67188 0.26953 1.3125 0.74609 1.7852 0.98438 0.98047 2.5742 0.98047 3.5586 0l5.5547-5.5664c0.47266-0.47266 0.74219-1.1172 0.74219-1.7852 0-0.67188-0.26953-1.3125-0.74219-1.7852z"/>
  <path d="m87.719 34.406c-0.98438 0.98047-0.98828 2.5703-0.011719 3.5586l5.5664 5.5664c0.98437 0.98047 2.5742 0.98047 3.5586 0 0.98047-0.98438 0.98047-2.5781 0-3.5586l-5.5547-5.5664c-0.98438-0.98047-2.5742-0.98047-3.5586 0z"/>
 </g>
</svg>
