<?xml version="1.0" encoding="UTF-8"?>
<svg width="1200pt" height="1200pt" version="1.1" viewBox="0 0 1200 1200" xmlns="http://www.w3.org/2000/svg">
 <g>
  <path d="m825 37.5h-450c-14.914 0.015625-29.211 5.9492-39.754 16.496-10.547 10.543-16.48 24.84-16.496 39.754v975c0.015625 14.914 5.9492 29.211 16.496 39.754 10.543 10.547 24.84 16.48 39.754 16.496v18.75c0 6.6992 3.5742 12.887 9.375 16.238 5.8008 3.3477 12.949 3.3477 18.75 0 5.8008-3.3516 9.375-9.5391 9.375-16.238v-18.75h375v18.75c0 6.6992 3.5742 12.887 9.375 16.238 5.8008 3.3477 12.949 3.3477 18.75 0 5.8008-3.3516 9.375-9.5391 9.375-16.238v-18.75c14.914-0.015625 29.211-5.9492 39.754-16.496 10.547-10.543 16.48-24.84 16.496-39.754v-975c-0.015625-14.914-5.9492-29.211-16.496-39.754-10.543-10.547-24.84-16.48-39.754-16.496zm-412.5 75c4.9727 0 9.7422 1.9766 13.258 5.4922 3.5156 3.5156 5.4922 8.2852 5.4922 13.258s-1.9766 9.7422-5.4922 13.258c-3.5156 3.5156-8.2852 5.4922-13.258 5.4922s-9.7422-1.9766-13.258-5.4922c-3.5156-3.5156-5.4922-8.2852-5.4922-13.258s1.9766-9.7422 5.4922-13.258c3.5156-3.5156 8.2852-5.4922 13.258-5.4922zm0 937.5c-4.9727 0-9.7422-1.9766-13.258-5.4922-3.5156-3.5156-5.4922-8.2852-5.4922-13.258s1.9766-9.7422 5.4922-13.258c3.5156-3.5156 8.2852-5.4922 13.258-5.4922s9.7422 1.9766 13.258 5.4922c3.5156 3.5156 5.4922 8.2852 5.4922 13.258s-1.9766 9.7422-5.4922 13.258c-3.5156 3.5156-8.2852 5.4922-13.258 5.4922zm337.5-150c-0.003906 4.9727-1.9844 9.7383-5.4961 13.254-3.5156 3.5117-8.2812 5.4922-13.254 5.4961h-262.5c-4.9727-0.003906-9.7383-1.9844-13.254-5.4961-3.5117-3.5156-5.4922-8.2812-5.4961-13.254v-187.5c0.003906-4.9727 1.9844-9.7383 5.4961-13.254 3.5156-3.5117 8.2812-5.4922 13.254-5.4961h262.5c4.9727 0.003906 9.7383 1.9844 13.254 5.4961 3.5117 3.5156 5.4922 8.2812 5.4961 13.254zm0-337.5c-4.9727 0.007812-9.7461-1.9688-13.258-5.4922l-18.148-18.148h-0.003906c-33.441 27.41-75.348 42.391-118.59 42.391-43.242 0-85.148-14.98-118.59-42.391l-18.148 18.148c-4.7383 4.7383-11.641 6.5859-18.113 4.8555-6.4688-1.7344-11.523-6.7891-13.258-13.262-1.7344-6.4688 0.11719-13.375 4.8555-18.109l18.148-18.148v-0.003906c-27.414-33.441-42.395-75.348-42.395-118.59 0-43.242 14.98-85.148 42.395-118.59l-18.148-18.148c-4.7383-4.7383-6.5898-11.641-4.8555-18.113 1.7344-6.4688 6.7891-11.523 13.258-13.258 6.4727-1.7344 13.375 0.11719 18.113 4.8555l18.148 18.148c33.445-27.414 75.352-42.395 118.59-42.395 43.246 0 85.152 14.98 118.59 42.395l18.148-18.148h0.003907c4.7344-4.7383 11.641-6.5898 18.109-4.8555 6.4727 1.7344 11.527 6.7891 13.262 13.258 1.7305 6.4727-0.11719 13.375-4.8555 18.113l-18.148 18.148c27.41 33.445 42.391 75.352 42.391 118.59 0 43.246-14.98 85.152-42.391 118.59l18.148 18.148v0.003907c3.5156 3.5156 5.4922 8.2852 5.4922 13.258s-1.9766 9.7422-5.4922 13.258c-3.5156 3.5156-8.2852 5.4922-13.258 5.4922zm37.5 487.5c-4.9727 0-9.7422-1.9766-13.258-5.4922-3.5156-3.5156-5.4922-8.2852-5.4922-13.258s1.9766-9.7422 5.4922-13.258c3.5156-3.5156 8.2852-5.4922 13.258-5.4922s9.7422 1.9766 13.258 5.4922c3.5156 3.5156 5.4922 8.2852 5.4922 13.258s-1.9766 9.7422-5.4922 13.258c-3.5156 3.5156-8.2852 5.4922-13.258 5.4922zm0-900c-4.9727 0-9.7422-1.9766-13.258-5.4922-3.5156-3.5156-5.4922-8.2852-5.4922-13.258s1.9766-9.7422 5.4922-13.258c3.5156-3.5156 8.2852-5.4922 13.258-5.4922s9.7422 1.9766 13.258 5.4922c3.5156 3.5156 5.4922 8.2852 5.4922 13.258s-1.9766 9.7422-5.4922 13.258c-3.5156 3.5156-8.2852 5.4922-13.258 5.4922z"/>
  <path d="m487.5 393.75c-0.015625-23.355 7.2773-46.129 20.859-65.129l-26.773-26.773c-20.469 26.262-31.582 58.605-31.582 91.902s11.113 65.641 31.582 91.902l26.773-26.773c-13.582-19-20.875-41.773-20.859-65.129z"/>
  <path d="m718.42 301.85-26.781 26.773c13.562 19.008 20.855 41.777 20.855 65.129s-7.293 46.121-20.855 65.129l26.773 26.773c20.469-26.262 31.582-58.605 31.582-91.902s-11.113-65.641-31.582-91.902z"/>
  <path d="m675 393.75c0.011719-13.395-3.5859-26.543-10.414-38.066l-38.07 38.066 38.066 38.066h0.003907c6.8281-11.523 10.426-24.672 10.414-38.066z"/>
  <path d="m600 506.25c-23.355 0.015625-46.129-7.2773-65.129-20.859l-26.773 26.773c26.262 20.469 58.605 31.582 91.902 31.582s65.641-11.113 91.902-31.582l-26.773-26.773c-19 13.582-41.773 20.875-65.129 20.859z"/>
  <path d="m638.07 458.34-38.066-38.07-38.066 38.066v0.003907c11.527 6.8164 24.672 10.414 38.066 10.414s26.539-3.5977 38.066-10.414z"/>
  <path d="m600 281.25c23.355-0.015625 46.129 7.2773 65.129 20.859l26.773-26.773c-26.262-20.469-58.605-31.582-91.902-31.582s-65.641 11.113-91.902 31.582l26.773 26.773c19-13.582 41.773-20.875 65.129-20.859z"/>
  <path d="m638.07 329.16c-11.527-6.8164-24.672-10.414-38.066-10.414s-26.539 3.5977-38.066 10.414l38.066 38.07z"/>
  <path d="m525 393.75c-0.011719 13.395 3.5859 26.543 10.414 38.066l38.07-38.066-38.066-38.066h-0.003907c-6.8281 11.523-10.426 24.672-10.414 38.066z"/>
  <path d="m1087.5 206.25c0 10.355-8.3945 18.75-18.75 18.75s-18.75-8.3945-18.75-18.75 8.3945-18.75 18.75-18.75 18.75 8.3945 18.75 18.75"/>
  <path d="m1012.5 206.25c0 10.355-8.3945 18.75-18.75 18.75s-18.75-8.3945-18.75-18.75 8.3945-18.75 18.75-18.75 18.75 8.3945 18.75 18.75"/>
  <path d="m1087.5 356.25c0 10.355-8.3945 18.75-18.75 18.75s-18.75-8.3945-18.75-18.75 8.3945-18.75 18.75-18.75 18.75 8.3945 18.75 18.75"/>
  <path d="m1012.5 356.25c0 10.355-8.3945 18.75-18.75 18.75s-18.75-8.3945-18.75-18.75 8.3945-18.75 18.75-18.75 18.75 8.3945 18.75 18.75"/>
  <path d="m1087.5 506.25c0 10.355-8.3945 18.75-18.75 18.75s-18.75-8.3945-18.75-18.75 8.3945-18.75 18.75-18.75 18.75 8.3945 18.75 18.75"/>
  <path d="m1012.5 506.25c0 10.355-8.3945 18.75-18.75 18.75s-18.75-8.3945-18.75-18.75 8.3945-18.75 18.75-18.75 18.75 8.3945 18.75 18.75"/>
  <path d="m1087.5 656.25c0 10.355-8.3945 18.75-18.75 18.75s-18.75-8.3945-18.75-18.75 8.3945-18.75 18.75-18.75 18.75 8.3945 18.75 18.75"/>
  <path d="m1012.5 656.25c0 10.355-8.3945 18.75-18.75 18.75s-18.75-8.3945-18.75-18.75 8.3945-18.75 18.75-18.75 18.75 8.3945 18.75 18.75"/>
  <path d="m1106.2 112.5h-168.75c-6.6992 0-12.887 3.5742-16.238 9.375-3.3477 5.8008-3.3477 12.949 0 18.75 3.3516 5.8008 9.5391 9.375 16.238 9.375h168.75c4.9727 0.003906 9.7383 1.9844 13.254 5.4961 3.5117 3.5156 5.4922 8.2812 5.4961 13.254v93.75h-187.5c-6.6992 0-12.887 3.5742-16.238 9.375-3.3477 5.8008-3.3477 12.949 0 18.75 3.3516 5.8008 9.5391 9.375 16.238 9.375h187.5v112.5h-187.5c-6.6992 0-12.887 3.5742-16.238 9.375-3.3477 5.8008-3.3477 12.949 0 18.75 3.3516 5.8008 9.5391 9.375 16.238 9.375h187.5v112.5h-187.5c-6.6992 0-12.887 3.5742-16.238 9.375-3.3477 5.8008-3.3477 12.949 0 18.75 3.3516 5.8008 9.5391 9.375 16.238 9.375h187.5v112.5h-187.5c-6.6992 0-12.887 3.5742-16.238 9.375-3.3477 5.8008-3.3477 12.949 0 18.75 3.3516 5.8008 9.5391 9.375 16.238 9.375h67.234l-80.492 80.492c-4.7383 4.7344-6.5859 11.641-4.8555 18.109 1.7344 6.4727 6.7891 11.527 13.262 13.262 6.4688 1.7305 13.375-0.11719 18.109-4.8555l107.01-107.01h40.715l-174.24 174.24h0.003907c-4.7383 4.7344-6.5859 11.641-4.8555 18.109 1.7344 6.4727 6.7891 11.527 13.262 13.262 6.4688 1.7305 13.375-0.11719 18.109-4.8555l174.24-174.24v41.645c-1.418 0.8125-2.7227 1.8047-3.8828 2.957l-196.88 196.88c-4.7383 4.7344-6.5859 11.641-4.8555 18.109 1.7344 6.4727 6.7891 11.527 13.262 13.262 6.4688 1.7305 13.375-0.11719 18.109-4.8555l174.24-174.24v41.645c-1.418 0.8125-2.7227 1.8047-3.8828 2.957l-103.12 103.12c-4.7383 4.7344-6.5859 11.641-4.8555 18.109 1.7344 6.4727 6.7891 11.527 13.262 13.262 6.4688 1.7305 13.375-0.11719 18.109-4.8555l80.492-80.492v40.715l-32.008 32.008v0.003907c-4.7383 4.7344-6.5859 11.641-4.8555 18.109 1.7344 6.4727 6.7891 11.527 13.262 13.262 6.4688 1.7305 13.375-0.11719 18.109-4.8555l5.4922-5.4922v10.984c-0.003906 4.9727-1.9844 9.7383-5.4961 13.254-3.5156 3.5117-8.2812 5.4922-13.254 5.4961h-168.75c-6.6992 0-12.887 3.5742-16.238 9.375-3.3477 5.8008-3.3477 12.949 0 18.75 3.3516 5.8008 9.5391 9.375 16.238 9.375h131.25v18.75c0 6.6992 3.5742 12.887 9.375 16.238 5.8008 3.3477 12.949 3.3477 18.75 0 5.8008-3.3516 9.375-9.5391 9.375-16.238v-18.75c14.914-0.015625 29.211-5.9492 39.758-16.492 10.543-10.547 16.477-24.844 16.492-39.758v-900c-0.015625-14.914-5.9492-29.211-16.492-39.758-10.547-10.543-24.844-16.477-39.758-16.492z"/>
  <path d="m150 206.25c0 10.355-8.3945 18.75-18.75 18.75s-18.75-8.3945-18.75-18.75 8.3945-18.75 18.75-18.75 18.75 8.3945 18.75 18.75"/>
  <path d="m225 206.25c0 10.355-8.3945 18.75-18.75 18.75s-18.75-8.3945-18.75-18.75 8.3945-18.75 18.75-18.75 18.75 8.3945 18.75 18.75"/>
  <path d="m150 356.25c0 10.355-8.3945 18.75-18.75 18.75s-18.75-8.3945-18.75-18.75 8.3945-18.75 18.75-18.75 18.75 8.3945 18.75 18.75"/>
  <path d="m225 356.25c0 10.355-8.3945 18.75-18.75 18.75s-18.75-8.3945-18.75-18.75 8.3945-18.75 18.75-18.75 18.75 8.3945 18.75 18.75"/>
  <path d="m150 506.25c0 10.355-8.3945 18.75-18.75 18.75s-18.75-8.3945-18.75-18.75 8.3945-18.75 18.75-18.75 18.75 8.3945 18.75 18.75"/>
  <path d="m225 506.25c0 10.355-8.3945 18.75-18.75 18.75s-18.75-8.3945-18.75-18.75 8.3945-18.75 18.75-18.75 18.75 8.3945 18.75 18.75"/>
  <path d="m150 656.25c0 10.355-8.3945 18.75-18.75 18.75s-18.75-8.3945-18.75-18.75 8.3945-18.75 18.75-18.75 18.75 8.3945 18.75 18.75"/>
  <path d="m225 656.25c0 10.355-8.3945 18.75-18.75 18.75s-18.75-8.3945-18.75-18.75 8.3945-18.75 18.75-18.75 18.75 8.3945 18.75 18.75"/>
  <path d="m249.24 857.01c4.7344 4.7383 11.641 6.5859 18.109 4.8555 6.4727-1.7344 11.527-6.7891 13.262-13.262 1.7305-6.4688-0.11719-13.375-4.8555-18.109l-80.492-80.492h67.234c6.6992 0 12.887-3.5742 16.238-9.375 3.3477-5.8008 3.3477-12.949 0-18.75-3.3516-5.8008-9.5391-9.375-16.238-9.375h-187.5v-112.5h187.5c6.6992 0 12.887-3.5742 16.238-9.375 3.3477-5.8008 3.3477-12.949 0-18.75-3.3516-5.8008-9.5391-9.375-16.238-9.375h-187.5v-112.5h187.5c6.6992 0 12.887-3.5742 16.238-9.375 3.3477-5.8008 3.3477-12.949 0-18.75-3.3516-5.8008-9.5391-9.375-16.238-9.375h-187.5v-112.5h187.5c6.6992 0 12.887-3.5742 16.238-9.375 3.3477-5.8008 3.3477-12.949 0-18.75-3.3516-5.8008-9.5391-9.375-16.238-9.375h-187.5v-93.75c0.003906-4.9727 1.9844-9.7383 5.4961-13.254 3.5156-3.5117 8.2812-5.4922 13.254-5.4961h168.75c6.6992 0 12.887-3.5742 16.238-9.375 3.3477-5.8008 3.3477-12.949 0-18.75-3.3516-5.8008-9.5391-9.375-16.238-9.375h-168.75c-14.914 0.015625-29.211 5.9492-39.758 16.492-10.543 10.547-16.477 24.844-16.492 39.758v900c0.015625 14.914 5.9492 29.211 16.492 39.758 10.547 10.543 24.844 16.477 39.758 16.492v18.75c0 6.6992 3.5742 12.887 9.375 16.238 5.8008 3.3477 12.949 3.3477 18.75 0 5.8008-3.3516 9.375-9.5391 9.375-16.238v-18.75h131.25c6.6992 0 12.887-3.5742 16.238-9.375 3.3477-5.8008 3.3477-12.949 0-18.75-3.3516-5.8008-9.5391-9.375-16.238-9.375h-168.75c-4.9727-0.003906-9.7383-1.9844-13.254-5.4961-3.5117-3.5156-5.4922-8.2812-5.4961-13.254v-10.984l5.4922 5.4922c4.7344 4.7383 11.641 6.5859 18.109 4.8555 6.4727-1.7344 11.527-6.7891 13.262-13.262 1.7305-6.4688-0.11719-13.375-4.8555-18.109l-32.008-32.008v-40.719l80.492 80.492c4.7344 4.7383 11.641 6.5859 18.109 4.8555 6.4727-1.7344 11.527-6.7891 13.262-13.262 1.7305-6.4688-0.11719-13.375-4.8555-18.109l-103.12-103.12c-1.1602-1.1523-2.4648-2.1445-3.8828-2.957v-41.645l174.24 174.24c4.7344 4.7383 11.641 6.5859 18.109 4.8555 6.4727-1.7344 11.527-6.7891 13.262-13.262 1.7305-6.4688-0.11719-13.375-4.8555-18.109l-196.88-196.88c-1.1602-1.1523-2.4648-2.1445-3.8828-2.957v-41.645l174.24 174.24c4.7344 4.7383 11.641 6.5859 18.109 4.8555 6.4727-1.7344 11.527-6.7891 13.262-13.262 1.7305-6.4688-0.11719-13.375-4.8555-18.109l-174.24-174.24h40.719z"/>
  <path d="m693.75 843.75v-93.75c0-6.6992-3.5742-12.887-9.375-16.238-5.8008-3.3477-12.949-3.3477-18.75 0-5.8008 3.3516-9.375 9.5391-9.375 16.238v93.75h-37.5v-56.25c0-6.6992-3.5742-12.887-9.375-16.238-5.8008-3.3477-12.949-3.3477-18.75 0-5.8008 3.3516-9.375 9.5391-9.375 16.238v56.25h-37.5v-37.5c0-6.6992-3.5742-12.887-9.375-16.238-5.8008-3.3477-12.949-3.3477-18.75 0-5.8008 3.3516-9.375 9.5391-9.375 16.238v37.5c-6.6992 0-12.887 3.5742-16.238 9.375-3.3477 5.8008-3.3477 12.949 0 18.75 3.3516 5.8008 9.5391 9.375 16.238 9.375h187.5c6.6992 0 12.887-3.5742 16.238-9.375 3.3477-5.8008 3.3477-12.949 0-18.75-3.3516-5.8008-9.5391-9.375-16.238-9.375z"/>
 </g>
</svg>
