<?xml version="1.0" encoding="UTF-8"?>
<!DOCTYPE svg PUBLIC "-//W3C//DTD SVG 1.1//EN" "http://www.w3.org/Graphics/SVG/1.1/DTD/svg11.dtd">
<svg xmlns="http://www.w3.org/2000/svg" xmlns:xlink="http://www.w3.org/1999/xlink" version="1.1" width="79px" height="79px" viewBox="-0.5 -0.5 79 79" style="background-color: rgb(255, 255, 255);"><defs><style type="text/css">@import url(https://fonts.googleapis.com/css?family=Gloria+Hallelujah);&#xa;@import url(https://fonts.googleapis.com/css?family=Architects+Daughter);&#xa;</style></defs><g><path d="M 0 0 L 78 0 L 78 78 L 0 78 Z" fill="#4ab29a" stroke="none" pointer-events="all"/><path d="M 66.7 21.84 C 66.5 22.28 66.06 22.57 65.58 22.57 L 59.96 22.57 L 59.96 32.34 L 63.63 32.34 C 64.3 32.34 64.85 32.88 64.85 33.56 L 64.85 68.98 C 64.85 69.65 64.3 70.2 63.63 70.2 L 14.77 70.2 C 12.75 70.2 11.11 68.56 11.11 66.54 L 11.11 23.79 C 11.11 23.11 11.65 22.57 12.33 22.57 L 27.66 22.57 C 28.01 22.57 28.34 22.71 28.57 22.97 L 31.51 26.23 L 37.98 26.23 L 37.98 28.67 L 30.96 28.67 C 30.62 28.67 30.29 28.53 30.06 28.27 L 27.12 25.01 L 13.55 25.01 L 13.55 66.54 C 13.55 67.21 14.1 67.76 14.77 67.76 C 15.45 67.76 15.99 67.21 15.99 66.54 L 15.99 33.56 C 15.99 32.88 16.54 32.34 17.21 32.34 L 37.98 32.34 L 37.98 34.78 L 18.44 34.78 L 18.44 66.54 C 18.44 66.97 18.35 67.37 18.21 67.76 L 62.41 67.76 L 62.41 34.78 L 53.86 34.78 L 53.86 32.34 L 57.52 32.34 L 57.52 21.35 C 57.52 20.67 58.07 20.12 58.74 20.12 L 62.82 20.12 L 54.47 10.95 L 46.11 20.12 L 50.19 20.12 C 50.87 20.12 51.41 20.67 51.41 21.35 L 51.41 28.67 L 51.41 33.56 L 51.41 38.44 L 56.3 38.44 C 56.77 38.44 57.21 38.72 57.41 39.15 C 57.61 39.58 57.54 40.09 57.23 40.45 L 46.91 52.67 C 46.68 52.94 46.34 53.1 45.98 53.1 L 45.97 53.1 C 45.62 53.1 45.28 52.94 45.05 52.67 L 34.61 40.46 C 34.3 40.1 34.23 39.59 34.43 39.15 C 34.63 38.72 35.06 38.44 35.53 38.44 L 40.42 38.44 L 40.42 28.67 L 42.86 28.67 L 42.86 39.67 C 42.86 40.34 42.32 40.89 41.64 40.89 L 38.19 40.89 L 45.97 49.99 L 53.67 40.89 L 50.19 40.89 C 49.52 40.89 48.97 40.34 48.97 39.67 L 48.97 33.56 L 48.97 28.67 L 48.97 22.57 L 43.35 22.57 C 42.87 22.57 42.43 22.28 42.24 21.84 C 42.04 21.4 42.12 20.88 42.45 20.52 L 53.56 8.31 C 54.03 7.8 54.91 7.8 55.37 8.31 L 66.48 20.52 C 66.81 20.88 66.89 21.4 66.7 21.84" fill="#ffffff" stroke="none" pointer-events="all"/></g></svg>