<?xml version="1.0" encoding="UTF-8"?>
<!DOCTYPE svg PUBLIC "-//W3C//DTD SVG 1.1//EN" "http://www.w3.org/Graphics/SVG/1.1/DTD/svg11.dtd">
<svg xmlns="http://www.w3.org/2000/svg" xmlns:xlink="http://www.w3.org/1999/xlink" version="1.1" width="79px" height="79px" viewBox="-0.5 -0.5 79 79" style="background-color: rgb(255, 255, 255);"><defs><style type="text/css">@import url(https://fonts.googleapis.com/css?family=Gloria+Hallelujah);&#xa;@import url(https://fonts.googleapis.com/css?family=Architects+Daughter);&#xa;</style></defs><g><path d="M 0 0 L 78 0 L 78 78 L 0 78 Z" fill="#ffffff" stroke="none" pointer-events="all"/><path d="M 15.6 63.51 L 17.83 63.51 C 17.83 57.96 19.72 51.81 33.45 48.03 L 33.45 45.73 C 17.66 49.91 15.6 57.41 15.6 63.51 Z M 22.29 70.2 L 24.51 70.2 C 24.51 65.07 24.53 58.76 33.45 54.36 L 33.45 51.89 C 22.29 56.89 22.29 64.56 22.29 70.2 Z M 66.86 46.8 L 37.89 46.8 L 37.89 67.97 L 40.11 67.97 L 40.11 57.94 C 40.11 57.33 40.61 56.83 41.23 56.83 L 45.69 56.83 C 46.3 56.83 46.8 57.33 46.8 57.94 L 46.8 67.97 L 49.03 67.97 L 49.03 54.6 C 49.03 53.98 49.53 53.49 50.14 53.49 L 54.6 53.49 C 55.22 53.49 55.71 53.98 55.71 54.6 L 55.71 67.97 L 57.94 67.97 L 57.94 51.26 C 57.94 50.64 58.44 50.14 59.06 50.14 L 63.51 50.14 C 64.13 50.14 64.63 50.64 64.63 51.26 L 64.63 67.97 L 66.86 67.97 Z M 60.17 67.97 L 62.4 67.97 L 62.4 52.37 L 60.17 52.37 Z M 51.26 67.97 L 53.49 67.97 L 53.49 55.71 L 51.26 55.71 Z M 42.34 67.97 L 44.57 67.97 L 44.57 59.06 L 42.34 59.06 Z M 69.09 45.69 L 69.09 69.09 C 69.09 69.7 68.59 70.2 67.97 70.2 L 36.77 70.2 C 36.16 70.2 35.66 69.7 35.66 69.09 L 35.66 45.69 C 35.66 45.07 36.16 44.57 36.77 44.57 L 67.97 44.57 C 68.59 44.57 69.09 45.07 69.09 45.69 Z M 11.14 23.4 L 8.91 23.4 C 8.91 31.64 20.1 36.86 42.22 39 C 20.1 41.14 8.91 46.36 8.91 54.6 L 11.14 54.6 C 11.14 49.19 18.67 40.11 69.09 40.11 L 69.09 37.89 C 18.67 37.89 11.14 28.81 11.14 23.4 Z M 17.83 14.49 L 15.6 14.49 C 15.6 24.96 21.95 35.66 69.09 35.66 L 69.09 33.43 C 23.92 33.43 17.83 23.85 17.83 14.49 Z M 69.09 28.97 L 69.09 31.2 C 48.65 31.2 35.35 28.57 28.43 23.16 C 22.29 18.37 22.29 12.26 22.29 7.8 L 24.51 7.8 C 24.51 16.23 24.51 28.97 69.09 28.97 Z" fill="#4d27aa" stroke="none" pointer-events="all"/></g></svg>