<?xml version="1.0" encoding="UTF-8"?>
<!DOCTYPE svg PUBLIC "-//W3C//DTD SVG 1.1//EN" "http://www.w3.org/Graphics/SVG/1.1/DTD/svg11.dtd">
<svg xmlns="http://www.w3.org/2000/svg" xmlns:xlink="http://www.w3.org/1999/xlink" version="1.1" width="73px" height="79px" viewBox="-0.5 -0.5 73 79" style="background-color: rgb(255, 255, 255);"><defs><style type="text/css">@import url(https://fonts.googleapis.com/css?family=Gloria+Hallelujah);&#xa;@import url(https://fonts.googleapis.com/css?family=Architects+Daughter);&#xa;</style></defs><g><rect x="0" y="0" width="72" height="78" fill="none" stroke="none" pointer-events="all"/><path d="M 12.95 78 L 71.45 78 L 71.45 0 L 12.95 0 Z M 16.5 74.45 L 16.5 3.55 L 67.91 3.55 L 67.91 74.45 Z M 21.82 10.64 L 64.36 10.64 L 64.36 7.09 L 21.82 7.09 Z M 21.82 17.73 L 64.36 17.73 L 64.36 14.18 L 21.82 14.18 Z M 21.82 63.82 L 64.36 63.82 L 64.36 60.27 L 21.82 60.27 Z M 21.82 70.91 L 64.36 70.91 L 64.36 67.36 L 21.82 67.36 Z M 0.55 0 L 9.41 0 L 9.41 3.55 L 4.09 3.55 L 4.09 74.45 L 9.41 74.45 L 9.41 78 L 0.55 78 Z M 48.41 58.5 L 48.41 50.05 L 60.18 26.51 C 60.58 26.01 60.82 25.45 60.82 24.82 C 60.82 19.88 47.25 19.5 43.09 19.5 C 38.93 19.5 25.36 19.88 25.36 24.82 C 25.36 25.45 25.6 26.01 26 26.51 L 37.77 50.05 L 37.77 58.5 Z M 43.09 23.05 C 50.09 23.05 54.74 24.04 56.59 24.82 C 54.74 25.6 50.09 26.59 43.09 26.59 C 36.09 26.59 31.44 25.6 29.59 24.82 C 31.44 24.04 36.09 23.05 43.09 23.05 Z M 31.22 29.03 C 35.43 30.02 40.75 30.14 43.09 30.14 C 45.43 30.14 50.75 30.02 54.96 29.03 L 44.86 49.22 L 44.86 54.95 L 41.32 54.95 L 41.32 49.22 Z" fill="#4d27aa" stroke="none" pointer-events="all"/></g></svg>