<?xml version="1.0" encoding="UTF-8"?>
<!DOCTYPE svg PUBLIC "-//W3C//DTD SVG 1.1//EN" "http://www.w3.org/Graphics/SVG/1.1/DTD/svg11.dtd">
<svg xmlns="http://www.w3.org/2000/svg" xmlns:xlink="http://www.w3.org/1999/xlink" version="1.1" width="79px" height="79px" viewBox="-0.5 -0.5 79 79" style="background-color: rgb(255, 255, 255);"><defs><style type="text/css">@import url(https://fonts.googleapis.com/css?family=Gloria+Hallelujah);&#xa;@import url(https://fonts.googleapis.com/css?family=Architects+Daughter);&#xa;</style></defs><g><rect x="0" y="0" width="78" height="78" fill="none" stroke="none" pointer-events="all"/><path d="M 76.23 0 L 1.77 0 C 0.79 0 0 0.79 0 1.77 L 0 51.41 C 0 52.39 0.79 53.18 1.77 53.18 L 31.91 53.18 L 31.91 49.64 L 26.59 49.64 L 26.59 40.77 L 35.45 40.77 L 35.45 37.23 L 26.59 37.23 L 26.59 26.59 L 74.45 26.59 L 74.45 33.68 L 78 33.68 L 78 1.77 C 78 0.79 77.21 0 76.23 0 Z M 12.41 10.64 L 12.41 3.55 L 74.45 3.55 L 74.45 10.64 Z M 12.41 23.05 L 12.41 14.18 L 23.05 14.18 L 23.05 23.05 Z M 3.55 10.64 L 3.55 3.55 L 8.86 3.55 L 8.86 10.64 Z M 3.55 49.64 L 3.55 14.18 L 8.86 14.18 L 8.86 49.64 Z M 12.41 49.64 L 12.41 40.77 L 23.05 40.77 L 23.05 49.64 Z M 12.41 37.23 L 12.41 26.59 L 23.05 26.59 L 23.05 37.23 Z M 26.59 23.05 L 26.59 14.18 L 74.45 14.18 L 74.45 23.05 Z M 78 49.64 L 74.45 49.64 C 74.45 53.03 72.42 54.91 70.76 55.88 C 70.44 52.79 69.56 50.31 68.29 48.38 C 70.19 47.01 72.68 44.22 72.68 39 L 69.14 39 C 69.14 43.05 67.12 44.93 65.91 45.71 C 65.25 45.15 64.55 44.68 63.81 44.28 C 63.81 42.48 63.37 40.82 62.63 39.42 C 63.52 38.57 64.57 37.21 65.15 35.19 C 66.44 34.67 67.36 33.39 67.36 31.91 C 67.36 29.96 65.77 28.36 63.82 28.36 C 61.86 28.36 60.27 29.96 60.27 31.91 C 60.27 33.02 60.79 33.99 61.59 34.64 C 61.24 35.6 60.75 36.29 60.33 36.73 C 59.27 35.94 58.05 35.45 56.73 35.45 C 55.41 35.45 54.19 35.94 53.13 36.73 C 52.7 36.29 52.21 35.6 51.87 34.64 C 52.66 33.99 53.18 33.02 53.18 31.91 C 53.18 29.96 51.59 28.36 49.64 28.36 C 47.68 28.36 46.09 29.96 46.09 31.91 C 46.09 33.39 47.01 34.67 48.31 35.19 C 48.89 37.21 49.93 38.57 50.82 39.42 C 50.08 40.82 49.65 42.48 49.64 44.28 C 48.9 44.68 48.2 45.16 47.53 45.72 C 46.33 44.94 44.32 43.05 44.32 39 L 40.77 39 C 40.77 44.22 43.26 47.01 45.17 48.38 C 43.9 50.31 43.01 52.79 42.69 55.88 C 41.04 54.91 39 53.03 39 49.64 L 35.45 49.64 C 35.45 55.44 39.59 58.58 42.59 59.79 C 42.69 61.88 43.03 63.87 43.57 65.73 C 41.64 66.25 35.45 68.28 35.45 72.68 L 39 72.68 C 39 71.3 42.4 69.68 44.75 69.08 L 44.64 68.65 C 47.14 74.25 51.61 78 56.73 78 C 61.84 78 66.32 74.25 68.81 68.65 L 68.71 69.08 C 71.05 69.68 74.45 71.3 74.45 72.68 L 78 72.68 C 78 68.28 71.81 66.25 69.89 65.73 C 70.43 63.87 70.76 61.88 70.86 59.79 C 73.86 58.58 78 55.44 78 49.64 Z M 67.36 58.5 C 67.36 61.27 66.89 63.87 66.06 66.14 L 58.5 61.1 L 58.5 46.22 C 64.15 46.96 67.36 51.34 67.36 58.5 Z M 56.73 39 C 58.32 39 59.7 40.69 60.13 42.92 C 59 42.67 57.86 42.55 56.73 42.55 C 55.59 42.55 54.45 42.67 53.33 42.92 C 53.75 40.69 55.13 39 56.73 39 Z M 54.95 46.22 L 54.95 61.1 L 47.39 66.14 C 46.56 63.87 46.09 61.27 46.09 58.5 C 46.09 51.34 49.3 46.96 54.95 46.22 Z M 56.73 74.45 C 53.66 74.45 50.9 72.49 48.95 69.36 L 56.73 64.18 L 64.5 69.36 C 62.56 72.49 59.79 74.45 56.73 74.45 Z" fill="#4d27aa" stroke="none" pointer-events="all"/></g></svg>