<?xml version="1.0" encoding="UTF-8"?>
<!DOCTYPE svg PUBLIC "-//W3C//DTD SVG 1.1//EN" "http://www.w3.org/Graphics/SVG/1.1/DTD/svg11.dtd">
<svg xmlns="http://www.w3.org/2000/svg" xmlns:xlink="http://www.w3.org/1999/xlink" version="1.1" width="79px" height="79px" viewBox="-0.5 -0.5 79 79" style="background-color: rgb(255, 255, 255);"><defs><linearGradient x1="0%" y1="100%" x2="0%" y2="0%" id="mx-gradient-945df2-1-5a30b5-1-s-0"><stop offset="0%" style="stop-color: rgb(90, 48, 181); stop-opacity: 1;"/><stop offset="100%" style="stop-color: rgb(148, 93, 242); stop-opacity: 1;"/></linearGradient><style type="text/css">@import url(https://fonts.googleapis.com/css?family=Gloria+Hallelujah);&#xa;@import url(https://fonts.googleapis.com/css?family=Architects+Daughter);&#xa;</style></defs><g><path d="M 0 0 L 78 0 L 78 78 L 0 78 Z" fill="url(#mx-gradient-945df2-1-5a30b5-1-s-0)" stroke="none" pointer-events="all"/><path d="M 66.06 47.44 C 65.19 46.57 64.05 46.13 62.91 46.13 C 61.77 46.13 60.63 46.57 59.76 47.44 C 58.92 48.28 58.46 49.4 58.46 50.59 C 58.46 51.78 58.92 52.9 59.76 53.74 C 61.5 55.48 64.32 55.48 66.06 53.74 C 67.79 52 67.79 49.17 66.06 47.44 Z M 56.7 48.23 C 57.02 47.39 57.5 46.61 58.15 45.95 L 55.79 41.45 L 52.84 47.01 Z M 49.67 48.31 L 36.72 44.22 C 36.03 45.99 34.97 47.65 33.54 49.08 C 33.36 49.26 33.17 49.42 32.98 49.59 L 38.69 57.52 C 39.77 56.81 41.04 56.42 42.36 56.42 C 43.31 56.42 44.23 56.63 45.08 57.01 Z M 46.81 63.07 C 46.81 61.88 46.35 60.77 45.51 59.92 C 44.67 59.08 43.55 58.62 42.36 58.62 C 41.17 58.62 40.05 59.08 39.21 59.92 C 38.37 60.77 37.91 61.88 37.91 63.07 C 37.91 64.27 38.37 65.38 39.21 66.23 C 40.05 67.07 41.17 67.53 42.36 67.53 C 43.55 67.53 44.67 67.07 45.51 66.23 C 46.35 65.38 46.81 64.27 46.81 63.07 Z M 31.99 47.53 C 36.7 42.82 36.7 35.15 31.99 30.44 C 29.64 28.08 26.55 26.9 23.45 26.9 C 20.36 26.9 17.27 28.08 14.92 30.44 C 10.21 35.15 10.21 42.82 14.92 47.53 C 19.62 52.24 27.28 52.24 31.99 47.53 Z M 32.97 28.36 C 33.16 28.53 33.36 28.7 33.54 28.88 C 34.91 30.25 35.94 31.84 36.64 33.53 L 49.54 29.55 L 45.06 21 C 44.22 21.38 43.3 21.58 42.36 21.58 C 41.03 21.58 39.76 21.19 38.68 20.47 Z M 37.91 14.93 C 37.91 16.12 38.37 17.23 39.21 18.08 C 40.05 18.92 41.17 19.38 42.36 19.38 C 43.55 19.38 44.67 18.92 45.51 18.08 C 46.35 17.23 46.81 16.12 46.81 14.93 C 46.81 13.73 46.35 12.62 45.51 11.77 C 44.67 10.93 43.55 10.47 42.36 10.47 C 41.17 10.47 40.05 10.93 39.21 11.77 C 38.37 12.62 37.91 13.73 37.91 14.93 Z M 37.36 42.11 L 50.72 46.34 L 54.55 39.09 L 50.58 31.52 L 37.3 35.63 C 37.82 37.76 37.84 39.98 37.36 42.11 Z M 52.71 30.86 L 55.79 36.73 L 58.68 31.27 C 58.53 31.14 58.36 31.03 58.21 30.88 C 57.79 30.46 57.44 29.99 57.15 29.49 Z M 58.46 26.18 C 58.46 27.37 58.92 28.48 59.76 29.33 C 61.5 31.07 64.32 31.07 66.06 29.33 C 67.79 27.59 67.79 24.76 66.06 23.02 C 65.19 22.16 64.05 21.72 62.91 21.72 C 61.77 21.72 60.63 22.16 59.76 23.02 C 58.92 23.87 58.46 24.99 58.46 26.18 Z M 67.61 45.88 C 70.2 48.48 70.2 52.7 67.61 55.29 C 66.31 56.59 64.61 57.24 62.91 57.24 C 61.21 57.24 59.5 56.59 58.21 55.29 C 56.95 54.04 56.26 52.37 56.26 50.59 C 56.26 50.53 56.27 50.46 56.27 50.4 L 51.8 48.99 L 46.91 58.23 C 46.96 58.28 47.01 58.32 47.06 58.37 C 48.31 59.63 49.01 61.3 49.01 63.07 C 49.01 64.85 48.31 66.52 47.06 67.78 C 45.8 69.04 44.13 69.73 42.36 69.73 C 40.58 69.73 38.91 69.04 37.66 67.78 C 36.4 66.52 35.71 64.85 35.71 63.07 C 35.71 61.6 36.2 60.19 37.08 59.04 L 31.25 50.94 C 28.89 52.49 26.17 53.26 23.45 53.26 C 19.8 53.26 16.14 51.87 13.36 49.08 C 7.8 43.52 7.8 34.45 13.36 28.88 C 18.21 24.03 25.7 23.41 31.23 27.01 L 37.07 18.94 C 36.19 17.79 35.71 16.4 35.71 14.93 C 35.71 13.15 36.4 11.48 37.66 10.22 C 38.91 8.96 40.58 8.27 42.36 8.27 C 44.13 8.27 45.8 8.96 47.06 10.22 C 48.31 11.48 49.01 13.15 49.01 14.93 C 49.01 16.7 48.31 18.37 47.06 19.63 C 47.01 19.68 46.95 19.73 46.89 19.78 L 51.67 28.88 L 56.38 27.43 C 56.3 27.02 56.26 26.6 56.26 26.18 C 56.26 24.4 56.95 22.73 58.21 21.47 C 60.8 18.88 65.02 18.88 67.61 21.47 C 70.2 24.06 70.2 28.29 67.61 30.88 C 66.31 32.18 64.61 32.83 62.91 32.83 C 62.12 32.83 61.33 32.67 60.57 32.39 L 57.03 39.09 L 59.95 44.66 C 62.44 43.42 65.54 43.81 67.61 45.88 Z M 24.55 37.88 L 30.04 37.88 L 30.04 40.08 L 24.55 40.08 L 24.55 45.58 L 22.35 45.58 L 22.35 40.08 L 16.87 40.08 L 16.87 37.88 L 22.35 37.88 L 22.35 32.39 L 24.55 32.39 Z" fill="#ffffff" stroke="none" pointer-events="all"/></g></svg>