<?xml version="1.0" encoding="UTF-8"?>
<!DOCTYPE svg PUBLIC "-//W3C//DTD SVG 1.1//EN" "http://www.w3.org/Graphics/SVG/1.1/DTD/svg11.dtd">
<svg xmlns="http://www.w3.org/2000/svg" xmlns:xlink="http://www.w3.org/1999/xlink" version="1.1" width="63px" height="79px" viewBox="-0.5 -0.5 63 79" style="background-color: rgb(255, 255, 255);"><defs><style type="text/css">@import url(https://fonts.googleapis.com/css?family=Gloria+Hallelujah);&#xa;@import url(https://fonts.googleapis.com/css?family=Architects+Daughter);&#xa;</style></defs><g><rect x="0" y="0" width="62" height="78" fill="none" stroke="none" pointer-events="all"/><path d="M 32.76 26.91 L 21.77 26.91 L 21.77 23.39 L 29.24 23.39 L 29.24 12.84 L 32.76 12.84 Z M 31 9.99 C 38.51 9.99 44.63 16.1 44.63 23.61 C 44.63 31.12 38.51 37.24 31 37.24 C 23.49 37.24 17.38 31.12 17.38 23.61 C 17.38 16.1 23.49 9.99 31 9.99 Z M 31 40.76 C 40.46 40.76 48.15 33.07 48.15 23.61 C 48.15 14.16 40.46 6.46 31 6.46 C 21.54 6.46 13.85 14.16 13.85 23.61 C 13.85 33.07 21.54 40.76 31 40.76 Z M 49.09 61.72 C 49.6 62.33 49.86 63.12 49.86 64.08 C 49.86 65.46 49.36 66.55 48.38 67.37 C 47.4 68.19 46.07 68.6 44.41 68.6 C 42.75 68.6 41.32 68.31 40.1 67.72 L 40.1 66 C 41.61 66.5 43.03 66.75 44.36 66.75 C 45.38 66.75 46.18 66.53 46.76 66.08 C 47.35 65.64 47.64 65.03 47.64 64.27 C 47.64 63.74 47.47 63.3 47.13 62.95 C 46.79 62.59 46.22 62.26 45.42 61.95 L 43.33 61.15 C 42.15 60.7 41.3 60.17 40.76 59.53 C 40.23 58.9 39.97 58.1 39.97 57.14 C 39.97 56.34 40.17 55.62 40.57 55 C 40.97 54.37 41.55 53.88 42.31 53.52 C 43.06 53.17 43.95 52.98 44.97 52.98 C 46.26 52.98 47.59 53.24 48.95 53.76 L 48.95 55.51 C 47.5 55.06 46.22 54.84 45.12 54.84 C 44.18 54.84 43.46 55.03 42.95 55.41 C 42.44 55.79 42.19 56.33 42.19 57.03 C 42.19 57.61 42.36 58.06 42.7 58.4 C 43.05 58.74 43.69 59.08 44.62 59.42 L 46.58 60.16 C 47.74 60.59 48.58 61.11 49.09 61.72 Z M 26.67 53.31 L 38.39 53.31 L 38.39 55.12 L 33.63 55.12 L 33.63 68.24 L 31.44 68.24 L 31.44 55.12 L 26.67 55.12 Z M 24.45 61.72 C 24.96 62.33 25.21 63.12 25.21 64.08 C 25.21 65.46 24.72 66.55 23.74 67.37 C 22.75 68.19 21.43 68.6 19.76 68.6 C 18.11 68.6 16.67 68.31 15.45 67.72 L 15.45 66 C 16.96 66.5 18.38 66.75 19.72 66.75 C 20.74 66.75 21.54 66.53 22.12 66.08 C 22.7 65.64 22.99 65.03 22.99 64.27 C 22.99 63.74 22.82 63.3 22.49 62.95 C 22.15 62.59 21.58 62.26 20.77 61.95 L 18.68 61.15 C 17.51 60.7 16.65 60.17 16.12 59.53 C 15.59 58.9 15.32 58.1 15.32 57.14 C 15.32 56.34 15.52 55.62 15.92 55 C 16.33 54.37 16.91 53.88 17.66 53.52 C 18.41 53.17 19.3 52.98 20.32 52.98 C 21.61 52.98 22.94 53.24 24.31 53.76 L 24.31 55.51 C 22.86 55.06 21.58 54.84 20.47 54.84 C 19.54 54.84 18.82 55.03 18.31 55.41 C 17.8 55.79 17.54 56.33 17.54 57.03 C 17.54 57.61 17.71 58.06 18.06 58.4 C 18.4 58.74 19.04 59.08 19.98 59.42 L 21.94 60.16 C 23.1 60.59 23.93 61.11 24.45 61.72 Z M 58.47 72.75 C 58.47 73.53 57.84 74.17 57.05 74.17 L 4.95 74.17 C 4.16 74.17 3.53 73.53 3.53 72.75 L 3.53 5.25 C 3.53 4.47 4.16 3.83 4.95 3.83 L 57.05 3.83 C 57.84 3.83 58.47 4.47 58.47 5.25 Z M 57.05 0.31 L 4.95 0.31 C 2.22 0.31 0 2.53 0 5.25 L 0 72.75 C 0 75.47 2.22 77.69 4.95 77.69 L 57.05 77.69 C 59.78 77.69 62 75.47 62 72.75 L 62 5.25 C 62 2.53 59.78 0.31 57.05 0.31 Z" fill="#bf0816" stroke="none" pointer-events="all"/></g></svg>