<?xml version="1.0" encoding="UTF-8"?>
<!DOCTYPE svg PUBLIC "-//W3C//DTD SVG 1.1//EN" "http://www.w3.org/Graphics/SVG/1.1/DTD/svg11.dtd">
<svg xmlns="http://www.w3.org/2000/svg" xmlns:xlink="http://www.w3.org/1999/xlink" version="1.1" width="79px" height="79px" viewBox="-0.5 -0.5 79 79" style="background-color: rgb(255, 255, 255);"><defs><style type="text/css">@import url(https://fonts.googleapis.com/css?family=Gloria+Hallelujah);&#xa;@import url(https://fonts.googleapis.com/css?family=Architects+Daughter);&#xa;</style></defs><g><path d="M 0 0 L 78 0 L 78 78 L 0 78 Z" fill="rgb(255, 255, 255)" stroke="none" pointer-events="all"/><path d="M 30.91 19.36 L 33.22 19.36 L 33.22 17.04 L 30.91 17.04 Z M 28.6 20.51 L 28.6 15.89 C 28.6 15.25 29.12 14.73 29.76 14.73 L 34.38 14.73 C 35.02 14.73 35.53 15.25 35.53 15.89 L 35.53 20.51 C 35.53 21.15 35.02 21.67 34.38 21.67 L 29.76 21.67 C 29.12 21.67 28.6 21.15 28.6 20.51 Z M 40.16 12.42 L 42.47 12.42 L 42.47 10.11 L 40.16 10.11 Z M 37.84 13.58 L 37.84 8.96 C 37.84 8.32 38.36 7.8 39 7.8 L 43.62 7.8 C 44.26 7.8 44.78 8.32 44.78 8.96 L 44.78 13.58 C 44.78 14.22 44.26 14.73 43.62 14.73 L 39 14.73 C 38.36 14.73 37.84 14.22 37.84 13.58 Z M 42.47 23.98 L 44.78 23.98 L 44.78 21.67 L 42.47 21.67 Z M 41.31 19.36 L 45.93 19.36 C 46.57 19.36 47.09 19.87 47.09 20.51 L 47.09 25.13 C 47.09 25.77 46.57 26.29 45.93 26.29 L 41.31 26.29 C 40.67 26.29 40.16 25.77 40.16 25.13 L 40.16 20.51 C 40.16 19.87 40.67 19.36 41.31 19.36 Z M 39 31.49 C 36.97 31.49 29.59 31.4 24.79 30.22 L 36.51 48.78 C 36.63 48.97 36.69 49.18 36.69 49.4 L 36.69 52.03 C 38.31 52.5 39.81 52.51 41.31 52.05 L 41.31 49.4 C 41.31 49.18 41.37 48.97 41.49 48.78 L 53.21 30.22 C 48.41 31.4 41.03 31.49 39 31.49 Z M 20.8 28.24 C 20.62 27.98 20.51 27.69 20.51 27.37 C 20.51 24.08 31.35 23.48 37.82 23.41 L 37.84 25.72 C 29.9 25.8 25.05 26.71 23.34 27.38 C 25.15 28.14 30.5 29.18 39 29.18 C 47.48 29.18 52.82 28.15 54.65 27.39 C 53.9 27.09 52.35 26.64 49.26 26.27 L 49.54 23.97 C 56.54 24.83 57.49 26.17 57.49 27.37 C 57.49 27.69 57.38 27.98 57.2 28.24 L 43.62 49.74 L 43.62 52.87 C 43.62 53.34 43.34 53.76 42.9 53.94 C 41.64 54.45 40.37 54.7 39.08 54.7 C 37.79 54.7 36.49 54.45 35.13 53.95 C 34.68 53.78 34.38 53.35 34.38 52.87 L 34.38 49.74 Z M 47 61.67 C 47.18 62.1 47.08 62.6 46.75 62.93 L 39.82 69.86 C 39.59 70.09 39.3 70.2 39 70.2 C 38.7 70.2 38.41 70.09 38.18 69.86 L 31.25 62.93 C 30.92 62.6 30.82 62.1 31 61.67 C 31.18 61.24 31.6 60.96 32.07 60.96 L 35.53 60.96 L 35.53 57.49 L 37.84 57.49 L 37.84 62.11 C 37.84 62.75 37.33 63.27 36.69 63.27 L 34.86 63.27 L 39 67.41 L 43.14 63.27 L 41.31 63.27 C 40.67 63.27 40.16 62.75 40.16 62.11 L 40.16 57.49 L 42.47 57.49 L 42.47 60.96 L 45.93 60.96 C 46.4 60.96 46.82 61.24 47 61.67 Z" fill="#4d27aa" stroke="none" pointer-events="all"/></g></svg>