<?xml version="1.0" encoding="UTF-8"?>
<!DOCTYPE svg PUBLIC "-//W3C//DTD SVG 1.1//EN" "http://www.w3.org/Graphics/SVG/1.1/DTD/svg11.dtd">
<svg xmlns="http://www.w3.org/2000/svg" xmlns:xlink="http://www.w3.org/1999/xlink" version="1.1" width="79px" height="79px" viewBox="-0.5 -0.5 79 79" style="background-color: rgb(255, 255, 255);"><defs><linearGradient x1="0%" y1="100%" x2="0%" y2="0%" id="mx-gradient-f54749-1-c7131f-1-s-0"><stop offset="0%" style="stop-color: rgb(199, 19, 31); stop-opacity: 1;"/><stop offset="100%" style="stop-color: rgb(245, 71, 73); stop-opacity: 1;"/></linearGradient><style type="text/css">@import url(https://fonts.googleapis.com/css?family=Gloria+Hallelujah);&#xa;@import url(https://fonts.googleapis.com/css?family=Architects+Daughter);&#xa;</style></defs><g><path d="M 0 0 L 78 0 L 78 78 L 0 78 Z" fill="url(#mx-gradient-f54749-1-c7131f-1-s-0)" stroke="none" pointer-events="all"/><path d="M 53.4 53.74 L 61.8 53.74 L 61.8 51.34 L 53.4 51.34 Z M 42.6 53.74 L 51 53.74 L 51 51.34 L 42.6 51.34 Z M 31.8 53.74 L 40.2 53.74 L 40.2 51.34 L 31.8 51.34 Z M 45 44.14 C 45 42.81 46.08 41.74 47.4 41.74 C 48.72 41.74 49.8 42.81 49.8 44.14 C 49.8 45.46 48.72 46.54 47.4 46.54 C 46.08 46.54 45 45.46 45 44.14 Z M 52.2 44.14 C 52.2 41.49 50.05 39.34 47.4 39.34 C 44.75 39.34 42.6 41.49 42.6 44.14 C 42.6 46.78 44.75 48.94 47.4 48.94 C 50.05 48.94 52.2 46.78 52.2 44.14 Z M 35.4 41.74 C 36.72 41.74 37.8 42.81 37.8 44.14 C 37.8 45.46 36.72 46.54 35.4 46.54 C 34.07 46.54 33 45.46 33 44.14 C 33 42.81 34.07 41.74 35.4 41.74 Z M 35.4 48.94 C 38.05 48.94 40.2 46.78 40.2 44.14 C 40.2 41.49 38.05 39.34 35.4 39.34 C 32.75 39.34 30.6 41.49 30.6 44.14 C 30.6 46.78 32.75 48.94 35.4 48.94 Z M 70.2 30.94 L 70.2 58.54 C 70.2 59.2 69.66 59.74 69 59.74 L 31.8 59.74 L 31.8 57.34 L 67.8 57.34 L 67.8 32.14 L 41.4 32.14 L 41.4 29.74 L 69 29.74 C 69.66 29.74 70.2 30.27 70.2 30.94 Z M 27.84 36.99 C 27.34 37.15 27 37.61 27 38.14 L 27 63.39 L 24.12 65.85 L 21 62.29 L 21 59.14 C 21 58.82 20.87 58.51 20.64 58.29 L 17.89 55.54 L 20.64 52.79 C 20.87 52.56 21 52.26 21 51.94 L 21 49.54 C 21 49.22 20.87 48.91 20.64 48.69 L 17.89 45.94 L 20.64 43.18 C 20.87 42.96 21 42.65 21 42.34 L 21 38.15 C 21 37.62 20.66 37.16 20.16 37 C 13.99 35.05 10.34 28.7 11.68 22.24 C 12.64 17.58 16.22 13.85 20.8 12.73 C 24.7 11.77 28.69 12.61 31.77 15.01 C 34.84 17.42 36.6 21.04 36.6 24.93 C 36.6 30.4 32.99 35.36 27.84 36.99 Z M 39 24.93 C 39 20.3 36.9 15.99 33.25 13.13 C 29.59 10.26 24.85 9.26 20.23 10.4 C 14.75 11.74 10.47 16.19 9.32 21.75 L 9.32 21.75 C 7.8 29.13 11.76 36.38 18.6 39 L 18.6 41.84 L 15.35 45.09 C 14.88 45.56 14.88 46.32 15.35 46.78 L 18.6 50.03 L 18.6 51.44 L 15.35 54.69 C 14.88 55.16 14.88 55.92 15.35 56.39 L 18.6 59.63 L 18.6 62.74 C 18.6 63.03 18.7 63.31 18.89 63.53 L 23.09 68.33 C 23.33 68.6 23.66 68.74 24 68.74 C 24.27 68.74 24.55 68.64 24.78 68.45 L 28.98 64.85 C 29.24 64.62 29.4 64.29 29.4 63.94 L 29.4 38.99 C 35.09 36.79 39 31.13 39 24.93 Z M 24 27.78 C 22.34 27.78 21 26.43 21 24.78 C 21 23.13 22.34 21.78 24 21.78 C 25.65 21.78 27 23.13 27 24.78 C 27 26.43 25.65 27.78 24 27.78 Z M 24 19.38 C 21.02 19.38 18.6 21.8 18.6 24.78 C 18.6 27.76 21.02 30.18 24 30.18 C 26.98 30.18 29.4 27.76 29.4 24.78 C 29.4 21.8 26.98 19.38 24 19.38 Z" fill="#ffffff" stroke="none" pointer-events="all"/></g></svg>