<?xml version="1.0" encoding="UTF-8"?>
<!DOCTYPE svg PUBLIC "-//W3C//DTD SVG 1.1//EN" "http://www.w3.org/Graphics/SVG/1.1/DTD/svg11.dtd">
<svg xmlns="http://www.w3.org/2000/svg" xmlns:xlink="http://www.w3.org/1999/xlink" version="1.1" width="79px" height="78px" viewBox="-0.5 -0.5 79 78" style="background-color: rgb(255, 255, 255);"><defs><style type="text/css">@import url(https://fonts.googleapis.com/css?family=Gloria+Hallelujah);&#xa;@import url(https://fonts.googleapis.com/css?family=Architects+Daughter);&#xa;</style></defs><g><rect x="0" y="0" width="78" height="77" fill="none" stroke="none" pointer-events="all"/><path d="M 47.93 63.11 L 49.87 64.92 L 39 76.61 L 28.12 64.92 L 30.07 63.11 L 37.23 70.8 L 37.23 43.11 L 10.57 29.44 L 14.15 39.31 L 11.65 40.22 L 6.21 25.2 L 21.57 20.87 L 22.3 23.43 L 12.18 26.28 L 39 40.04 L 65.81 26.28 L 55.7 23.43 L 56.43 20.87 L 71.8 25.21 L 66.35 40.22 L 63.85 39.32 L 67.44 29.43 L 40.77 43.11 L 40.77 70.8 Z M 70.02 62.43 C 67.58 62.43 65.59 60.44 65.59 58 C 65.59 55.56 67.58 53.57 70.02 53.57 C 72.47 53.57 74.45 55.56 74.45 58 C 74.45 60.44 72.47 62.43 70.02 62.43 Z M 70.02 50.02 C 69.11 50.02 68.24 50.21 67.43 50.49 L 59.34 37.56 L 56.33 39.44 L 64.4 52.35 C 63.35 53.39 62.6 54.73 62.26 56.22 L 44.32 56.22 L 44.32 59.76 L 62.26 59.76 C 63.06 63.31 66.23 65.98 70.02 65.98 C 74.42 65.98 78 62.4 78 58 C 78 53.6 74.42 50.02 70.02 50.02 Z M 7.98 62.43 C 5.53 62.43 3.55 60.44 3.55 58 C 3.55 55.56 5.53 53.57 7.98 53.57 C 10.42 53.57 12.41 55.56 12.41 58 C 12.41 60.44 10.42 62.43 7.98 62.43 Z M 33.68 59.76 L 33.68 56.22 L 15.74 56.22 C 15.39 54.73 14.65 53.39 13.6 52.35 L 21.67 39.44 L 18.66 37.56 L 10.57 50.49 C 9.76 50.21 8.89 50.02 7.98 50.02 C 3.58 50.02 0 53.6 0 58 C 0 62.4 3.58 65.98 7.98 65.98 C 11.77 65.98 14.94 63.31 15.74 59.76 Z M 39 3.93 C 41.44 3.93 43.43 5.92 43.43 8.36 C 43.43 10.81 41.44 12.8 39 12.8 C 36.56 12.8 34.57 10.81 34.57 8.36 C 34.57 5.92 36.56 3.93 39 3.93 Z M 27.39 30.28 L 36.4 15.87 C 37.22 16.15 38.09 16.34 39 16.34 C 39.91 16.34 40.78 16.15 41.6 15.87 L 50.61 30.28 L 53.61 28.4 L 44.62 14.02 C 46.13 12.52 46.98 10.49 46.98 8.36 C 46.98 3.97 43.4 0.39 39 0.39 C 34.6 0.39 31.02 3.97 31.02 8.36 C 31.02 10.57 31.93 12.57 33.38 14.02 L 24.39 28.4 Z" fill="#4d27aa" stroke="none" pointer-events="all"/></g></svg>