<?xml version="1.0" encoding="UTF-8"?>
<!DOCTYPE svg PUBLIC "-//W3C//DTD SVG 1.1//EN" "http://www.w3.org/Graphics/SVG/1.1/DTD/svg11.dtd">
<svg xmlns="http://www.w3.org/2000/svg" xmlns:xlink="http://www.w3.org/1999/xlink" version="1.1" width="79px" height="79px" viewBox="-0.5 -0.5 79 79" style="background-color: rgb(255, 255, 255);"><defs><style type="text/css">@import url(https://fonts.googleapis.com/css?family=Gloria+Hallelujah);&#xa;@import url(https://fonts.googleapis.com/css?family=Architects+Daughter);&#xa;</style></defs><g><rect x="0" y="0" width="78" height="78" fill="none" stroke="none" pointer-events="all"/><path d="M 78 51.77 L 78 55.31 C 77.67 55.5 77.08 56.97 76.76 57.75 C 75.92 59.83 74.87 62.4 72.23 62.4 C 69.59 62.4 68.54 59.83 67.7 57.75 C 67.38 56.97 66.79 55.5 66.4 55.3 C 66.14 55.5 65.54 56.97 65.22 57.75 C 64.38 59.83 63.33 62.4 60.7 62.4 C 58.07 62.4 57.02 59.83 56.17 57.75 C 55.86 56.97 55.26 55.5 54.88 55.3 C 54.62 55.5 54.02 56.97 53.7 57.75 C 52.86 59.83 51.81 62.4 49.18 62.4 C 46.55 62.4 45.5 59.83 44.66 57.75 C 44.34 56.97 43.75 55.5 43.37 55.3 C 43.1 55.5 42.51 56.97 42.19 57.75 C 41.35 59.83 40.3 62.4 37.67 62.4 C 35.04 62.4 33.99 59.83 33.15 57.75 C 32.83 56.97 32.24 55.5 31.85 55.3 L 31.91 51.77 C 34.54 51.77 35.59 54.35 36.43 56.42 C 36.75 57.21 37.34 58.67 37.73 58.87 C 37.99 58.67 38.59 57.21 38.9 56.42 C 39.75 54.35 40.8 51.77 43.43 51.77 C 46.06 51.77 47.1 54.35 47.95 56.42 C 48.27 57.21 48.86 58.67 49.24 58.87 C 49.51 58.67 50.1 57.2 50.42 56.42 C 51.26 54.35 52.31 51.77 54.94 51.77 C 57.57 51.77 58.62 54.35 59.46 56.42 C 59.78 57.2 60.37 58.67 60.76 58.87 C 61.02 58.67 61.62 57.2 61.94 56.42 C 62.78 54.35 63.83 51.77 66.46 51.77 C 69.1 51.77 70.14 54.35 70.99 56.42 C 71.31 57.2 71.9 58.67 72.29 58.87 C 72.56 58.67 73.16 57.2 73.47 56.42 C 74.32 54.35 75.37 51.77 78 51.77 Z M 78 39.36 L 78 42.9 C 77.67 43.09 77.08 44.56 76.76 45.34 C 75.92 47.42 74.87 50 72.23 50 C 69.59 50 68.54 47.42 67.7 45.34 C 67.38 44.56 66.79 43.09 66.4 42.89 C 66.14 43.1 65.54 44.56 65.22 45.34 C 64.38 47.42 63.33 50 60.7 50 C 58.07 50 57.02 47.42 56.17 45.34 C 55.86 44.56 55.26 43.1 54.88 42.89 C 54.62 43.1 54.02 44.56 53.7 45.34 C 52.86 47.42 51.81 50 49.18 50 C 46.55 50 45.5 47.42 44.66 45.34 C 44.34 44.56 43.75 43.1 43.37 42.89 C 43.1 43.1 42.51 44.56 42.19 45.35 C 41.35 47.42 40.3 50 37.67 50 C 35.04 50 33.99 47.42 33.15 45.35 C 32.83 44.56 32.24 43.1 31.85 42.89 L 31.91 39.36 C 34.54 39.36 35.59 41.94 36.43 44.01 C 36.75 44.8 37.34 46.26 37.73 46.47 C 37.99 46.26 38.59 44.8 38.9 44.01 C 39.75 41.94 40.8 39.36 43.43 39.36 C 46.06 39.36 47.1 41.94 47.95 44.01 C 48.27 44.8 48.86 46.26 49.24 46.47 C 49.51 46.26 50.1 44.79 50.42 44.01 C 51.26 41.94 52.31 39.36 54.94 39.36 C 57.57 39.36 58.62 41.94 59.46 44.01 C 59.78 44.79 60.37 46.26 60.76 46.46 C 61.02 46.26 61.62 44.79 61.94 44.01 C 62.78 41.94 63.83 39.36 66.46 39.36 C 69.1 39.36 70.14 41.94 70.99 44.01 C 71.31 44.79 71.9 46.26 72.29 46.46 C 72.56 46.26 73.16 44.79 73.47 44.01 C 74.32 41.94 75.37 39.36 78 39.36 Z M 78 25.18 L 78 28.72 C 77.67 28.91 77.08 30.38 76.76 31.16 C 75.92 33.23 74.87 35.81 72.23 35.81 C 69.59 35.81 68.54 33.23 67.7 31.16 C 67.38 30.38 66.79 28.91 66.4 28.71 C 66.14 28.91 65.54 30.38 65.22 31.16 C 64.38 33.23 63.33 35.81 60.7 35.81 C 58.07 35.81 57.02 33.23 56.17 31.16 C 55.86 30.38 55.26 28.91 54.88 28.71 C 54.62 28.91 54.02 30.38 53.7 31.16 C 52.86 33.23 51.81 35.81 49.18 35.81 C 46.55 35.81 45.5 33.23 44.66 31.16 C 44.34 30.38 43.75 28.91 43.37 28.71 C 43.1 28.91 42.51 30.38 42.19 31.16 C 41.35 33.24 40.3 35.81 37.67 35.81 C 35.04 35.81 33.99 33.24 33.15 31.16 C 32.83 30.38 32.24 28.91 31.85 28.71 L 31.91 25.18 C 34.54 25.18 35.59 27.76 36.43 29.83 C 36.75 30.61 37.34 32.08 37.73 32.28 C 37.99 32.08 38.59 30.61 38.9 29.83 C 39.75 27.76 40.8 25.18 43.43 25.18 C 46.06 25.18 47.1 27.76 47.95 29.83 C 48.27 30.61 48.86 32.08 49.24 32.28 C 49.51 32.08 50.1 30.61 50.42 29.83 C 51.26 27.75 52.31 25.18 54.94 25.18 C 57.57 25.18 58.62 27.75 59.46 29.83 C 59.78 30.61 60.37 32.08 60.76 32.28 C 61.02 32.08 61.62 30.61 61.94 29.83 C 62.78 27.76 63.83 25.18 66.46 25.18 C 69.1 25.18 70.14 27.75 70.99 29.83 C 71.31 30.61 71.9 32.08 72.29 32.28 C 72.56 32.08 73.16 30.61 73.47 29.83 C 74.32 27.75 75.37 25.18 78 25.18 Z M 25.06 3.9 C 38.5 3.9 47.86 7.74 47.86 11.19 C 47.86 14.63 38.5 18.47 25.06 18.47 C 11.77 18.47 3.55 14.69 3.55 11.19 C 3.55 7.68 11.77 3.9 25.06 3.9 Z M 47.86 66.81 C 47.86 70.26 38.5 74.1 25.06 74.1 C 11.59 74.1 3.55 70.39 3.55 66.81 L 3.55 54.67 C 7.73 57.7 15.35 59.53 25.06 59.53 L 25.06 55.98 C 11.59 55.98 3.55 52.31 3.55 48.75 L 3.55 36.54 C 7.73 39.59 15.35 41.42 25.06 41.42 L 25.06 37.87 C 11.77 37.87 3.55 34.09 3.55 30.59 L 3.55 17.13 C 7.73 20.18 15.35 22.01 25.06 22.01 C 34.02 22.01 43.05 20.27 47.86 16.89 L 47.86 23.4 L 51.41 23.4 L 51.41 11 L 51.39 11 C 51.15 4.01 38.03 0.36 25.06 0.36 C 10.22 0.36 0.22 4.63 0.02 11 L 0 11 L 0 66.81 C 0 73.29 10.07 77.64 25.06 77.64 C 37.75 77.64 51.41 74.25 51.41 66.81 L 51.41 64.18 L 47.86 64.18 Z" fill="#4d27aa" stroke="none" pointer-events="all"/></g></svg>