<?xml version="1.0" encoding="UTF-8"?>
<!DOCTYPE svg PUBLIC "-//W3C//DTD SVG 1.1//EN" "http://www.w3.org/Graphics/SVG/1.1/DTD/svg11.dtd">
<svg xmlns="http://www.w3.org/2000/svg" xmlns:xlink="http://www.w3.org/1999/xlink" version="1.1" width="79px" height="79px" viewBox="-0.5 -0.5 79 79" style="background-color: rgb(255, 255, 255);"><defs><style type="text/css">@import url(https://fonts.googleapis.com/css?family=Gloria+Hallelujah);&#xa;@import url(https://fonts.googleapis.com/css?family=Architects+Daughter);&#xa;</style></defs><g><path d="M 0 0 L 78 0 L 78 78 L 0 78 Z" fill="#ffffff" stroke="none" pointer-events="all"/><path d="M 70.2 43.76 L 69.32 45.97 C 65.53 44.45 60.9 43.68 55.57 43.68 L 55.57 41.31 C 61.21 41.31 66.13 42.13 70.2 43.76 Z M 69.39 42.43 C 65.94 41.29 58.97 40.12 55.57 40.12 L 55.57 37.75 C 59.01 37.75 65.95 36.59 69.33 35.44 L 70.09 37.69 C 68.79 38.13 67.04 38.56 65.16 38.94 C 67.06 39.32 68.84 39.75 70.13 40.18 Z M 70.18 34.12 C 65.94 35.74 61.02 36.57 55.57 36.57 L 55.57 34.19 C 60.73 34.19 65.36 33.42 69.34 31.9 Z M 50.79 42.75 L 38.93 45.72 L 38.93 32.16 L 50.79 35.12 Z M 36.56 48.42 L 33 48.42 L 33 29.45 L 36.56 29.45 L 36.56 30.64 L 36.56 47.24 Z M 52.26 33.04 L 38.93 29.71 L 38.93 28.26 C 38.93 27.61 38.4 27.08 37.75 27.08 L 31.82 27.08 C 31.16 27.08 30.63 27.61 30.63 28.26 L 30.63 29.37 C 12.61 28.05 10.47 20.7 10.47 15.22 L 10.47 9.29 L 8.1 9.29 L 8.1 15.22 C 8.1 25.26 15.49 30.66 30.63 31.74 L 30.63 32.96 C 21.43 32.6 14.82 31.14 9.92 28.42 L 8.76 30.49 C 14.02 33.41 20.99 34.96 30.63 35.34 L 30.63 37.72 C 23.93 37.57 14.86 37.12 8.4 35.42 L 7.8 37.71 C 9.74 38.22 11.89 38.62 14.13 38.94 C 11.89 39.25 9.74 39.65 7.8 40.16 L 8.4 42.45 C 14.86 40.75 23.94 40.31 30.63 40.15 L 30.63 42.54 C 21.05 42.91 14.07 44.46 8.77 47.39 L 9.91 49.46 C 14.86 46.73 21.49 45.29 30.63 44.92 L 30.63 46.13 C 11.07 47.57 8.1 57.79 8.1 63.84 L 8.1 64.3 C 8.08 68.12 8.09 68.55 8.11 68.71 L 10.47 68.49 C 10.46 68.27 10.46 66.87 10.47 64.32 L 10.47 63.84 C 10.47 54.8 17.45 49.53 30.63 48.52 L 30.63 49.61 C 30.63 50.26 31.16 50.79 31.82 50.79 L 37.75 50.79 C 38.4 50.79 38.93 50.26 38.93 49.61 L 38.93 48.16 L 52.26 44.83 C 52.79 44.7 53.16 44.22 53.16 43.68 L 53.16 34.19 C 53.16 33.65 52.79 33.18 52.26 33.04 Z" fill="#4d27aa" stroke="none" pointer-events="all"/></g></svg>