<?xml version="1.0" encoding="UTF-8"?>
<!DOCTYPE svg PUBLIC "-//W3C//DTD SVG 1.1//EN" "http://www.w3.org/Graphics/SVG/1.1/DTD/svg11.dtd">
<svg xmlns="http://www.w3.org/2000/svg" xmlns:xlink="http://www.w3.org/1999/xlink" version="1.1" width="79px" height="79px" viewBox="-0.5 -0.5 79 79" style="background-color: rgb(255, 255, 255);"><defs><style type="text/css">@import url(https://fonts.googleapis.com/css?family=Gloria+Hallelujah);&#xa;@import url(https://fonts.googleapis.com/css?family=Architects+Daughter);&#xa;</style></defs><g><rect x="0" y="0" width="78" height="78" fill="none" stroke="none" pointer-events="all"/><path d="M 66.3 34.57 L 76.22 34.57 C 77.21 34.57 78 33.78 78 32.8 L 78 18.84 C 78 17.85 77.21 17.06 76.22 17.06 L 69.58 17.06 C 64.92 13.42 58.43 8.65 56.29 7.08 L 56.29 1.78 C 56.29 0.79 55.49 0 54.51 0 L 40.55 0 C 39.57 0 38.77 0.79 38.77 1.78 L 38.77 13.14 L 27.39 22.39 C 24.52 20.58 19.63 19.73 14.96 19.73 C 8.21 19.73 0.98 21.5 0.09 25.37 L 0 25.37 C 0 25.51 0.03 25.64 0.04 25.77 C 0.03 25.91 0 26.04 0 26.18 L 0 52.93 C 0 57.37 7.75 59.39 14.96 59.39 C 20.06 59.39 25.41 58.37 28.12 56.21 L 38.77 64.86 L 38.77 76.22 C 38.77 77.21 39.57 78 40.55 78 L 54.51 78 C 55.49 78 56.29 77.21 56.29 76.22 L 56.29 70.92 C 58.43 69.35 64.92 64.58 69.58 60.94 L 76.22 60.94 C 77.21 60.94 78 60.15 78 59.16 L 78 45.2 C 78 44.22 77.21 43.43 76.22 43.43 L 66.3 43.43 L 63.27 39 Z M 40.55 60.49 C 40.15 60.49 39.8 60.65 39.5 60.88 L 29.9 53.08 C 29.9 53.03 29.92 52.98 29.92 52.93 L 29.92 44.04 L 50.77 50.99 L 44.27 60.49 Z M 39.5 17.13 C 39.8 17.35 40.15 17.51 40.55 17.51 L 44.27 17.51 L 50.77 27.01 L 29.92 33.96 L 29.92 26.18 C 29.92 26.04 29.89 25.91 29.87 25.77 C 29.89 25.64 29.92 25.51 29.92 25.37 L 29.82 25.37 C 29.8 25.26 29.75 25.17 29.72 25.07 Z M 29.92 40.3 L 29.92 37.7 L 52.85 30.05 L 58.97 39 L 52.85 47.95 Z M 56.35 28.88 L 60.49 27.5 L 60.49 32.8 C 60.49 33.7 61.17 34.41 62.03 34.52 L 61.12 35.86 Z M 64.04 31.02 L 64.04 20.61 L 74.45 20.61 L 74.45 31.02 Z M 63.75 17.06 L 62.27 17.06 C 61.28 17.06 60.49 17.85 60.49 18.84 L 60.49 23.76 L 54.27 25.84 L 48.57 17.51 L 54.51 17.51 C 55.49 17.51 56.29 16.72 56.29 15.73 L 56.29 11.49 C 58.28 12.96 61.05 15.02 63.75 17.06 Z M 42.32 13.96 L 42.32 3.55 L 52.73 3.55 L 52.73 13.96 Z M 26.06 25.77 C 24.98 26.75 21.09 28.27 14.96 28.27 C 8.82 28.27 4.92 26.75 3.86 25.78 C 4.92 24.8 8.82 23.28 14.96 23.28 C 21.09 23.28 24.98 24.8 26.06 25.77 Z M 14.96 55.84 C 7.85 55.84 3.74 53.79 3.55 52.93 L 3.55 29.73 C 6.48 31.15 10.81 31.82 14.96 31.82 C 19.11 31.82 23.44 31.15 26.37 29.73 L 26.37 52.92 C 26.17 53.79 22.06 55.84 14.96 55.84 Z M 42.33 74.45 L 42.33 64.04 L 52.74 64.04 L 52.74 74.45 Z M 56.29 66.51 L 56.29 62.27 C 56.29 61.28 55.49 60.49 54.51 60.49 L 48.57 60.49 L 54.27 52.16 L 60.49 54.24 L 60.49 59.16 C 60.49 60.15 61.28 60.94 62.27 60.94 L 63.75 60.94 C 61.05 62.98 58.28 65.04 56.29 66.51 Z M 64.04 57.39 L 64.04 46.98 L 74.45 46.98 L 74.45 57.39 Z M 62.03 43.48 C 61.17 43.59 60.49 44.3 60.49 45.2 L 60.49 50.5 L 56.35 49.12 L 61.12 42.14 Z" fill="#4d27aa" stroke="none" pointer-events="all"/></g></svg>