<?xml version="1.0" encoding="UTF-8"?>
<!DOCTYPE svg PUBLIC "-//W3C//DTD SVG 1.1//EN" "http://www.w3.org/Graphics/SVG/1.1/DTD/svg11.dtd">
<svg xmlns="http://www.w3.org/2000/svg" xmlns:xlink="http://www.w3.org/1999/xlink" version="1.1" width="79px" height="79px" viewBox="-0.5 -0.5 79 79" style="background-color: rgb(255, 255, 255);"><defs><style type="text/css">@import url(https://fonts.googleapis.com/css?family=Gloria+Hallelujah);&#xa;@import url(https://fonts.googleapis.com/css?family=Architects+Daughter);&#xa;</style></defs><g><path d="M 0 0 L 78 0 L 78 78 L 0 78 Z" fill="#ffffff" stroke="none" pointer-events="all"/><path d="M 36.67 24.96 C 41.42 24.96 44.02 26.03 44.49 26.56 C 44.02 27.09 41.42 28.16 36.67 28.16 C 31.92 28.16 29.31 27.09 28.84 26.56 C 29.31 26.03 31.92 24.96 36.67 24.96 Z M 36.13 33.48 C 35.95 33.39 35.83 33.21 35.83 33 C 35.83 32.71 36.07 32.47 36.36 32.47 C 36.45 32.47 36.52 32.49 36.6 32.53 Z M 42.24 42.27 C 42.16 42.33 41.98 42.46 41.61 42.61 C 41.28 42.74 40.89 42.86 40.45 42.96 C 39.27 43.24 37.81 43.39 36.36 43.39 C 33.18 43.39 30.96 42.7 30.48 42.28 L 29.07 29.11 C 31.24 30 34.42 30.29 36.67 30.29 C 38.88 30.29 41.99 30.01 44.15 29.16 L 43.31 34.95 C 41.72 34.35 39.74 33.48 37.86 32.56 C 37.67 31.9 37.07 31.41 36.36 31.41 C 35.5 31.41 34.79 32.13 34.79 33 C 34.79 33.88 35.5 34.6 36.36 34.6 C 36.57 34.6 36.76 34.55 36.94 34.48 C 39.56 35.78 41.52 36.61 42.99 37.12 Z M 26.7 26.68 L 28.4 42.54 C 28.52 45.49 36.04 45.52 36.36 45.52 C 37.97 45.52 39.59 45.35 40.92 45.04 C 41.46 44.91 41.96 44.76 42.38 44.59 C 43.62 44.09 44.27 43.41 44.32 42.57 L 45.03 37.71 C 45.51 37.8 45.9 37.85 46.22 37.85 C 47.2 37.85 47.46 37.44 47.64 37.16 C 47.83 36.87 47.89 36.51 47.8 36.15 C 47.6 35.31 46.42 34.21 45.63 33.56 L 46.63 26.72 L 46.62 26.72 C 46.62 26.66 46.64 26.61 46.64 26.56 C 46.64 23.62 40.37 22.83 36.67 22.83 C 32.96 22.83 26.69 23.62 26.69 26.56 C 26.69 26.6 26.71 26.63 26.71 26.68 Z M 36.18 17.38 C 45.33 17.38 52.77 24.94 52.77 34.23 C 52.77 43.51 45.33 51.07 36.18 51.07 C 27.03 51.07 19.59 43.51 19.59 34.23 C 19.59 24.94 27.03 17.38 36.18 17.38 Z M 9.9 40.41 L 9.9 42.54 L 19.35 42.54 L 19.35 42.42 C 22.37 48.78 28.77 53.2 36.18 53.2 C 46.49 53.2 54.87 44.69 54.87 34.23 C 54.87 23.76 46.49 15.25 36.18 15.25 C 28.16 15.25 21.33 20.41 18.68 27.63 L 9.9 27.63 L 9.9 29.76 L 18.03 29.76 C 17.71 31.13 17.51 32.55 17.5 34.02 L 7.8 34.02 L 7.8 36.15 L 17.58 36.15 C 17.73 37.63 18.06 39.05 18.53 40.41 Z M 67.11 66.01 C 65.84 67.3 63.64 67.3 62.37 66.02 L 51.09 54.57 C 52.9 53.19 54.52 51.57 55.91 49.76 L 67.12 61.19 C 67.75 61.84 68.1 62.69 68.1 63.6 C 68.1 64.51 67.75 65.36 67.11 66.01 Z M 68.61 59.69 L 57.15 48 C 59.69 44.03 61.17 39.3 61.17 34.23 C 61.17 20.24 49.96 8.86 36.18 8.86 C 26.28 8.86 17.3 14.8 13.3 24 L 15.22 24.86 C 18.88 16.43 27.11 10.99 36.18 10.99 C 48.8 10.99 59.07 21.41 59.07 34.23 C 59.07 47.04 48.8 57.46 36.18 57.46 C 27.75 57.46 20.02 52.77 16.02 45.23 L 14.17 46.25 C 18.54 54.48 26.98 59.59 36.18 59.59 C 41 59.59 45.5 58.19 49.32 55.79 L 60.88 67.52 C 61.91 68.57 63.28 69.14 64.73 69.14 C 66.19 69.14 67.56 68.56 68.59 67.52 C 69.62 66.47 70.19 65.08 70.2 63.6 C 70.2 62.12 69.63 60.73 68.61 59.69 Z" fill="#4d27aa" stroke="none" pointer-events="all"/></g></svg>