<?xml version="1.0" encoding="UTF-8"?>
<!DOCTYPE svg PUBLIC "-//W3C//DTD SVG 1.1//EN" "http://www.w3.org/Graphics/SVG/1.1/DTD/svg11.dtd">
<svg xmlns="http://www.w3.org/2000/svg" xmlns:xlink="http://www.w3.org/1999/xlink" version="1.1" width="79px" height="79px" viewBox="-0.5 -0.5 79 79" style="background-color: rgb(255, 255, 255);"><defs><linearGradient x1="0%" y1="100%" x2="0%" y2="0%" id="mx-gradient-945df2-1-5a30b5-1-s-0"><stop offset="0%" style="stop-color: rgb(90, 48, 181); stop-opacity: 1;"/><stop offset="100%" style="stop-color: rgb(148, 93, 242); stop-opacity: 1;"/></linearGradient><style type="text/css">@import url(https://fonts.googleapis.com/css?family=Gloria+Hallelujah);&#xa;@import url(https://fonts.googleapis.com/css?family=Architects+Daughter);&#xa;</style></defs><g><path d="M 0 0 L 78 0 L 78 78 L 0 78 Z" fill="url(#mx-gradient-945df2-1-5a30b5-1-s-0)" stroke="none" pointer-events="all"/><path d="M 34.21 35.02 L 34.21 24.23 L 36.6 24.23 L 36.6 29.02 L 39.84 24.23 L 42.49 24.23 L 38.74 29.27 L 42.8 35.02 L 39.96 35.02 L 36.6 29.8 L 36.6 35.02 Z M 70.2 49.59 L 69.4 50.28 C 67.78 51.7 65.61 52.4 63.43 52.4 C 61.25 52.4 59.07 51.7 57.45 50.28 L 55.85 48.89 C 53.51 46.83 49.4 46.83 47.06 48.89 L 45.45 50.28 C 42.21 53.11 36.74 53.12 33.5 50.28 L 31.9 48.89 C 29.56 46.83 25.45 46.83 23.1 48.89 L 21.5 50.28 C 18.26 53.11 12.79 53.12 9.55 50.28 L 8.75 49.59 L 10.32 47.77 L 11.12 48.47 C 13.47 50.53 17.58 50.53 19.92 48.47 L 21.53 47.08 C 24.76 44.25 30.24 44.25 33.48 47.08 L 35.08 48.47 C 37.42 50.53 41.53 50.53 43.87 48.47 L 45.48 47.08 C 48.72 44.25 54.19 44.25 57.43 47.08 L 59.03 48.47 C 61.37 50.53 65.48 50.53 67.83 48.47 L 68.63 47.77 Z M 67.68 64.01 L 69.25 65.83 L 68.44 66.52 C 66.83 67.94 64.65 68.64 62.48 68.64 C 60.3 68.64 58.12 67.94 56.5 66.52 L 54.9 65.13 C 52.55 63.08 48.44 63.08 46.1 65.13 L 44.49 66.52 C 41.26 69.35 35.79 69.35 32.55 66.52 L 30.95 65.13 C 28.6 63.08 24.49 63.08 22.15 65.13 L 20.54 66.52 C 17.31 69.35 11.84 69.35 8.6 66.52 L 7.8 65.83 L 9.37 64.01 L 10.17 64.71 C 12.52 66.76 16.63 66.77 18.97 64.71 L 20.58 63.32 C 23.81 60.49 29.28 60.49 32.52 63.32 L 34.12 64.71 C 36.47 66.76 40.58 66.77 42.92 64.71 L 44.53 63.32 C 47.76 60.49 53.23 60.49 56.47 63.32 L 58.07 64.71 C 60.42 66.76 64.53 66.77 66.87 64.71 Z M 67.68 56.41 L 69.25 58.22 L 68.44 58.92 C 65.21 61.75 59.74 61.76 56.5 58.92 L 54.9 57.53 C 52.55 55.47 48.44 55.47 46.1 57.53 L 44.49 58.92 C 42.88 60.34 40.7 61.04 38.53 61.04 C 36.35 61.04 34.17 60.34 32.55 58.92 L 30.95 57.53 C 28.6 55.47 24.49 55.47 22.15 57.53 L 20.54 58.92 C 17.31 61.75 11.84 61.75 8.6 58.92 L 7.8 58.22 L 9.37 56.41 L 10.17 57.11 C 12.52 59.17 16.63 59.16 18.97 57.11 L 20.58 55.72 C 23.81 52.89 29.29 52.88 32.52 55.72 L 34.12 57.11 C 36.47 59.17 40.58 59.16 42.92 57.11 L 44.53 55.72 C 47.76 52.89 53.24 52.88 56.47 55.72 L 58.07 57.11 C 60.42 59.17 64.53 59.16 66.87 57.11 Z M 19.84 36.22 C 21.16 36.22 22.23 37.29 22.23 38.61 C 22.23 39.94 21.16 41.01 19.84 41.01 C 18.52 41.01 17.44 39.94 17.44 38.61 C 17.44 37.29 18.52 36.22 19.84 36.22 Z M 37.8 11.04 C 39.12 11.04 40.2 12.12 40.2 13.44 C 40.2 14.76 39.12 15.84 37.8 15.84 C 36.48 15.84 35.41 14.76 35.41 13.44 C 35.41 12.12 36.48 11.04 37.8 11.04 Z M 58.16 38.61 C 58.16 39.94 57.09 41.01 55.77 41.01 C 54.45 41.01 53.37 39.94 53.37 38.61 C 53.37 37.29 54.45 36.22 55.77 36.22 C 57.09 36.22 58.16 37.29 58.16 38.61 Z M 37.8 18.24 C 38.6 18.24 39.34 18.02 40 17.67 L 52.21 35.44 C 51.71 36 51.34 36.67 51.15 37.42 L 24.46 37.42 C 24.27 36.67 23.9 36 23.4 35.44 L 35.6 17.67 C 36.26 18.02 37 18.24 37.8 18.24 Z M 19.84 43.41 C 22.06 43.41 23.92 41.87 24.46 39.81 L 51.15 39.81 C 51.68 41.87 53.54 43.41 55.77 43.41 C 58.41 43.41 60.56 41.26 60.56 38.61 C 60.56 35.97 58.41 33.82 55.77 33.82 C 55.21 33.82 54.69 33.93 54.2 34.1 L 41.8 16.06 C 42.3 15.31 42.59 14.41 42.59 13.44 C 42.59 10.8 40.44 8.65 37.8 8.65 C 35.16 8.65 33.01 10.8 33.01 13.44 C 33.01 14.41 33.3 15.31 33.8 16.06 L 21.41 34.1 C 20.91 33.93 20.39 33.82 19.84 33.82 C 17.2 33.82 15.05 35.97 15.05 38.61 C 15.05 41.26 17.2 43.41 19.84 43.41 Z" fill="#ffffff" stroke="none" pointer-events="all"/></g></svg>