<?xml version="1.0" encoding="UTF-8"?>
<!DOCTYPE svg PUBLIC "-//W3C//DTD SVG 1.1//EN" "http://www.w3.org/Graphics/SVG/1.1/DTD/svg11.dtd">
<svg xmlns="http://www.w3.org/2000/svg" xmlns:xlink="http://www.w3.org/1999/xlink" version="1.1" width="79px" height="79px" viewBox="-0.5 -0.5 79 79" style="background-color: rgb(255, 255, 255);"><defs><style type="text/css">@import url(https://fonts.googleapis.com/css?family=Gloria+Hallelujah);&#xa;@import url(https://fonts.googleapis.com/css?family=Architects+Daughter);&#xa;</style></defs><g><path d="M 0 0 L 78 0 L 78 78 L 0 78 Z" fill="#945df2" stroke="none" pointer-events="all"/><path d="M 15.6 63.51 L 17.83 63.51 C 17.83 54.15 23.92 44.57 69.09 44.57 L 69.09 42.34 C 21.95 42.34 15.6 53.04 15.6 63.51 M 22.29 70.2 L 24.51 70.2 C 24.51 61.77 24.51 49.03 69.09 49.03 L 69.09 46.8 C 48.65 46.8 35.35 49.43 28.43 54.84 C 22.29 59.63 22.29 65.74 22.29 70.2 M 11.14 23.4 L 8.91 23.4 C 8.91 31.64 20.1 36.86 42.22 39 C 20.1 41.14 8.91 46.36 8.91 54.6 L 11.14 54.6 C 11.14 49.19 18.67 40.11 69.09 40.11 L 69.09 37.89 C 18.67 37.89 11.14 28.81 11.14 23.4 M 17.83 14.49 L 15.6 14.49 C 15.6 24.96 21.95 35.66 69.09 35.66 L 69.09 33.43 C 23.92 33.43 17.83 23.85 17.83 14.49 M 69.09 28.97 L 69.09 31.2 C 48.65 31.2 35.35 28.57 28.43 23.16 C 22.29 18.37 22.29 12.26 22.29 7.8 L 24.51 7.8 C 24.51 16.23 24.51 28.97 69.09 28.97" fill="#ffffff" stroke="none" pointer-events="all"/></g></svg>